<svg width="16" height="16" viewBox="0 0 16 16" fill="none" xmlns="http://www.w3.org/2000/svg">
<path d="M3.08 12.08C3.76 11.56 4.52 11.1499 5.36 10.8496C6.2 10.5499 7.08 10.4 8 10.4C8.92 10.4 9.8 10.5499 10.64 10.8496C11.48 11.1499 12.24 11.56 12.92 12.08C13.3867 11.5333 13.7501 10.9133 14.0104 10.22C14.2701 9.52667 14.4 8.78667 14.4 8C14.4 6.22667 13.7768 4.71653 12.5304 3.4696C11.2835 2.2232 9.77333 1.6 8 1.6C6.22667 1.6 4.7168 2.2232 3.4704 3.4696C2.22347 4.71653 1.6 6.22667 1.6 8C1.6 8.78667 1.73013 9.52667 1.9904 10.22C2.25013 10.9133 2.61333 11.5333 3.08 12.08ZM8 8.8C7.21333 8.8 6.54987 8.53013 6.0096 7.9904C5.46987 7.45013 5.2 6.78667 5.2 6C5.2 5.21333 5.46987 4.54987 6.0096 4.0096C6.54987 3.46987 7.21333 3.2 8 3.2C8.78667 3.2 9.45013 3.46987 9.9904 4.0096C10.5301 4.54987 10.8 5.21333 10.8 6C10.8 6.78667 10.5301 7.45013 9.9904 7.9904C9.45013 8.53013 8.78667 8.8 8 8.8ZM8 16C6.89333 16 5.85333 15.7899 4.88 15.3696C3.90667 14.9499 3.06 14.38 2.34 13.66C1.62 12.94 1.05013 12.0933 0.6304 11.12C0.210133 10.1467 0 9.10667 0 8C0 6.89333 0.210133 5.85333 0.6304 4.88C1.05013 3.90667 1.62 3.06 2.34 2.34C3.06 1.62 3.90667 1.04987 4.88 0.6296C5.85333 0.209867 6.89333 0 8 0C9.10667 0 10.1467 0.209867 11.12 0.6296C12.0933 1.04987 12.94 1.62 13.66 2.34C14.38 3.06 14.9499 3.90667 15.3696 4.88C15.7899 5.85333 16 6.89333 16 8C16 9.10667 15.7899 10.1467 15.3696 11.12C14.9499 12.0933 14.38 12.94 13.66 13.66C12.94 14.38 12.0933 14.9499 11.12 15.3696C10.1467 15.7899 9.10667 16 8 16Z" fill="#4F90CC"/>
</svg>
