<svg width="22" height="23" viewBox="0 0 22 23" fill="none" xmlns="http://www.w3.org/2000/svg">
<path d="M20.0004 8.7998C19.7171 8.7998 19.4796 8.70397 19.2879 8.51231C19.0962 8.32064 19.0004 8.08314 19.0004 7.7998C19.0004 7.51647 19.0962 7.27897 19.2879 7.0873C19.4796 6.89564 19.7171 6.7998 20.0004 6.7998H21.0004C21.2837 6.7998 21.5212 6.89564 21.7129 7.0873C21.9046 7.27897 22.0004 7.51647 22.0004 7.7998C22.0004 8.08314 21.9046 8.32064 21.7129 8.51231C21.5212 8.70397 21.2837 8.7998 21.0004 8.7998H20.0004ZM14.5004 3.2998C14.2171 3.2998 13.9796 3.20397 13.7879 3.0123C13.5962 2.82064 13.5004 2.58314 13.5004 2.2998V1.2998C13.5004 1.01647 13.5962 0.778971 13.7879 0.587305C13.9796 0.395638 14.2171 0.299805 14.5004 0.299805C14.7837 0.299805 15.0212 0.395638 15.2129 0.587305C15.4046 0.778971 15.5004 1.01647 15.5004 1.2998V2.2998C15.5004 2.58314 15.4046 2.82064 15.2129 3.0123C15.0212 3.20397 14.7837 3.2998 14.5004 3.2998ZM17.6754 4.6248C17.4921 4.44147 17.4004 4.20814 17.4004 3.9248C17.4004 3.64147 17.4921 3.40814 17.6754 3.2248L18.4004 2.4998C18.5837 2.31647 18.8171 2.2248 19.1004 2.2248C19.3837 2.2248 19.6171 2.31647 19.8004 2.4998C19.9837 2.68314 20.0754 2.91647 20.0754 3.1998C20.0754 3.48314 19.9837 3.71647 19.8004 3.8998L19.0754 4.6248C18.8921 4.80814 18.6587 4.8998 18.3754 4.8998C18.0921 4.8998 17.8587 4.80814 17.6754 4.6248ZM16.0004 7.5498C15.9171 7.5498 15.8337 7.54147 15.7504 7.5248C15.6671 7.50814 15.5837 7.4748 15.5004 7.4248L14.6254 6.9248C14.3921 6.79147 14.1379 6.7623 13.8629 6.8373C13.5879 6.9123 13.3837 7.06647 13.2504 7.2998L13.1254 7.4998L14.1254 8.0748C14.4754 8.2748 14.7046 8.57481 14.8129 8.9748C14.9212 9.3748 14.8754 9.7498 14.6754 10.0998L14.0004 11.2998C14.3837 11.8998 14.6712 12.5373 14.8629 13.2123C15.0546 13.8873 15.1504 14.5831 15.1504 15.2998C15.1504 17.3831 14.4212 19.154 12.9629 20.6123C11.5046 22.0706 9.73372 22.7998 7.65039 22.7998C5.56706 22.7998 3.79622 22.0623 2.33789 20.5873C0.879557 19.1123 0.150391 17.3331 0.150391 15.2498C0.150391 13.1665 0.871224 11.404 2.31289 9.96231C3.75456 8.52064 5.51706 7.7998 7.60039 7.7998H7.92539L8.60039 6.6248C8.80039 6.25814 9.10039 6.02064 9.50039 5.9123C9.90039 5.80397 10.2837 5.85814 10.6504 6.0748L11.4004 6.4998L11.5254 6.2998C11.9087 5.58314 12.5087 5.11647 13.3254 4.8998C14.1421 4.68314 14.9087 4.78314 15.6254 5.1998L16.4754 5.6748C16.6254 5.75814 16.7504 5.87897 16.8504 6.0373C16.9504 6.19564 17.0004 6.36647 17.0004 6.5498C17.0004 6.83314 16.9046 7.07064 16.7129 7.2623C16.5212 7.45397 16.2837 7.5498 16.0004 7.5498Z" fill="#09880D"/>
</svg>
