<svg width="24" height="25" viewBox="0 0 24 25" fill="none" xmlns="http://www.w3.org/2000/svg">
<path d="M15 22.25H4.5C3.90326 22.25 3.33097 22.0129 2.90901 21.591C2.48705 21.169 2.25 20.5967 2.25 20V9.5C2.25 8.90326 2.48705 8.33097 2.90901 7.90901C3.33097 7.48705 3.90326 7.25 4.5 7.25H15C15.5967 7.25 16.169 7.48705 16.591 7.90901C17.0129 8.33097 17.25 8.90326 17.25 9.5V20C17.25 20.5967 17.0129 21.169 16.591 21.591C16.169 22.0129 15.5967 22.25 15 22.25ZM4.5 8.75C4.30109 8.75 4.11032 8.82902 3.96967 8.96967C3.82902 9.11032 3.75 9.30109 3.75 9.5V20C3.75 20.1989 3.82902 20.3897 3.96967 20.5303C4.11032 20.671 4.30109 20.75 4.5 20.75H15C15.1989 20.75 15.3897 20.671 15.5303 20.5303C15.671 20.3897 15.75 20.1989 15.75 20V9.5C15.75 9.30109 15.671 9.11032 15.5303 8.96967C15.3897 8.82902 15.1989 8.75 15 8.75H4.5Z" fill="black"/>
<path d="M7.5 6.5C7.30109 6.5 7.11032 6.42098 6.96967 6.28033C6.82902 6.13968 6.75 5.94891 6.75 5.75V5C6.75 4.40326 6.98705 3.83097 7.40901 3.40901C7.83097 2.98705 8.40326 2.75 9 2.75H9.75C9.94891 2.75 10.1397 2.82902 10.2803 2.96967C10.421 3.11032 10.5 3.30109 10.5 3.5C10.5 3.69891 10.421 3.88968 10.2803 4.03033C10.1397 4.17098 9.94891 4.25 9.75 4.25H9C8.80109 4.25 8.61032 4.32902 8.46967 4.46967C8.32902 4.61032 8.25 4.80109 8.25 5V5.75C8.25 5.94891 8.17098 6.13968 8.03033 6.28033C7.88968 6.42098 7.69891 6.5 7.5 6.5Z" fill="black"/>
<path d="M19.5 17.75H18.75C18.5511 17.75 18.3603 17.671 18.2197 17.5303C18.079 17.3897 18 17.1989 18 17C18 16.8011 18.079 16.6103 18.2197 16.4697C18.3603 16.329 18.5511 16.25 18.75 16.25H19.5C19.6989 16.25 19.8897 16.171 20.0303 16.0303C20.171 15.8897 20.25 15.6989 20.25 15.5V14.75C20.25 14.5511 20.329 14.3603 20.4697 14.2197C20.6103 14.079 20.8011 14 21 14C21.1989 14 21.3897 14.079 21.5303 14.2197C21.671 14.3603 21.75 14.5511 21.75 14.75V15.5C21.75 16.0967 21.5129 16.669 21.091 17.091C20.669 17.5129 20.0967 17.75 19.5 17.75Z" fill="black"/>
<path d="M21 6.5C20.8011 6.5 20.6103 6.42098 20.4697 6.28033C20.329 6.13968 20.25 5.94891 20.25 5.75V5C20.25 4.80109 20.171 4.61032 20.0303 4.46967C19.8897 4.32902 19.6989 4.25 19.5 4.25H18.75C18.5511 4.25 18.3603 4.17098 18.2197 4.03033C18.079 3.88968 18 3.69891 18 3.5C18 3.30109 18.079 3.11032 18.2197 2.96967C18.3603 2.82902 18.5511 2.75 18.75 2.75H19.5C20.0967 2.75 20.669 2.98705 21.091 3.40901C21.5129 3.83097 21.75 4.40326 21.75 5V5.75C21.75 5.94891 21.671 6.13968 21.5303 6.28033C21.3897 6.42098 21.1989 6.5 21 6.5Z" fill="black"/>
<path d="M21 12.5C20.8011 12.5 20.6103 12.421 20.4697 12.2803C20.329 12.1397 20.25 11.9489 20.25 11.75V8.75C20.25 8.55109 20.329 8.36032 20.4697 8.21967C20.6103 8.07902 20.8011 8 21 8C21.1989 8 21.3897 8.07902 21.5303 8.21967C21.671 8.36032 21.75 8.55109 21.75 8.75V11.75C21.75 11.9489 21.671 12.1397 21.5303 12.2803C21.3897 12.421 21.1989 12.5 21 12.5Z" fill="black"/>
<path d="M15.75 4.25H12.75C12.5511 4.25 12.3603 4.17098 12.2197 4.03033C12.079 3.88968 12 3.69891 12 3.5C12 3.30109 12.079 3.11032 12.2197 2.96967C12.3603 2.82902 12.5511 2.75 12.75 2.75H15.75C15.9489 2.75 16.1397 2.82902 16.2803 2.96967C16.421 3.11032 16.5 3.30109 16.5 3.5C16.5 3.69891 16.421 3.88968 16.2803 4.03033C16.1397 4.17098 15.9489 4.25 15.75 4.25Z" fill="black"/>
<path d="M12 15.5H7.5C7.30109 15.5 7.11032 15.421 6.96967 15.2803C6.82902 15.1397 6.75 14.9489 6.75 14.75C6.75 14.5511 6.82902 14.3603 6.96967 14.2197C7.11032 14.079 7.30109 14 7.5 14H12C12.1989 14 12.3897 14.079 12.5303 14.2197C12.671 14.3603 12.75 14.5511 12.75 14.75C12.75 14.9489 12.671 15.1397 12.5303 15.2803C12.3897 15.421 12.1989 15.5 12 15.5Z" fill="black"/>
<path d="M9.75 17.75C9.55109 17.75 9.36032 17.671 9.21967 17.5303C9.07902 17.3897 9 17.1989 9 17V12.5C9 12.3011 9.07902 12.1103 9.21967 11.9697C9.36032 11.829 9.55109 11.75 9.75 11.75C9.94891 11.75 10.1397 11.829 10.2803 11.9697C10.421 12.1103 10.5 12.3011 10.5 12.5V17C10.5 17.1989 10.421 17.3897 10.2803 17.5303C10.1397 17.671 9.94891 17.75 9.75 17.75Z" fill="black"/>
</svg>
