<svg width="20" height="20" viewBox="0 0 20 20" fill="none" xmlns="http://www.w3.org/2000/svg">
<path d="M17.2485 4.52799L14.7263 1.70577C14.5592 1.51894 14.3546 1.36943 14.1258 1.267C13.897 1.16458 13.6492 1.11153 13.3985 1.11133H4.07075C3.5997 1.11279 3.14837 1.30056 2.81529 1.63365C2.48221 1.96673 2.29443 2.41806 2.29297 2.88911V17.1113C2.29443 17.5824 2.48221 18.0337 2.81529 18.3668C3.14837 18.6999 3.5997 18.8876 4.07075 18.8891H15.9263C16.3973 18.8876 16.8487 18.6999 17.1818 18.3668C17.5148 18.0337 17.7026 17.5824 17.7041 17.1113V5.71133C17.7055 5.2738 17.543 4.85162 17.2485 4.52799ZM16.3152 5.26133H13.5374V2.32799C13.6479 2.35425 13.7483 2.41217 13.8263 2.49466L16.3152 5.26133ZM16.343 17.528C16.233 17.6399 16.0832 17.7038 15.9263 17.7058H4.07075C3.91384 17.7038 3.76406 17.6399 3.65408 17.528C3.59785 17.4744 3.55347 17.4097 3.5238 17.3379C3.49414 17.2661 3.47985 17.189 3.48186 17.1113V2.88911C3.48328 2.73285 3.5456 2.58331 3.65558 2.47229C3.76556 2.36128 3.91451 2.29755 4.07075 2.29466H12.3707V5.85022C12.37 5.92802 12.3847 6.00519 12.414 6.07728C12.4432 6.14937 12.4865 6.21495 12.5413 6.27022C12.596 6.32549 12.6612 6.36937 12.733 6.39931C12.8048 6.42925 12.8818 6.44467 12.9596 6.44466H16.5152V17.1113C16.5172 17.189 16.5029 17.2661 16.4732 17.3379C16.4436 17.4097 16.3992 17.4744 16.343 17.528Z" fill="#4F90CC"/>
<path d="M12.3722 14.7393H10.5944C10.4368 14.7393 10.2856 14.8019 10.1741 14.9134C10.0626 15.0248 10 15.176 10 15.3337C10 15.4914 10.0626 15.6426 10.1741 15.754C10.2856 15.8655 10.4368 15.9281 10.5944 15.9281H12.3722C12.5299 15.9281 12.6811 15.8655 12.7926 15.754C12.904 15.6426 12.9667 15.4914 12.9667 15.3337C12.9667 15.176 12.904 15.0248 12.7926 14.9134C12.6811 14.8019 12.5299 14.7393 12.3722 14.7393Z" fill="#4F90CC"/>
<path d="M14.1491 15.9281C14.4774 15.9281 14.7436 15.662 14.7436 15.3337C14.7436 15.0054 14.4774 14.7393 14.1491 14.7393C13.8208 14.7393 13.5547 15.0054 13.5547 15.3337C13.5547 15.662 13.8208 15.9281 14.1491 15.9281Z" fill="#4F90CC"/>
<path d="M5.84954 6.44408H8.81621C8.96324 6.42981 9.09969 6.36132 9.19897 6.25194C9.29826 6.14256 9.35326 6.00013 9.35326 5.85241C9.35326 5.70469 9.29826 5.56226 9.19897 5.45288C9.09969 5.3435 8.96324 5.27501 8.81621 5.26074H5.84954C5.70252 5.27501 5.56606 5.3435 5.46678 5.45288C5.3675 5.56226 5.3125 5.70469 5.3125 5.85241C5.3125 6.00013 5.3675 6.14256 5.46678 6.25194C5.56606 6.36132 5.70252 6.42981 5.84954 6.44408Z" fill="#4F90CC"/>
<path d="M5.84954 9.40599H14.1495C14.2966 9.39173 14.433 9.32323 14.5323 9.21385C14.6316 9.10447 14.6866 8.96204 14.6866 8.81432C14.6866 8.6666 14.6316 8.52418 14.5323 8.4148C14.433 8.30542 14.2966 8.23692 14.1495 8.22266H5.84954C5.70252 8.23692 5.56606 8.30542 5.46678 8.4148C5.3675 8.52418 5.3125 8.6666 5.3125 8.81432C5.3125 8.96204 5.3675 9.10447 5.46678 9.21385C5.56606 9.32323 5.70252 9.39173 5.84954 9.40599Z" fill="#4F90CC"/>
<path d="M14.7372 11.778C14.738 11.7002 14.7233 11.6231 14.694 11.551C14.6648 11.4789 14.6215 11.4133 14.5667 11.358C14.512 11.3028 14.4468 11.2589 14.375 11.2289C14.3032 11.199 14.2262 11.1836 14.1483 11.1836H5.84835C5.69069 11.1836 5.53949 11.2462 5.42801 11.3577C5.31653 11.4692 5.25391 11.6204 5.25391 11.778C5.25391 11.9357 5.31653 12.0869 5.42801 12.1984C5.53949 12.3099 5.69069 12.3725 5.84835 12.3725H14.1483C14.2262 12.3725 14.3032 12.3571 14.375 12.3271C14.4468 12.2972 14.512 12.2533 14.5667 12.198C14.6215 12.1428 14.6648 12.0772 14.694 12.0051C14.7233 11.933 14.738 11.8558 14.7372 11.778Z" fill="#4F90CC"/>
</svg>
