<svg width="24" height="24" viewBox="0 0 24 24" fill="none" xmlns="http://www.w3.org/2000/svg">
<g clip-path="url(#clip0_2316_1644)">
<path d="M7.03125 0H16.9688C20.85 0 24 3.15 24 7.03125V16.9688C24 20.85 20.85 24 16.9688 24H7.03125C3.15 24 0 20.85 0 16.9688V7.03125C0 3.15 3.15 0 7.03125 0ZM6.51797 16.3528L7.64719 17.482C7.92188 17.7567 8.36719 17.7567 8.64141 17.482L14.5097 11.6137V13.4461C14.5097 13.6327 14.5837 13.8112 14.7155 13.9434L16.4873 15.7153C16.9303 16.1583 17.6878 15.8447 17.6878 15.218V7.01531C17.6878 6.62719 17.3728 6.31219 16.9847 6.31219H8.78203C8.15578 6.31219 7.84172 7.06969 8.28469 7.51266L10.0566 9.28453C10.1883 9.41625 10.3673 9.49031 10.5539 9.49031H12.3863L6.51797 15.3586C6.24328 15.6333 6.24328 16.0786 6.51797 16.3528Z" fill="#A7A7A8"/>
</g>
<defs>
<clipPath id="clip0_2316_1644">
<rect width="24" height="24" fill="white" transform="matrix(-1 0 0 1 24 0)"/>
</clipPath>
</defs>
</svg>
