<svg width="25" height="24" viewBox="0 0 25 24" fill="none" xmlns="http://www.w3.org/2000/svg">
<path d="M16.3032 6.19716V0.75H1.30322V23.25H16.3032V15.569" stroke="black" stroke-width="1.3" stroke-miterlimit="10" stroke-linecap="round" stroke-linejoin="round"/>
<path d="M23.1936 23.0614C22.521 23.4497 21.6609 23.2192 21.2726 22.5467L19.3976 19.299C19.0093 18.6265 19.2397 17.7664 19.9123 17.3781C20.585 16.9898 21.445 17.2202 21.8333 17.8928L23.7083 21.1404C24.0966 21.813 23.8662 22.6731 23.1936 23.0614Z" stroke="black" stroke-width="1.3" stroke-miterlimit="10" stroke-linecap="round" stroke-linejoin="round"/>
<path d="M19.9126 17.3779L18.5063 14.9422" stroke="black" stroke-width="1.3" stroke-miterlimit="10" stroke-linecap="round" stroke-linejoin="round"/>
<path d="M4.11572 16.2188H10.6782" stroke="black" stroke-width="1.3" stroke-miterlimit="10" stroke-linecap="round" stroke-linejoin="round"/>
<path d="M20.2219 8.53925C21.5163 10.7812 20.7482 13.6481 18.5061 14.9425C16.2641 16.2369 13.3973 15.4687 12.1029 13.2267C10.8085 10.9848 11.5766 8.11794 13.8186 6.82348C16.0607 5.52908 18.9275 6.29726 20.2219 8.53925Z" stroke="black" stroke-width="1.3" stroke-miterlimit="10" stroke-linecap="round" stroke-linejoin="round"/>
<path d="M12.6462 7.78125H4.11572" stroke="black" stroke-width="1.3" stroke-miterlimit="10" stroke-linecap="round" stroke-linejoin="round"/>
<path d="M4.11572 10.5938H11.4836" stroke="black" stroke-width="1.3" stroke-miterlimit="10" stroke-linecap="round" stroke-linejoin="round"/>
<path d="M4.11572 13.4062H12.2123" stroke="black" stroke-width="1.3" stroke-miterlimit="10" stroke-linecap="round" stroke-linejoin="round"/>
<path d="M17.8189 10.071L15.6092 12.2808L14.5044 11.1759" stroke="black" stroke-width="1.3" stroke-miterlimit="10" stroke-linecap="round" stroke-linejoin="round"/>
</svg>
