<svg width="20" height="20" viewBox="0 0 20 20" fill="none" xmlns="http://www.w3.org/2000/svg">
<path fill-rule="evenodd" clip-rule="evenodd" d="M6.91294 2.46209C7.279 2.82821 7.279 3.4218 6.91294 3.78791L3.82583 6.875L6.91294 9.96206C7.279 10.3282 7.279 10.9218 6.91294 11.2879C6.54681 11.654 5.95321 11.654 5.58709 11.2879L1.83709 7.53794C1.47097 7.17181 1.47097 6.57819 1.83709 6.21209L5.58709 2.46209C5.95321 2.09597 6.54681 2.09597 6.91294 2.46209Z" fill="black"/>
<path fill-rule="evenodd" clip-rule="evenodd" d="M1.5625 6.875C1.5625 6.35725 1.98223 5.9375 2.5 5.9375H13.125C14.5339 5.9375 15.8852 6.49719 16.8815 7.4935C17.8778 8.48981 18.4375 9.84106 18.4375 11.25C18.4375 12.6589 17.8778 14.0102 16.8815 15.0065C15.8852 16.0028 14.5339 16.5625 13.125 16.5625H6.25C5.73223 16.5625 5.3125 16.1427 5.3125 15.625C5.3125 15.1073 5.73223 14.6875 6.25 14.6875H13.125C14.0367 14.6875 14.911 14.3253 15.5557 13.6807C16.2003 13.036 16.5625 12.1617 16.5625 11.25C16.5625 10.3383 16.2003 9.464 15.5557 8.81931C14.911 8.17469 14.0367 7.8125 13.125 7.8125H2.5C1.98223 7.8125 1.5625 7.39275 1.5625 6.875Z" fill="black"/>
</svg>
