<svg width="16" height="20" viewBox="0 0 16 20" fill="none" xmlns="http://www.w3.org/2000/svg">
<path d="M1.48651 13.771H2.90903C2.87671 13.5438 2.85964 13.3147 2.85796 13.0853V12.3996C2.85811 12.1673 2.89216 11.9363 2.95909 11.7139H1.82937C1.26132 11.7139 0.800781 12.1744 0.800781 12.7425V13.0853C0.800819 13.464 1.10779 13.771 1.48651 13.771Z" fill="white"/>
<path d="M6.59473 18.0283L6.69759 18.5306C6.82122 19.1519 7.36628 19.5995 7.99972 19.5999C8.6332 19.6003 9.17882 19.1534 9.30328 18.5323L9.40614 18.0283C8.4889 18.2948 7.51474 18.2948 6.5975 18.0283H6.59473Z" fill="white"/>
<path d="M8.00042 16.1712C7.04569 16.1595 6.09391 16.2794 5.17188 16.5274C6.81469 17.8809 9.18616 17.8809 10.8289 16.5274C9.90694 16.2794 8.95512 16.1595 8.00042 16.1712Z" fill="white"/>
<path d="M1.14355 14.4082V16.2055C1.36979 16.1593 1.60304 16.1593 1.82928 16.2055V14.4569H1.48642C1.3705 14.4555 1.25527 14.4391 1.14355 14.4082Z" fill="white"/>
<path d="M1.4866 18.9141C2.05467 18.9141 2.51518 18.4536 2.51518 17.8855C2.51518 17.3174 2.05467 16.8569 1.4866 16.8569C0.918522 16.8569 0.458008 17.3174 0.458008 17.8855C0.458008 18.4536 0.918522 18.9141 1.4866 18.9141Z" fill="white"/>
<path d="M1.82974 7.21359V4.55713C1.22355 4.71298 0.799805 5.25947 0.799805 5.88534C0.799805 6.51122 1.22359 7.05774 1.82974 7.21359Z" fill="white"/>
<path d="M13.1438 12.3996V13.0853C13.1422 13.3148 13.1251 13.5439 13.0928 13.771H14.5153C14.894 13.771 15.201 13.464 15.201 13.0853V12.7425C15.201 12.1744 14.7405 11.7139 14.1724 11.7139H13.041C13.1085 11.9362 13.1431 12.1672 13.1438 12.3996Z" fill="white"/>
<path d="M8.77073 12.3999H7.23132C7.13052 12.3994 7.03879 12.458 6.99687 12.5497C6.95494 12.6414 6.97062 12.7491 7.03692 12.825L7.77784 13.6702C7.83522 13.7324 7.91603 13.7679 8.0007 13.7679C8.08538 13.7679 8.16619 13.7325 8.22357 13.6702L8.96449 12.825C9.03072 12.7492 9.04643 12.6416 9.00469 12.55C8.96292 12.4584 8.87142 12.3997 8.77073 12.3999Z" fill="white"/>
<path d="M4.22988 9.99977H11.7726C12.7189 9.99865 13.4858 9.23182 13.4869 8.28552V4.17126C13.4844 2.08944 11.7974 0.40234 9.71553 0.399902H6.28699C4.20513 0.40234 2.51806 2.08944 2.51562 4.17126V8.28548C2.51675 9.23182 3.28358 9.99865 4.22988 9.99977ZM3.20134 5.54269C3.20303 4.02858 4.43005 2.80156 5.94417 2.79987H10.0584C11.5725 2.80156 12.7995 4.02858 12.8012 5.54269V6.22841C12.7995 7.74253 11.5725 8.96955 10.0584 8.97124H5.94417C4.43005 8.96955 3.20303 7.74253 3.20134 6.22841V5.54269Z" fill="white"/>
<path d="M5.94383 8.28529H10.058C11.1937 8.28416 12.114 7.36381 12.1152 6.22818V5.54246C12.114 4.40683 11.1937 3.48648 10.058 3.48535H5.94383C4.80819 3.48648 3.88784 4.40683 3.88672 5.54246V6.22818C3.88784 7.36381 4.80816 8.28412 5.94383 8.28529ZM10.058 4.85675C10.8155 4.85675 11.4294 5.47076 11.4294 6.22814C11.4294 6.41747 11.276 6.571 11.0866 6.571C10.8972 6.571 10.7437 6.41751 10.7437 6.22814C10.7437 5.84943 10.4367 5.54242 10.058 5.54242C9.6793 5.54242 9.37229 5.84943 9.37229 6.22814C9.37229 6.41747 9.21881 6.571 9.02944 6.571C8.8401 6.571 8.68658 6.41751 8.68658 6.22814C8.68662 5.47076 9.30063 4.85675 10.058 4.85675ZM5.94383 4.85675C6.70124 4.85675 7.31522 5.47076 7.31522 6.22814C7.31522 6.41747 7.16174 6.571 6.97236 6.571C6.78299 6.571 6.62951 6.41751 6.62951 6.22814C6.62951 5.84943 6.3225 5.54242 5.94379 5.54242C5.56508 5.54242 5.25808 5.84943 5.25808 6.22814C5.25808 6.41747 5.10459 6.571 4.91522 6.571C4.72584 6.571 4.57236 6.41751 4.57236 6.22814C4.5724 5.47076 5.18641 4.85675 5.94383 4.85675Z" fill="white"/>
<path d="M12.4581 13.0855V12.3998C12.457 11.4535 11.6901 10.6867 10.7438 10.6855H5.2582C4.3119 10.6867 3.54507 11.4535 3.54395 12.3998V13.0855C3.54372 14.1483 3.92532 15.1758 4.61913 15.9809C5.71232 15.6344 6.8544 15.4671 8.00102 15.4855C9.14768 15.4671 10.2897 15.6344 11.3829 15.9809C12.0767 15.1758 12.4583 14.1483 12.4581 13.0855ZM9.48041 13.2772L8.73984 14.122C8.55331 14.3348 8.28403 14.4569 8.00098 14.4569C7.71794 14.4569 7.44865 14.3348 7.26213 14.122L6.52155 13.2772C6.27773 12.9989 6.21935 12.6036 6.37231 12.2667C6.52527 11.9299 6.86126 11.7137 7.23127 11.7141H8.77066C9.14067 11.7137 9.47666 11.9299 9.62962 12.2667C9.78262 12.6036 9.72427 12.9989 9.48041 13.2772Z" fill="white"/>
<path d="M15.2005 5.88534C15.1995 5.26022 14.7769 4.71444 14.1719 4.55713V7.21359C14.7769 7.05624 15.1995 6.51047 15.2005 5.88534Z" fill="white"/>
<path d="M14.8576 16.2055V14.4082C14.7459 14.4391 14.6306 14.4555 14.5147 14.4569H14.1719V16.2055C14.3981 16.1593 14.6314 16.1593 14.8576 16.2055Z" fill="white"/>
<path d="M14.5149 18.9141C15.083 18.9141 15.5435 18.4536 15.5435 17.8855C15.5435 17.3174 15.083 16.8569 14.5149 16.8569C13.9468 16.8569 13.4863 17.3174 13.4863 17.8855C13.4863 18.4536 13.9468 18.9141 14.5149 18.9141Z" fill="white"/>
</svg>
