<svg width="14" height="14" viewBox="0 0 14 14" fill="none" xmlns="http://www.w3.org/2000/svg">
<g clip-path="url(#clip0_3006_32961)">
<path fill-rule="evenodd" clip-rule="evenodd" d="M7 0C3.13906 0 0 3.13906 0 7C0 10.8609 3.13906 14 7 14C10.8609 14 14 10.8609 14 7C14 3.13906 10.8609 0 7 0Z" fill="#4BAE4F"/>
<path d="M5.65195 10.2021C4.75781 9.30791 3.86914 8.40557 2.97227 7.51143C2.87383 7.41299 2.87383 7.24893 2.97227 7.15049L4.00312 6.11963C4.10156 6.02119 4.26563 6.02119 4.36406 6.11963L5.83789 7.59346L9.62773 3.80088C9.72891 3.70244 9.89023 3.70244 9.99141 3.80088L11.025 4.83447C11.1262 4.93564 11.1262 5.09697 11.025 5.19541L6.01289 10.2021C5.91445 10.3032 5.75312 10.3032 5.65195 10.2021Z" fill="white"/>
</g>
<defs>
<clipPath id="clip0_3006_32961">
<rect width="14" height="14" fill="white"/>
</clipPath>
</defs>
</svg>
