<svg width="36" height="36" viewBox="0 0 36 36" fill="none" xmlns="http://www.w3.org/2000/svg">
<rect width="36" height="36" rx="5" fill="#4F90CC"/>
<g clip-path="url(#clip0_10677_23475)">
<path d="M24.9999 18.0469C24.447 18.0469 24 18.495 24 19.0469V27.0469C24 27.5979 23.5519 28.0469 23.0001 28.0469H9C8.44794 28.0469 8.00006 27.5979 8.00006 27.0469V13.0469C8.00006 12.4959 8.44794 12.0469 9 12.0469H17.0001C17.553 12.0469 18 11.5989 18 11.047C18 10.4949 17.553 10.0469 17.0001 10.0469H9C7.34601 10.0469 6 11.3929 6 13.0469V27.0469C6 28.7009 7.34601 30.0469 9 30.0469H23.0001C24.6541 30.0469 26.0001 28.7009 26.0001 27.0469V19.0469C26.0001 18.4939 25.5529 18.0469 24.9999 18.0469Z" fill="white"/>
<path d="M15.3771 17.1346C15.3072 17.2046 15.2601 17.2936 15.2401 17.3895L14.5332 20.9257C14.5002 21.0895 14.5522 21.2585 14.6701 21.3776C14.7652 21.4726 14.8932 21.5235 15.0243 21.5235C15.0561 21.5235 15.0893 21.5206 15.1222 21.5136L18.6573 20.8066C18.7552 20.7865 18.8442 20.7396 18.9132 20.6695L26.8252 12.7575L23.2902 9.22266L15.3771 17.1346Z" fill="white"/>
<path d="M29.2705 6.77815C28.2957 5.80312 26.7096 5.80312 25.7355 6.77815L24.3516 8.16206L27.8866 11.6971L29.2705 10.313C29.7426 9.84206 30.0026 9.214 30.0026 8.54604C30.0026 7.87807 29.7426 7.25002 29.2705 6.77815Z" fill="white"/>
</g>
<defs>
<clipPath id="clip0_10677_23475">
<rect width="24" height="24" fill="white" transform="translate(6 6)"/>
</clipPath>
</defs>
</svg>
