<svg id="Icons" viewBox="0 0 60 60" xmlns="http://www.w3.org/2000/svg"><path d="m6 51c0 1.657 1.343 3 3 3h4v-7h-5s-2 0-2 4z" fill="#5aa064"/><path d="m54 12v43c0 2.209-1.791 4-4 4h-34c-2.209 0-4-1.791-4-4v-50c0-2.209 1.791-4 4-4h27z" fill="#e8ecef"/><path d="m54 12h-10c-.55 0-1-.45-1-1v-10z" fill="#c7d0dd"/><path d="m9 48h36c1.657 0 3-1.343 3-3v-14c0-1.657-1.343-3-3-3h-36c-1.657 0-3 1.343-3 3v20c0-1.657 1.343-3 3-3z" fill="#61c161"/><g fill="#fff"><path d="m40.287 32.042c-.532-.156-1.087.142-1.245.671l-2.042 6.807-2.042-6.807c-.159-.529-.714-.827-1.245-.671-.529.159-.829.717-.671 1.245l3 10c.127.423.517.713.958.713s.831-.29.958-.713l3-10c.158-.528-.142-1.086-.671-1.245z"/><path d="m17 34c1.103 0 2 .897 2 2 0 .553.447 1 1 1s1-.447 1-1c0-2.206-1.794-4-4-4s-4 1.794-4 4v4c0 2.206 1.794 4 4 4s4-1.794 4-4c0-.553-.447-1-1-1s-1 .447-1 1c0 1.103-.897 2-2 2s-2-.897-2-2v-4c0-1.103.897-2 2-2z"/><path d="m27.242 37.03c-1.737-.435-2.242-.688-2.242-1.53 0-.813.916-1.5 2-1.5 1.415 0 2.09 1.105 2.13 1.174.271.477.874.648 1.355.381.482-.268.657-.876.389-1.359-.05-.09-1.248-2.195-3.874-2.195-2.206 0-4 1.57-4 3.5 0 2.531 2.261 3.096 3.758 3.47 1.737.435 2.242.688 2.242 1.53 0 .813-.916 1.5-2 1.5-1.428 0-2.103-1.127-2.126-1.166-.268-.482-.874-.658-1.359-.389-.482.268-.657.876-.389 1.359.05.09 1.248 2.195 3.874 2.195 2.206 0 4-1.57 4-3.5 0-2.531-2.261-3.096-3.758-3.47z"/></g></svg>