<svg width="25" height="24" viewBox="0 0 25 24" fill="none" xmlns="http://www.w3.org/2000/svg">
<path d="M19.6719 7C19.4067 7 19.1523 7.10536 18.9648 7.29289C18.7772 7.48043 18.6719 7.73478 18.6719 8V19.191C18.6432 19.6967 18.4158 20.1706 18.0394 20.5094C17.6629 20.8482 17.1678 21.0246 16.6619 21H8.68188C8.17597 21.0246 7.68086 20.8482 7.30438 20.5094C6.9279 20.1706 6.70056 19.6967 6.67188 19.191V8C6.67188 7.73478 6.56652 7.48043 6.37898 7.29289C6.19145 7.10536 5.93709 7 5.67188 7C5.40666 7 5.1523 7.10536 4.96477 7.29289C4.77723 7.48043 4.67188 7.73478 4.67188 8V19.191C4.70042 20.2272 5.13846 21.2099 5.89006 21.9238C6.64165 22.6378 7.64555 23.0247 8.68188 23H16.6619C17.6982 23.0247 18.7021 22.6378 19.4537 21.9238C20.2053 21.2099 20.6433 20.2272 20.6719 19.191V8C20.6719 7.73478 20.5665 7.48043 20.379 7.29289C20.1914 7.10536 19.9371 7 19.6719 7Z" fill="#E02626"/>
<path d="M20.6719 4H16.6719V2C16.6719 1.73478 16.5665 1.48043 16.379 1.29289C16.1914 1.10536 15.9371 1 15.6719 1H9.67188C9.40666 1 9.1523 1.10536 8.96477 1.29289C8.77723 1.48043 8.67188 1.73478 8.67188 2V4H4.67188C4.40666 4 4.1523 4.10536 3.96477 4.29289C3.77723 4.48043 3.67188 4.73478 3.67188 5C3.67188 5.26522 3.77723 5.51957 3.96477 5.70711C4.1523 5.89464 4.40666 6 4.67188 6H20.6719C20.9371 6 21.1914 5.89464 21.379 5.70711C21.5665 5.51957 21.6719 5.26522 21.6719 5C21.6719 4.73478 21.5665 4.48043 21.379 4.29289C21.1914 4.10536 20.9371 4 20.6719 4ZM10.6719 4V3H14.6719V4H10.6719Z" fill="#E02626"/>
<path d="M11.6719 17V10C11.6719 9.73478 11.5665 9.48043 11.379 9.29289C11.1914 9.10536 10.9371 9 10.6719 9C10.4067 9 10.1523 9.10536 9.96477 9.29289C9.77723 9.48043 9.67188 9.73478 9.67188 10V17C9.67188 17.2652 9.77723 17.5196 9.96477 17.7071C10.1523 17.8946 10.4067 18 10.6719 18C10.9371 18 11.1914 17.8946 11.379 17.7071C11.5665 17.5196 11.6719 17.2652 11.6719 17Z" fill="#E02626"/>
<path d="M15.6719 17V10C15.6719 9.73478 15.5665 9.48043 15.379 9.29289C15.1914 9.10536 14.9371 9 14.6719 9C14.4067 9 14.1523 9.10536 13.9648 9.29289C13.7772 9.48043 13.6719 9.73478 13.6719 10V17C13.6719 17.2652 13.7772 17.5196 13.9648 17.7071C14.1523 17.8946 14.4067 18 14.6719 18C14.9371 18 15.1914 17.8946 15.379 17.7071C15.5665 17.5196 15.6719 17.2652 15.6719 17Z" fill="#E02626"/>
</svg>
