<svg width="24" height="24" viewBox="0 0 24 24" fill="none" xmlns="http://www.w3.org/2000/svg">
<g clip-path="url(#clip0_10257_31291)">
<path d="M12 23.25C18.2132 23.25 23.25 18.2132 23.25 12C23.25 5.7868 18.2132 0.75 12 0.75C5.7868 0.75 0.75 5.7868 0.75 12C0.75 18.2132 5.7868 23.25 12 23.25Z" fill="#FF5A54"/>
<path fill-rule="evenodd" clip-rule="evenodd" d="M23.2467 11.8389C23.2475 11.8926 23.2488 11.9462 23.2488 12.0001C23.2488 18.2133 18.212 23.2501 11.9988 23.2501C11.9398 23.2501 11.8811 23.2488 11.8223 23.2478L7.6662 19.0917C7.52258 18.9685 7.4277 18.7896 7.41533 18.5865L6.83422 9.05602H6.90706L6.0883 8.23725C6.04583 8.19478 6.01953 8.13619 6.01953 8.07164V6.86414C6.01953 6.46584 6.34437 6.14105 6.74262 6.14105H9.78945V5.54981C9.78945 5.10066 10.1558 4.73438 10.6049 4.73438H13.3927C13.6313 4.73438 13.8466 4.83773 13.9959 5.00203L15.1349 6.14105H17.255C17.479 6.14105 17.6798 6.24384 17.8126 6.40467L23.2467 11.8389Z" fill="#DB3A3C"/>
<path fill-rule="evenodd" clip-rule="evenodd" d="M9.6515 10.9892C9.85859 10.9892 10.0265 11.1571 10.0265 11.3642V16.126C10.0265 16.3331 9.85859 16.501 9.6515 16.501C9.44441 16.501 9.2765 16.3331 9.2765 16.126V11.3642C9.2765 11.1571 9.44441 10.9892 9.6515 10.9892ZM11.6239 11.3642C11.6239 11.1571 11.7918 10.9892 11.9989 10.9892C12.206 10.9892 12.3739 11.1571 12.3739 11.3642V16.126C12.3739 16.3331 12.206 16.501 11.9989 16.501C11.7918 16.501 11.6239 16.3331 11.6239 16.126V11.3642ZM13.9712 11.3642C13.9712 11.1571 14.1391 10.9892 14.3462 10.9892C14.5533 10.9892 14.7212 11.1571 14.7212 11.3642V16.126C14.7212 16.3331 14.5533 16.501 14.3462 16.501C14.1391 16.501 13.9712 16.3331 13.9712 16.126V11.3642ZM6.83427 9.05597L7.41537 18.5865C7.43867 18.9686 7.75428 19.2656 8.13711 19.2656H15.8606C16.2434 19.2656 16.559 18.9686 16.5823 18.5865L17.1634 9.05597H6.83427ZM6.74267 6.14105H9.7895V5.54981C9.7895 5.10066 10.1558 4.73438 10.6049 4.73438H13.3928C13.8419 4.73438 14.2082 5.10066 14.2082 5.54981V6.14105H17.255C17.6533 6.14105 17.9781 6.46589 17.9781 6.86414V8.07164C17.9781 8.20073 17.8728 8.30602 17.7437 8.30602H6.25391C6.12481 8.30602 6.01953 8.20073 6.01953 8.07164V6.86414C6.01953 6.46584 6.34442 6.14105 6.74267 6.14105Z" fill="white"/>
</g>
<defs>
<clipPath id="clip0_10257_31291">
<rect width="24" height="24" fill="white"/>
</clipPath>
</defs>
</svg>
