<svg width="20" height="20" viewBox="0 0 20 20" fill="none" xmlns="http://www.w3.org/2000/svg">
<path d="M10.5 12.8516C10.375 12.8516 10.2578 12.8319 10.1484 12.7925C10.0391 12.7537 9.9375 12.6875 9.84375 12.5938L6.46875 9.21875C6.29687 9.04688 6.21094 8.82812 6.21094 8.5625C6.21094 8.29688 6.29687 8.07812 6.46875 7.90625C6.64062 7.73438 6.86312 7.64437 7.13625 7.63625C7.41 7.62875 7.63281 7.71094 7.80469 7.88281L9.5625 9.64062V2.9375C9.5625 2.67188 9.6525 2.44906 9.8325 2.26906C10.0119 2.08969 10.2344 2 10.5 2C10.7656 2 10.9884 2.08969 11.1684 2.26906C11.3478 2.44906 11.4375 2.67188 11.4375 2.9375V9.64062L13.1953 7.88281C13.3672 7.71094 13.59 7.62875 13.8638 7.63625C14.1369 7.64437 14.3594 7.73438 14.5312 7.90625C14.7031 8.07812 14.7891 8.29688 14.7891 8.5625C14.7891 8.82812 14.7031 9.04688 14.5312 9.21875L11.1562 12.5938C11.0625 12.6875 10.9609 12.7537 10.8516 12.7925C10.7422 12.8319 10.625 12.8516 10.5 12.8516ZM4.875 17C4.35938 17 3.91812 16.8166 3.55125 16.4497C3.18375 16.0822 3 15.6406 3 15.125V13.25C3 12.9844 3.08969 12.7616 3.26906 12.5816C3.44906 12.4022 3.67188 12.3125 3.9375 12.3125C4.20312 12.3125 4.42594 12.4022 4.60594 12.5816C4.78531 12.7616 4.875 12.9844 4.875 13.25V15.125H16.125V13.25C16.125 12.9844 16.215 12.7616 16.395 12.5816C16.5744 12.4022 16.7969 12.3125 17.0625 12.3125C17.3281 12.3125 17.5506 12.4022 17.73 12.5816C17.91 12.7616 18 12.9844 18 13.25V15.125C18 15.6406 17.8166 16.0822 17.4497 16.4497C17.0822 16.8166 16.6406 17 16.125 17H4.875Z" fill="#101010"/>
</svg>
