<svg width="8" height="12" viewBox="0 0 8 12" fill="none" xmlns="http://www.w3.org/2000/svg">
<path d="M2.83333 10.0833C2.83333 10.3141 2.76491 10.5396 2.63672 10.7315C2.50852 10.9234 2.32631 11.0729 2.11313 11.1612C1.89995 11.2495 1.66537 11.2726 1.43906 11.2276C1.21275 11.1826 1.00487 11.0715 0.841709 10.9083C0.678548 10.7451 0.567434 10.5373 0.522418 10.3109C0.477402 10.0846 0.500505 9.85005 0.588808 9.63687C0.67711 9.42369 0.826645 9.24148 1.0185 9.11329C1.21036 8.98509 1.43592 8.91667 1.66667 8.91667C1.97609 8.91667 2.27283 9.03958 2.49163 9.25838C2.71042 9.47717 2.83333 9.77391 2.83333 10.0833ZM1.66667 4.83333C1.43592 4.83333 1.21036 4.90176 1.0185 5.02995C0.826645 5.15815 0.67711 5.34036 0.588808 5.55354C0.500505 5.76672 0.477402 6.00129 0.522418 6.22761C0.567434 6.45392 0.678548 6.6618 0.841709 6.82496C1.00487 6.98812 1.21275 7.09923 1.43906 7.14425C1.66537 7.18927 1.89995 7.16616 2.11313 7.07786C2.32631 6.98956 2.50852 6.84002 2.63672 6.64817C2.76491 6.45631 2.83333 6.23075 2.83333 6C2.83333 5.69058 2.71042 5.39384 2.49163 5.17504C2.27283 4.95625 1.97609 4.83333 1.66667 4.83333ZM1.66667 0.75C1.43592 0.75 1.21036 0.818424 1.0185 0.946619C0.826645 1.07481 0.67711 1.25702 0.588808 1.4702C0.500505 1.68338 0.477402 1.91796 0.522418 2.14427C0.567434 2.37058 0.678548 2.57846 0.841709 2.74162C1.00487 2.90479 1.21275 3.0159 1.43906 3.06092C1.66537 3.10593 1.89995 3.08283 2.11313 2.99453C2.32631 2.90622 2.50852 2.75669 2.63672 2.56483C2.76491 2.37297 2.83333 2.14741 2.83333 1.91667C2.83333 1.60725 2.71042 1.3105 2.49163 1.09171C2.27283 0.872916 1.97609 0.75 1.66667 0.75ZM6.33333 8.91667C6.10259 8.91667 5.87703 8.98509 5.68517 9.11329C5.49331 9.24148 5.34378 9.42369 5.25547 9.63687C5.16717 9.85005 5.14407 10.0846 5.18908 10.3109C5.2341 10.5373 5.34522 10.7451 5.50838 10.9083C5.67154 11.0715 5.87942 11.1826 6.10573 11.2276C6.33204 11.2726 6.56662 11.2495 6.7798 11.1612C6.99298 11.0729 7.17519 10.9234 7.30338 10.7315C7.43158 10.5396 7.5 10.3141 7.5 10.0833C7.5 9.77391 7.37708 9.47717 7.15829 9.25838C6.9395 9.03958 6.64275 8.91667 6.33333 8.91667ZM6.33333 4.83333C6.10259 4.83333 5.87703 4.90176 5.68517 5.02995C5.49331 5.15815 5.34378 5.34036 5.25547 5.55354C5.16717 5.76672 5.14407 6.00129 5.18908 6.22761C5.2341 6.45392 5.34522 6.6618 5.50838 6.82496C5.67154 6.98812 5.87942 7.09923 6.10573 7.14425C6.33204 7.18927 6.56662 7.16616 6.7798 7.07786C6.99298 6.98956 7.17519 6.84002 7.30338 6.64817C7.43158 6.45631 7.5 6.23075 7.5 6C7.5 5.69058 7.37708 5.39384 7.15829 5.17504C6.9395 4.95625 6.64275 4.83333 6.33333 4.83333ZM6.33333 0.75C6.10259 0.75 5.87703 0.818424 5.68517 0.946619C5.49331 1.07481 5.34378 1.25702 5.25547 1.4702C5.16717 1.68338 5.14407 1.91796 5.18908 2.14427C5.2341 2.37058 5.34522 2.57846 5.50838 2.74162C5.67154 2.90479 5.87942 3.0159 6.10573 3.06092C6.33204 3.10593 6.56662 3.08283 6.7798 2.99453C6.99298 2.90622 7.17519 2.75669 7.30338 2.56483C7.43158 2.37297 7.5 2.14741 7.5 1.91667C7.5 1.60725 7.37708 1.3105 7.15829 1.09171C6.9395 0.872916 6.64275 0.75 6.33333 0.75Z" fill="#4E4E4E"/>
</svg>
