<svg width="18" height="18" viewBox="0 0 18 18" fill="none" xmlns="http://www.w3.org/2000/svg">
<path d="M9 18C13.9706 18 18 13.9706 18 9C18 4.02944 13.9706 0 9 0C4.02944 0 0 4.02944 0 9C0 13.9706 4.02944 18 9 18Z" fill="#26A1F4"/>
<path d="M12.1343 8.35059L12.1294 8.34566L9.64877 5.86328C9.64877 5.86328 6.62533 8.88672 5.16845 10.3738C4.98705 10.5588 4.84959 10.8161 4.76802 11.065C4.52896 11.7959 4.33103 12.5416 4.11095 13.2798C4.05189 13.4778 4.06385 13.6521 4.21888 13.7998C4.36513 13.9404 4.52967 13.9454 4.71951 13.8884C5.42263 13.6775 6.13033 13.4767 6.83662 13.2746C7.19981 13.1693 7.52905 12.9706 7.79146 12.6984C9.17943 11.302 12.1343 8.35059 12.1343 8.35059Z" fill="white"/>
<path d="M13.5827 5.26591L12.7344 4.41759C12.5168 4.20023 12.2219 4.07812 11.9144 4.07812C11.6068 4.07812 11.3119 4.20023 11.0943 4.41759L10.1328 5.37806L12.6215 7.86748L13.583 6.90595C13.8004 6.68836 13.9224 6.39339 13.9223 6.08586C13.9223 5.77833 13.8001 5.48341 13.5827 5.26591Z" fill="white"/>
</svg>
