<svg width="20" height="20" viewBox="0 0 20 20" fill="none" xmlns="http://www.w3.org/2000/svg">
<g clip-path="url(#clip0_3009_25585)">
<path fill-rule="evenodd" clip-rule="evenodd" d="M11.5579 2.001L15.6571 9.10102L19.7563 16.201C20.0813 16.7639 20.0813 17.437 19.7563 17.9999C19.4313 18.5628 18.8484 18.8994 18.1984 18.8994H1.80164C1.15166 18.8994 0.568765 18.5628 0.243776 17.9999C-0.0812587 17.437 -0.0812587 16.7639 0.243776 16.201L4.34295 9.10102L8.44217 2.001C8.76716 1.43809 9.35006 1.10156 10 1.10156C10.6501 1.10156 11.2329 1.43809 11.5579 2.001ZM10 14.3517C10.4539 14.3517 10.8218 14.7196 10.8218 15.1735C10.8218 15.6273 10.4539 15.9952 10 15.9952C9.54619 15.9952 9.17824 15.6273 9.17824 15.1735C9.17824 14.7196 9.54619 14.3517 10 14.3517ZM10.0004 5.27548C10.5524 5.27548 11.0533 5.73007 11.0231 6.29815L10.6579 13.1646H9.45262L8.97778 6.29815C8.93902 5.73703 9.43799 5.27548 10.0004 5.27548Z" fill="#9F9F9F"/>
</g>
<defs>
<clipPath id="clip0_3009_25585">
<rect width="20" height="20" fill="white"/>
</clipPath>
</defs>
</svg>
