<svg width="32" height="28" viewBox="0 0 32 28" fill="none" xmlns="http://www.w3.org/2000/svg">
<path d="M31.1 19.3996H29.3C29.2 18.9996 29.05 18.5996 28.8 18.2496L30.05 16.9996C30.2 16.8496 30.2 16.5996 30.05 16.4496L28.8 15.1996C28.65 15.0496 28.4 15.0496 28.25 15.1996L27.1 16.4996C26.75 16.2996 26.35 16.1496 25.95 16.0496V14.2496C25.95 14.0496 25.8 13.8496 25.55 13.8496H23.8C23.6 13.8496 23.4 13.9996 23.4 14.2496V15.9996C23 16.0996 22.6 16.2496 22.25 16.4496L21 15.1996C20.85 15.0496 20.6 15.0496 20.45 15.1996L19.2 16.4496C19.05 16.5996 19.05 16.8496 19.2 16.9996L20.45 18.2496C20.25 18.5996 20.1 18.9996 19.95 19.3996H18.15C17.95 19.3996 17.75 19.5496 17.75 19.7996V21.5496C17.75 21.7496 17.9 21.9496 18.15 21.9496H19.95C20.05 22.3496 20.2 22.7496 20.45 23.0996L19.2 24.3496C19.05 24.4996 19.05 24.7496 19.2 24.8996L20.45 26.1496C20.6 26.2996 20.85 26.2996 21 26.1496L22.25 24.8996C22.6 25.0996 23 25.2496 23.4 25.3496V27.1496C23.4 27.3496 23.55 27.5496 23.8 27.5496H25.55C25.75 27.5496 25.95 27.3996 25.95 27.1496V25.3496C26.35 25.2496 26.75 25.0996 27.1 24.8996L28.35 26.1496C28.5 26.2996 28.75 26.2996 28.9 26.1496L30.15 24.8996C30.3 24.7496 30.3 24.4996 30.15 24.3496L28.9 23.0996C29.1 22.7496 29.25 22.3496 29.4 21.9496H31.2C31.4 21.9496 31.6 21.7996 31.6 21.5496V19.7996C31.5 19.5496 31.35 19.3996 31.1 19.3996ZM24.7 23.7496C23 23.7496 21.6 22.3496 21.6 20.6496C21.6 18.9496 23 17.5496 24.7 17.5496C26.4 17.5496 27.8 18.9496 27.8 20.6496C27.8 22.3496 26.4 23.7496 24.7 23.7496Z" fill="#2D7ABE"/>
<path d="M24.7 22.3502C25.6389 22.3502 26.4 21.5891 26.4 20.6502C26.4 19.7113 25.6389 18.9502 24.7 18.9502C23.7611 18.9502 23 19.7113 23 20.6502C23 21.5891 23.7611 22.3502 24.7 22.3502Z" fill="#2E3F55"/>
<path d="M24.7 0.5H1.2C0.85 0.5 0.5 0.85 0.5 1.25V20.65C0.5 21.05 0.85 21.35 1.2 21.35H17.1V19.9H1.95V6.15H23.95V13.1H25.4V1.25C25.4 0.85 25.1 0.5 24.7 0.5ZM23.95 4.7H1.95V1.95H23.95V4.7Z" fill="#2E3F55"/>
<path d="M17.4001 4.1498C17.8419 4.1498 18.2001 3.79163 18.2001 3.3498C18.2001 2.90798 17.8419 2.5498 17.4001 2.5498C16.9583 2.5498 16.6001 2.90798 16.6001 3.3498C16.6001 3.79163 16.9583 4.1498 17.4001 4.1498Z" fill="#2E3F55"/>
<path d="M19.8 4.1498C20.2418 4.1498 20.6 3.79163 20.6 3.3498C20.6 2.90798 20.2418 2.5498 19.8 2.5498C19.3582 2.5498 19 2.90798 19 3.3498C19 3.79163 19.3582 4.1498 19.8 4.1498Z" fill="#2E3F55"/>
<path d="M22.1501 4.1498C22.5919 4.1498 22.9501 3.79163 22.9501 3.3498C22.9501 2.90798 22.5919 2.5498 22.1501 2.5498C21.7083 2.5498 21.3501 2.90798 21.3501 3.3498C21.3501 3.79163 21.7083 4.1498 22.1501 4.1498Z" fill="#2E3F55"/>
<path d="M14.05 2.59961H3.64995C3.24995 2.59961 2.94995 2.89961 2.94995 3.29961C2.94995 3.69961 3.24995 3.99961 3.64995 3.99961H14.05C14.45 3.99961 14.75 3.69961 14.75 3.29961C14.8 2.94961 14.45 2.59961 14.05 2.59961Z" fill="#2E3F55"/>
<path d="M3.6001 7.84961H9.1001V8.79961H3.6001V7.84961Z" fill="#2D7ABE"/>
<path d="M11.1501 7.84961H15.8501V8.79961H11.1501V7.84961Z" fill="#2D7ABE"/>
<path d="M17.9502 7.84961H22.3002V8.79961H17.9502V7.84961Z" fill="#2D7ABE"/>
<path d="M3.6001 12.5498H9.1001V13.4998H3.6001V12.5498Z" fill="#2D7ABE"/>
<path d="M11.1501 12.5498H15.8501V13.4998H11.1501V12.5498Z" fill="#2D7ABE"/>
<path d="M17.9502 12.5498H22.3002V13.4998H17.9502V12.5498Z" fill="#2D7ABE"/>
<path d="M3.6001 17.2998H9.1001V18.2498H3.6001V17.2998Z" fill="#2D7ABE"/>
<path d="M11.1501 17.2998H15.8501V18.2498H11.1501V17.2998Z" fill="#2D7ABE"/>
<path d="M19.5002 18.2498H17.9502V17.2998H18.6002C18.6502 17.3498 18.7002 17.4498 18.7502 17.4998L19.5002 18.2498Z" fill="#2D7ABE"/>
</svg>
