<svg width="446" height="428" viewBox="0 0 446 428" fill="none" xmlns="http://www.w3.org/2000/svg">
<g filter="url(#filter0_d_9143_10729)">
<path d="M35.4154 392.117C29.9355 392.117 25.4766 387.658 25.4766 382.178V33.6433C25.4766 23.849 33.4438 15.8804 43.2381 15.8804H402.753C412.548 15.8804 420.517 23.849 420.517 33.6433V382.178C420.517 387.658 416.058 392.117 410.578 392.117H35.4154Z" fill="#FCFEFF"/>
</g>
<path d="M402.759 17.7622C411.53 17.7622 418.641 24.8733 418.641 33.644V382.179C418.641 386.63 415.033 390.237 410.583 390.237H35.4214C30.9706 390.237 27.3637 386.628 27.3637 382.179V33.644C27.3637 24.8733 34.4748 17.7622 43.2456 17.7622H402.759ZM402.759 14H43.2456C32.4141 14 23.6016 22.8126 23.6016 33.644V382.179C23.6016 388.697 28.9045 394 35.4214 394H410.583C417.101 394 422.403 388.697 422.403 382.179V33.644C422.403 22.8112 413.59 14 402.759 14Z" fill="#E2E2E2"/>
<path d="M418.644 66.1127H27.3672V33.4767C27.3672 24.7978 34.4027 17.7637 43.0802 17.7637H402.93C411.609 17.7637 418.643 24.7992 418.643 33.4767V66.1127H418.644Z" fill="#4F90CC"/>
<path d="M93 101H45V137H93V101Z" fill="#C8D4DF"/>
<path d="M191.674 101.241H114.562V137.241H191.674V101.241Z" fill="#C8D4DF"/>
<path d="M297.674 101.241H220.562V137.241H297.674V101.241Z" fill="#C8D4DF"/>
<path d="M403.674 101.241H326.562V137.241H403.674V101.241Z" fill="#C8D4DF"/>
<path d="M93 172H45V208H93V172Z" fill="#C8D4DF"/>
<path d="M191.674 172H114.562V208H191.674V172Z" fill="#C8D4DF"/>
<path d="M297.674 172H220.562V208H297.674V172Z" fill="#C8D4DF"/>
<path d="M403.674 172H326.562V208H403.674V172Z" fill="#C8D4DF"/>
<path d="M93 243H45V279H93V243Z" fill="#C8D4DF"/>
<path d="M191.674 243H114.562V279H191.674V243Z" fill="#C8D4DF"/>
<path d="M297.674 243H220.562V279H297.674V243Z" fill="#C8D4DF"/>
<path d="M403.674 243H326.562V279H403.674V243Z" fill="#C8D4DF"/>
<path d="M93 314H45V350H93V314Z" fill="#C8D4DF"/>
<path d="M191.674 314H114.562V350H191.674V314Z" fill="#C8D4DF"/>
<path d="M297.674 314H220.562V350H297.674V314Z" fill="#C8D4DF"/>
<path d="M403.674 314H326.562V350H403.674V314Z" fill="#C8D4DF"/>
<path d="M362.283 42.6555C362.283 46.5878 360.684 50.1434 358.107 52.7388C355.529 55.3167 351.954 56.9156 348.023 56.9156H97.9866C90.1044 56.9156 83.7266 50.5188 83.7266 42.6555C83.7266 38.7057 85.3254 35.1488 87.9033 32.5722C90.4812 29.9944 94.0367 28.3955 97.9866 28.3955H348.025C355.907 28.3955 362.283 34.772 362.283 42.6555Z" fill="#F9FBFC"/>
<path d="M105.296 48.24C104.469 48.24 103.723 48.0987 103.056 47.816C102.395 47.528 101.848 47.12 101.416 46.592C100.989 46.0587 100.712 45.4267 100.584 44.696L102.328 44.432C102.504 45.136 102.872 45.6853 103.432 46.08C103.992 46.4693 104.645 46.664 105.392 46.664C105.856 46.664 106.283 46.592 106.672 46.448C107.061 46.2987 107.373 46.088 107.608 45.816C107.848 45.5387 107.968 45.208 107.968 44.824C107.968 44.616 107.931 44.432 107.856 44.272C107.787 44.112 107.688 43.9733 107.56 43.856C107.437 43.7333 107.285 43.6293 107.104 43.544C106.928 43.4533 106.733 43.376 106.52 43.312L103.568 42.44C103.28 42.3547 102.987 42.2453 102.688 42.112C102.389 41.9733 102.115 41.7947 101.864 41.576C101.619 41.352 101.419 41.0773 101.264 40.752C101.109 40.4213 101.032 40.0213 101.032 39.552C101.032 38.8427 101.213 38.2427 101.576 37.752C101.944 37.256 102.44 36.8827 103.064 36.632C103.688 36.376 104.387 36.248 105.16 36.248C105.939 36.2587 106.635 36.3973 107.248 36.664C107.867 36.9307 108.379 37.3147 108.784 37.816C109.195 38.312 109.477 38.9147 109.632 39.624L107.84 39.928C107.76 39.496 107.589 39.1253 107.328 38.816C107.067 38.5013 106.747 38.2613 106.368 38.096C105.989 37.9253 105.579 37.8373 105.136 37.832C104.709 37.8213 104.317 37.8853 103.96 38.024C103.608 38.1627 103.325 38.3573 103.112 38.608C102.904 38.8587 102.8 39.1467 102.8 39.472C102.8 39.792 102.893 40.0507 103.08 40.248C103.267 40.4453 103.496 40.6027 103.768 40.72C104.045 40.832 104.32 40.9253 104.592 41L106.72 41.6C106.987 41.6747 107.288 41.776 107.624 41.904C107.965 42.0267 108.293 42.2 108.608 42.424C108.928 42.648 109.192 42.9467 109.4 43.32C109.608 43.688 109.712 44.152 109.712 44.712C109.712 45.2933 109.595 45.8053 109.36 46.248C109.125 46.6853 108.803 47.0533 108.392 47.352C107.987 47.6453 107.517 47.8667 106.984 48.016C106.451 48.1653 105.888 48.24 105.296 48.24ZM115.329 48.24C114.47 48.24 113.716 48.0533 113.065 47.68C112.42 47.3013 111.916 46.776 111.553 46.104C111.196 45.4267 111.017 44.6427 111.017 43.752C111.017 42.808 111.193 41.9893 111.545 41.296C111.902 40.6027 112.398 40.0667 113.033 39.688C113.668 39.3093 114.406 39.12 115.249 39.12C116.129 39.12 116.878 39.3253 117.497 39.736C118.116 40.1413 118.577 40.72 118.881 41.472C119.19 42.224 119.313 43.1173 119.249 44.152H117.577V43.544C117.566 42.5413 117.374 41.8 117.001 41.32C116.633 40.84 116.07 40.6 115.313 40.6C114.476 40.6 113.846 40.864 113.425 41.392C113.004 41.92 112.793 42.6827 112.793 43.68C112.793 44.6293 113.004 45.3653 113.425 45.888C113.846 46.4053 114.454 46.664 115.249 46.664C115.772 46.664 116.222 46.5467 116.601 46.312C116.985 46.072 117.284 45.7307 117.497 45.288L119.137 45.808C118.801 46.5813 118.292 47.1813 117.609 47.608C116.926 48.0293 116.166 48.24 115.329 48.24ZM112.249 44.152V42.848H118.417V44.152H112.249ZM123.408 48.24C122.768 48.24 122.231 48.1227 121.799 47.888C121.367 47.648 121.039 47.3333 120.815 46.944C120.597 46.5493 120.487 46.1173 120.487 45.648C120.487 45.2107 120.565 44.8267 120.719 44.496C120.874 44.1653 121.103 43.8853 121.407 43.656C121.711 43.4213 122.085 43.232 122.527 43.088C122.911 42.976 123.346 42.8773 123.832 42.792C124.317 42.7067 124.826 42.6267 125.359 42.552C125.898 42.4773 126.432 42.4027 126.96 42.328L126.352 42.664C126.362 41.9867 126.218 41.4853 125.92 41.16C125.626 40.8293 125.12 40.664 124.399 40.664C123.946 40.664 123.53 40.7707 123.151 40.984C122.773 41.192 122.509 41.5387 122.359 42.024L120.799 41.544C121.013 40.8027 121.418 40.2133 122.016 39.776C122.618 39.3387 123.418 39.12 124.416 39.12C125.189 39.12 125.861 39.2533 126.431 39.52C127.008 39.7813 127.429 40.1973 127.696 40.768C127.834 41.0507 127.92 41.3493 127.951 41.664C127.984 41.9787 128 42.3173 128 42.68V48H126.52V46.024L126.808 46.28C126.45 46.9413 125.994 47.4347 125.44 47.76C124.89 48.08 124.213 48.24 123.408 48.24ZM123.704 46.872C124.178 46.872 124.586 46.7893 124.928 46.624C125.269 46.4533 125.544 46.2373 125.752 45.976C125.959 45.7147 126.095 45.4427 126.16 45.16C126.25 44.904 126.301 44.616 126.312 44.296C126.328 43.976 126.336 43.72 126.336 43.528L126.88 43.728C126.352 43.808 125.872 43.88 125.44 43.944C125.008 44.008 124.616 44.072 124.264 44.136C123.917 44.1947 123.607 44.2667 123.336 44.352C123.106 44.432 122.901 44.528 122.72 44.64C122.543 44.752 122.402 44.888 122.296 45.048C122.194 45.208 122.143 45.4027 122.143 45.632C122.143 45.856 122.199 46.064 122.312 46.256C122.424 46.4427 122.594 46.592 122.823 46.704C123.053 46.816 123.346 46.872 123.704 46.872ZM130.157 48V39.36H131.645V41.456L131.437 41.184C131.544 40.9067 131.682 40.6533 131.853 40.424C132.024 40.1893 132.221 39.9973 132.445 39.848C132.664 39.688 132.906 39.5653 133.173 39.48C133.445 39.3893 133.722 39.336 134.005 39.32C134.288 39.2987 134.56 39.312 134.821 39.36V40.928C134.538 40.8533 134.224 40.832 133.877 40.864C133.536 40.896 133.221 41.0053 132.933 41.192C132.661 41.368 132.445 41.5813 132.285 41.832C132.13 42.0827 132.018 42.3627 131.949 42.672C131.88 42.976 131.845 43.2987 131.845 43.64V48H130.157ZM139.964 48.24C139.079 48.24 138.327 48.0427 137.708 47.648C137.089 47.2533 136.615 46.712 136.284 46.024C135.959 45.336 135.793 44.5547 135.788 43.68C135.793 42.7893 135.964 42.0027 136.3 41.32C136.636 40.632 137.116 40.0933 137.74 39.704C138.364 39.3147 139.113 39.12 139.988 39.12C140.932 39.12 141.737 39.3547 142.404 39.824C143.076 40.2933 143.519 40.936 143.732 41.752L142.068 42.232C141.903 41.7467 141.631 41.3707 141.252 41.104C140.879 40.832 140.449 40.696 139.964 40.696C139.415 40.696 138.964 40.8267 138.612 41.088C138.26 41.344 137.999 41.696 137.828 42.144C137.657 42.592 137.569 43.104 137.564 43.68C137.569 44.5707 137.772 45.2907 138.172 45.84C138.577 46.3893 139.175 46.664 139.964 46.664C140.503 46.664 140.937 46.5413 141.268 46.296C141.604 46.0453 141.86 45.688 142.036 45.224L143.732 45.624C143.449 46.4667 142.983 47.1147 142.332 47.568C141.681 48.016 140.892 48.24 139.964 48.24ZM151.506 48V43.752C151.506 43.416 151.477 43.072 151.418 42.72C151.365 42.3627 151.258 42.032 151.098 41.728C150.943 41.424 150.722 41.1787 150.434 40.992C150.151 40.8053 149.781 40.712 149.322 40.712C149.023 40.712 148.741 40.7627 148.474 40.864C148.207 40.96 147.973 41.1173 147.77 41.336C147.573 41.5547 147.415 41.8427 147.298 42.2C147.186 42.5573 147.13 42.992 147.13 43.504L146.09 43.112C146.09 42.328 146.237 41.6373 146.53 41.04C146.823 40.4373 147.245 39.968 147.794 39.632C148.343 39.296 149.007 39.128 149.786 39.128C150.383 39.128 150.885 39.224 151.29 39.416C151.695 39.608 152.023 39.8613 152.274 40.176C152.53 40.4853 152.725 40.824 152.858 41.192C152.991 41.56 153.082 41.92 153.13 42.272C153.178 42.624 153.202 42.9333 153.202 43.2V48H151.506ZM145.434 48V36.48H146.93V42.696H147.13V48H145.434Z" fill="black"/>
<path d="M362.274 42.6555C362.274 46.5878 360.675 50.1434 358.098 52.7388C355.52 55.3167 351.945 56.9156 348.014 56.9156H318.234V28.3955H348.014C355.898 28.3955 362.274 34.772 362.274 42.6555Z" fill="#EC847D"/>
<path d="M333.001 36.8539C331.058 39.286 331.087 42.8388 333.067 45.2411C335.317 47.9703 339.169 48.4105 341.938 46.5632L346.209 50.8344C346.388 51.014 346.681 51.014 346.861 50.8344L348.062 49.6339C348.242 49.453 348.242 49.1613 348.062 48.9817L343.79 44.7104C345.52 42.1164 345.243 38.5703 342.956 36.2827C340.174 33.5023 335.529 33.6913 333.001 36.8539ZM341.104 43.8773C339.522 45.4599 336.947 45.4599 335.364 43.8773C333.781 42.2946 333.781 39.7194 335.364 38.1368C336.947 36.5541 339.522 36.5541 341.104 38.1368C342.687 39.7194 342.687 42.2946 341.104 43.8773Z" fill="#F9FBFC"/>
<defs>
<filter id="filter0_d_9143_10729" x="0.476562" y="0.880371" width="445.039" height="426.237" filterUnits="userSpaceOnUse" color-interpolation-filters="sRGB">
<feFlood flood-opacity="0" result="BackgroundImageFix"/>
<feColorMatrix in="SourceAlpha" type="matrix" values="0 0 0 0 0 0 0 0 0 0 0 0 0 0 0 0 0 0 127 0" result="hardAlpha"/>
<feOffset dy="10"/>
<feGaussianBlur stdDeviation="12.5"/>
<feComposite in2="hardAlpha" operator="out"/>
<feColorMatrix type="matrix" values="0 0 0 0 0.954123 0 0 0 0 0.954123 0 0 0 0 0.954123 0 0 0 1 0"/>
<feBlend mode="normal" in2="BackgroundImageFix" result="effect1_dropShadow_9143_10729"/>
<feBlend mode="normal" in="SourceGraphic" in2="effect1_dropShadow_9143_10729" result="shape"/>
</filter>
</defs>
</svg>
