<svg width="24" height="24" viewBox="0 0 24 24" fill="none" xmlns="http://www.w3.org/2000/svg">
<g clip-path="url(#clip0_3006_33021)">
<path d="M22.5 21H1.50001C0.671548 21 0 20.3284 0 19.5C0 18.6716 0.671548 18 1.50001 18H22.5C23.3284 18 24 18.6716 24 19.5C24 20.3284 23.3284 21 22.5 21Z" fill="#35353A"/>
<path d="M22.5 13.5H1.50001C0.671548 13.5 0 12.8284 0 12C0 11.1716 0.671548 10.5 1.50001 10.5H22.5C23.3284 10.5 24 11.1715 24 12C24 12.8285 23.3284 13.5 22.5 13.5Z" fill="#35353A"/>
<path d="M22.5 6.00002H1.50001C0.671548 6.00002 0 5.32847 0 4.50001C0 3.67155 0.671548 3 1.50001 3H22.5C23.3284 3 24 3.67155 24 4.50001C24 5.32847 23.3284 6.00002 22.5 6.00002Z" fill="#35353A"/>
</g>
<defs>
<clipPath id="clip0_3006_33021">
<rect width="24" height="24" fill="white"/>
</clipPath>
</defs>
</svg>
