<svg width="18" height="18" viewBox="0 0 18 18" fill="none" xmlns="http://www.w3.org/2000/svg">
<path d="M8.16669 14.0003H9.83335V12.3337H8.16669V14.0003ZM9.00002 0.666992C4.40002 0.666992 0.666687 4.40033 0.666687 9.00033C0.666687 13.6003 4.40002 17.3337 9.00002 17.3337C13.6 17.3337 17.3334 13.6003 17.3334 9.00033C17.3334 4.40033 13.6 0.666992 9.00002 0.666992ZM9.00002 15.667C5.32502 15.667 2.33335 12.6753 2.33335 9.00033C2.33335 5.32533 5.32502 2.33366 9.00002 2.33366C12.675 2.33366 15.6667 5.32533 15.6667 9.00033C15.6667 12.6753 12.675 15.667 9.00002 15.667ZM9.00002 4.00033C7.15835 4.00033 5.66669 5.49199 5.66669 7.33366H7.33335C7.33335 6.41699 8.08335 5.66699 9.00002 5.66699C9.91669 5.66699 10.6667 6.41699 10.6667 7.33366C10.6667 9.00033 8.16669 8.79199 8.16669 11.5003H9.83335C9.83335 9.62533 12.3334 9.41699 12.3334 7.33366C12.3334 5.49199 10.8417 4.00033 9.00002 4.00033Z" fill="#4F90CC"/>
</svg>
