<svg width="20" height="20" viewBox="0 0 20 20" fill="none" xmlns="http://www.w3.org/2000/svg">
<g clip-path="url(#clip0_923_10915)">
<path d="M4.08789 19.0374H15.9129C17.6316 19.0374 19.0379 17.6312 19.0379 15.9124V4.0874C19.0379 2.36865 17.6316 0.962402 15.9129 0.962402H4.08789C2.36914 0.962402 0.962891 2.36865 0.962891 4.0874V15.9124C0.962891 17.6312 2.36914 19.0374 4.08789 19.0374ZM8.35664 6.6999L9.83164 5.2249C10.4691 4.59365 11.3066 4.24365 12.2066 4.24365C13.1004 4.24365 13.9441 4.59365 14.5754 5.2249C15.8879 6.5374 15.8879 8.6624 14.5754 9.9749C14.3316 10.2187 13.9379 10.2187 13.6941 9.9749C13.4504 9.7249 13.4504 9.33115 13.6941 9.0874C14.0941 8.6874 14.3129 8.1624 14.3129 7.5999C14.3129 7.0374 14.0941 6.50615 13.6941 6.1124C12.8754 5.2874 11.5379 5.2874 10.7191 6.1124L9.24414 7.58115C8.41914 8.40615 8.41914 9.74365 9.24414 10.5624C9.48789 10.8062 9.48789 11.1999 9.24414 11.4437C9.11914 11.5687 8.95664 11.6312 8.80039 11.6312C8.63789 11.6312 8.48164 11.5687 8.35664 11.4437C7.05039 10.1374 7.05039 8.00615 8.35664 6.6999ZM5.42539 9.6374C5.66914 9.39365 6.06289 9.39365 6.30664 9.6374C6.55039 9.88115 6.55039 10.2749 6.30664 10.5187C5.48789 11.3437 5.48789 12.6749 6.30664 13.4999C7.12539 14.3187 8.46289 14.3187 9.28164 13.4999L10.7566 12.0249C11.5816 11.1999 11.5816 9.86865 10.7566 9.04365C10.5129 8.7999 10.5129 8.40615 10.7566 8.1624C11.0004 7.91865 11.4004 7.91865 11.6441 8.1624C12.9504 9.46865 12.9504 11.5999 11.6441 12.9062L10.1691 14.3812C9.53164 15.0124 8.69414 15.3624 7.79414 15.3624C6.90039 15.3624 6.05664 15.0124 5.42539 14.3812C4.78789 13.7499 4.43789 12.9062 4.43789 12.0062C4.43789 11.1124 4.78789 10.2687 5.42539 9.6374Z" fill="#AFAFAF"/>
</g>
<defs>
<clipPath id="clip0_923_10915">
<rect width="20" height="20" fill="white"/>
</clipPath>
</defs>
</svg>
