<svg width="24" height="24" viewBox="0 0 24 24" fill="none" xmlns="http://www.w3.org/2000/svg">
<g clip-path="url(#clip0_531_2511)">
<path d="M21.2499 0H2.75006C1.23303 0 0 1.23303 0 2.75006V21.2499C0 22.767 1.23303 24 2.75006 24H21.2499C22.767 24 24 22.767 24 21.2499V2.75006C24 1.23303 22.767 0 21.2499 0Z" fill="#157AFF"/>
<path d="M17.2499 12.9999H6.74994C6.19696 12.9999 5.75 12.552 5.75 11.9999C5.75 11.4479 6.19696 11 6.74994 11H17.2499C17.8029 11 18.2499 11.4479 18.2499 11.9999C18.2499 12.552 17.8029 12.9999 17.2499 12.9999Z" fill="#FAFAFA"/>
</g>
<defs>
<clipPath id="clip0_531_2511">
<rect width="24" height="24" fill="white"/>
</clipPath>
</defs>
</svg>
