<svg width="24" height="24" viewBox="0 0 24 24" fill="none" xmlns="http://www.w3.org/2000/svg">
<g clip-path="url(#clip0_813_3562)">
<path fill-rule="evenodd" clip-rule="evenodd" d="M12 0C5.38125 0 0 5.38125 0 12C0 18.6187 5.38125 24 12 24C18.6187 24 24 18.6187 24 12C24 5.38125 18.6187 0 12 0Z" fill="#4BAE4F"/>
<path d="M5.4375 13.1061V10.8889C5.4375 10.6639 5.62031 10.4764 5.85 10.4764H10.4859V5.84512C10.4859 5.62012 10.6687 5.43262 10.8984 5.43262H13.1156C13.3406 5.43262 13.5234 5.61543 13.5234 5.84512V10.4811H18.1547C18.3797 10.4811 18.5672 10.6639 18.5672 10.8936V13.1107C18.5672 13.3357 18.3844 13.5186 18.1547 13.5186H13.5187V18.1498C13.5187 18.3748 13.3359 18.5623 13.1109 18.5623H10.8937C10.6687 18.5623 10.4813 18.3795 10.4813 18.1498V13.5139H5.85C5.62031 13.5186 5.4375 13.3311 5.4375 13.1061Z" fill="white"/>
</g>
<defs>
<clipPath id="clip0_813_3562">
<rect width="24" height="24" fill="white"/>
</clipPath>
</defs>
</svg>
