<svg width="24" height="24" viewBox="0 0 24 24" fill="none" xmlns="http://www.w3.org/2000/svg">
<path d="M15.4652 19.03C15.673 19.0346 15.8771 18.9744 16.0491 18.8576C16.221 18.7408 16.3523 18.5733 16.4247 18.3785C16.4971 18.1836 16.507 17.9711 16.453 17.7704C16.399 17.5697 16.2838 17.3908 16.1234 17.2586L10.0043 12.0164L16.1234 6.7761C16.2344 6.69456 16.3273 6.59104 16.3963 6.47194C16.4654 6.35283 16.5091 6.22071 16.5248 6.08393C16.5404 5.94714 16.5277 5.80863 16.4873 5.677C16.4469 5.54538 16.3798 5.42346 16.2901 5.31898C16.2005 5.21449 16.0902 5.12974 15.9662 5.06984C15.8423 5.00994 15.7073 4.9763 15.5697 4.97099C15.4321 4.96568 15.2949 4.98876 15.1667 5.03893C15.0385 5.0891 14.922 5.1652 14.8246 5.26246L7.81874 11.2567C7.70873 11.3506 7.62038 11.4671 7.5598 11.5984C7.49922 11.7298 7.46785 11.8727 7.46785 12.0174C7.46785 12.162 7.49922 12.3049 7.5598 12.4363C7.62038 12.5676 7.70873 12.6843 7.81874 12.7781L14.8246 18.7781C15.0016 18.9353 15.2286 19.0245 15.4652 19.03Z" fill="black"/>
</svg>