<svg width="21" height="20" viewBox="0 0 21 20" fill="none" xmlns="http://www.w3.org/2000/svg">
<path d="M11.3889 9.64444L13.6111 11.8667C13.7741 12.0296 13.8556 12.237 13.8556 12.4889C13.8556 12.7407 13.7741 12.9481 13.6111 13.1111C13.4481 13.2741 13.2407 13.3556 12.9889 13.3556C12.737 13.3556 12.5296 13.2741 12.3667 13.1111L9.87778 10.6222C9.78889 10.5333 9.72222 10.4332 9.67778 10.3218C9.63333 10.211 9.61111 10.0963 9.61111 9.97778V6.44444C9.61111 6.19259 9.69644 5.98133 9.86711 5.81067C10.0372 5.64059 10.2481 5.55556 10.5 5.55556C10.7519 5.55556 10.9631 5.64059 11.1338 5.81067C11.3039 5.98133 11.3889 6.19259 11.3889 6.44444V9.64444ZM10.5 18C8.70741 18 7.1 17.4702 5.67778 16.4107C4.25556 15.3517 3.3 13.9704 2.81111 12.2667C2.73704 12 2.76311 11.7481 2.88933 11.5111C3.01496 11.2741 3.21111 11.1259 3.47778 11.0667C3.72963 11.0074 3.9557 11.0628 4.156 11.2329C4.3557 11.4036 4.49259 11.6148 4.56667 11.8667C4.95185 13.1704 5.69644 14.2222 6.80044 15.0222C7.90385 15.8222 9.13704 16.2222 10.5 16.2222C12.2333 16.2222 13.7036 15.6184 14.9107 14.4107C16.1184 13.2036 16.7222 11.7333 16.7222 10C16.7222 8.26667 16.1184 6.79615 14.9107 5.58844C13.7036 4.38133 12.2333 3.77778 10.5 3.77778C9.47778 3.77778 8.52222 4.01482 7.63333 4.48889C6.74444 4.96296 5.9963 5.61481 5.38889 6.44444H6.94444C7.1963 6.44444 7.40756 6.52948 7.57822 6.69956C7.7483 6.87022 7.83333 7.08148 7.83333 7.33333C7.83333 7.58519 7.7483 7.79615 7.57822 7.96622C7.40756 8.13689 7.1963 8.22222 6.94444 8.22222H3.38889C3.13704 8.22222 2.92607 8.13689 2.756 7.96622C2.58533 7.79615 2.5 7.58519 2.5 7.33333V3.77778C2.5 3.52593 2.58533 3.31467 2.756 3.144C2.92607 2.97393 3.13704 2.88889 3.38889 2.88889C3.64074 2.88889 3.852 2.97393 4.02267 3.144C4.19274 3.31467 4.27778 3.52593 4.27778 3.77778V4.97778C5.03333 4.02963 5.9557 3.2963 7.04489 2.77778C8.13348 2.25926 9.28519 2 10.5 2C11.6111 2 12.652 2.21096 13.6227 2.63289C14.5927 3.05541 15.4372 3.62578 16.156 4.344C16.8742 5.06281 17.4446 5.90726 17.8671 6.87733C18.289 7.848 18.5 8.88889 18.5 10C18.5 11.1111 18.289 12.1517 17.8671 13.1218C17.4446 14.0924 16.8742 14.9369 16.156 15.6551C15.4372 16.3739 14.5927 16.9446 13.6227 17.3671C12.652 17.789 11.6111 18 10.5 18Z" fill="black"/>
</svg>
