<svg width="24" height="24" viewBox="0 0 24 24" fill="none" xmlns="http://www.w3.org/2000/svg">
<g opacity="0.5">
<rect width="24" height="24" rx="5" fill="#4F90CC"/>
<g clip-path="url(#clip0_10257_31183)">
<path d="M19.355 7.64501L16.355 4.64501C16.3083 4.59867 16.2529 4.56201 16.192 4.53712C16.131 4.51224 16.0658 4.49963 16 4.50001H6C5.60218 4.50001 5.22064 4.65804 4.93934 4.93935C4.65804 5.22065 4.5 5.60218 4.5 6.00001V18C4.5 18.3978 4.65804 18.7794 4.93934 19.0607C5.22064 19.342 5.60218 19.5 6 19.5H18C18.3978 19.5 18.7794 19.342 19.0607 19.0607C19.342 18.7794 19.5 18.3978 19.5 18V8.00001C19.5004 7.93421 19.4878 7.86897 19.4629 7.80806C19.438 7.74714 19.4013 7.69173 19.355 7.64501ZM14 5.50001V8.50001H10V5.50001H14ZM8 18.5V15C8 14.8674 8.05268 14.7402 8.14645 14.6465C8.24022 14.5527 8.36739 14.5 8.5 14.5H15.5C15.6326 14.5 15.7598 14.5527 15.8536 14.6465C15.9473 14.7402 16 14.8674 16 15V18.5H8ZM18.5 18C18.5 18.1326 18.4473 18.2598 18.3536 18.3536C18.2598 18.4473 18.1326 18.5 18 18.5H17V15C17 14.6022 16.842 14.2207 16.5607 13.9393C16.2794 13.658 15.8978 13.5 15.5 13.5H8.5C8.10218 13.5 7.72064 13.658 7.43934 13.9393C7.15804 14.2207 7 14.6022 7 15V18.5H6C5.86739 18.5 5.74021 18.4473 5.64645 18.3536C5.55268 18.2598 5.5 18.1326 5.5 18V6.00001C5.5 5.8674 5.55268 5.74022 5.64645 5.64646C5.74021 5.55269 5.86739 5.50001 6 5.50001H9V8.50001C9 8.76523 9.10536 9.01958 9.29289 9.20712C9.48043 9.39465 9.73478 9.50001 10 9.50001H14C14.2652 9.50001 14.5196 9.39465 14.7071 9.20712C14.8946 9.01958 15 8.76523 15 8.50001V5.50001H15.795L18.5 8.20501V18Z" fill="white"/>
</g>
</g>
<defs>
<clipPath id="clip0_10257_31183">
<rect width="16" height="16" fill="white" transform="translate(4 4)"/>
</clipPath>
</defs>
</svg>
