<svg width="18" height="18" viewBox="0 0 18 18" fill="none" xmlns="http://www.w3.org/2000/svg">
<path d="M12.0005 8.99957H9.00054V11.9996H7.00054V8.99957H4.00054V6.99957H7.00054V3.99957H9.00054V6.99957H12.0005V8.99957ZM16.2905 17.7096L13.0005 14.3696C11.3958 15.6254 9.37227 16.2215 7.34298 16.0362C5.31369 15.8509 3.43158 14.8983 2.08075 13.3726C0.729909 11.847 0.0121692 9.86339 0.0739997 7.8266C0.13583 5.78981 0.97257 3.85338 2.41346 2.41249C3.85435 0.971593 5.79078 0.134854 7.82757 0.0730231C9.86436 0.0111927 11.848 0.728932 13.3736 2.07977C14.8993 3.43061 15.8519 5.31272 16.0372 7.34201C16.2224 9.37129 15.6264 11.3948 14.3705 12.9996L17.7105 16.3396L16.2905 17.7096ZM12.2905 12.2896C13.4141 11.1646 14.0453 9.63957 14.0453 8.04957C14.0453 6.45956 13.4141 4.93457 12.2905 3.80957C11.7412 3.22007 11.0788 2.74725 10.3428 2.41932C9.60685 2.09138 8.81235 1.91505 8.00672 1.90083C7.2011 1.88662 6.40087 2.03482 5.65376 2.33659C4.90666 2.63835 4.22799 3.08751 3.65824 3.65726C3.08849 4.22701 2.63933 4.90568 2.33756 5.65279C2.03579 6.39989 1.8876 7.20012 1.90181 8.00575C1.91602 8.81137 2.09236 9.60588 2.4203 10.3419C2.74823 11.0779 3.22105 11.7403 3.81054 12.2896C4.93555 13.4132 6.46054 14.0443 8.05054 14.0443C9.64055 14.0443 11.1655 13.4132 12.2905 12.2896Z" fill="white"/>
</svg>
