<svg width="18" height="18" viewBox="0 0 18 18" fill="none" xmlns="http://www.w3.org/2000/svg">
<path d="M15.9775 0.506992L1.48374 5.58762C1.2936 5.65378 1.1234 5.76721 0.989143 5.91723C0.854883 6.06725 0.760968 6.24894 0.716224 6.44523C0.671479 6.64152 0.677374 6.84596 0.733353 7.03934C0.789333 7.23273 0.893561 7.40871 1.03624 7.55074L7.65374 10.3464L10.4494 16.9639C10.5914 17.1065 10.7674 17.2108 10.9608 17.2668C11.1542 17.3227 11.3586 17.3286 11.5549 17.2839C11.7512 17.2391 11.9329 17.1452 12.0829 17.011C12.2329 16.8767 12.3463 16.7065 12.4125 16.5164L17.4931 2.02262C17.5679 1.81122 17.5813 1.58297 17.5318 1.36426C17.4823 1.14555 17.3719 0.945337 17.2133 0.786775C17.0548 0.628213 16.8546 0.517788 16.6358 0.468275C16.4171 0.418761 16.1889 0.432185 15.9775 0.506992Z" fill="white"/>
</svg>
