<svg width="18" height="18" viewBox="0 0 18 18" fill="none" xmlns="http://www.w3.org/2000/svg">
<g clip-path="url(#clip0_10305_29386)">
<path d="M0 9.00011C0 4.02916 4.02948 0 8.99989 0C13.9705 0 18 4.02916 18 9.00011C18 13.9704 13.9705 17.9998 8.99989 17.9998C4.02948 17.9998 0 13.9704 0 9.00011Z" fill="#25B7D3"/>
<path d="M5.31533 10.9822C6.39342 10.9822 7.26738 10.1083 7.26738 9.03018C7.26738 7.95209 6.39342 7.07812 5.31533 7.07812C4.23724 7.07812 3.36328 7.95209 3.36328 9.03018C3.36328 10.1083 4.23724 10.9822 5.31533 10.9822Z" fill="white"/>
<path d="M11.2743 7.51348C12.3524 7.51348 13.2264 6.63951 13.2264 5.56143C13.2264 4.48334 12.3524 3.60938 11.2743 3.60938C10.1962 3.60938 9.32227 4.48334 9.32227 5.56143C9.32227 6.63951 10.1962 7.51348 11.2743 7.51348Z" fill="white"/>
<path d="M11.2743 14.3885C12.3524 14.3885 13.2264 13.5145 13.2264 12.4364C13.2264 11.3583 12.3524 10.4844 11.2743 10.4844C10.1962 10.4844 9.32227 11.3583 9.32227 12.4364C9.32227 13.5145 10.1962 14.3885 11.2743 14.3885Z" fill="white"/>
<path d="M5.05189 8.51086L5.58008 9.41797L11.5391 5.94819L11.0109 5.04108L5.05189 8.51086Z" fill="white"/>
<path d="M5.05073 9.42084L11.0098 12.8906L11.538 11.9835L5.57892 8.51373L5.05073 9.42084Z" fill="white"/>
</g>
<defs>
<clipPath id="clip0_10305_29386">
<rect width="18" height="18" fill="white"/>
</clipPath>
</defs>
</svg>
