<svg width="20" height="20" viewBox="0 0 20 20" fill="none" xmlns="http://www.w3.org/2000/svg">
<path d="M7 15.5H13V13.25C13 12.425 12.7063 11.7188 12.1187 11.1313C11.5312 10.5437 10.825 10.25 10 10.25C9.175 10.25 8.46875 10.5437 7.88125 11.1313C7.29375 11.7188 7 12.425 7 13.25V15.5ZM10 8.75C10.825 8.75 11.5312 8.45625 12.1187 7.86875C12.7063 7.28125 13 6.575 13 5.75V3.5H7V5.75C7 6.575 7.29375 7.28125 7.88125 7.86875C8.46875 8.45625 9.175 8.75 10 8.75ZM15.25 17H4.75C4.5375 17 4.35925 16.928 4.21525 16.784C4.07175 16.6405 4 16.4625 4 16.25C4 16.0375 4.07175 15.8595 4.21525 15.716C4.35925 15.572 4.5375 15.5 4.75 15.5H5.5V13.25C5.5 12.4875 5.67825 11.7718 6.03475 11.1027C6.39075 10.4342 6.8875 9.9 7.525 9.5C6.8875 9.1 6.39075 8.5655 6.03475 7.8965C5.67825 7.228 5.5 6.5125 5.5 5.75V3.5H4.75C4.5375 3.5 4.35925 3.428 4.21525 3.284C4.07175 3.1405 4 2.9625 4 2.75C4 2.5375 4.07175 2.35925 4.21525 2.21525C4.35925 2.07175 4.5375 2 4.75 2H15.25C15.4625 2 15.6405 2.07175 15.784 2.21525C15.928 2.35925 16 2.5375 16 2.75C16 2.9625 15.928 3.1405 15.784 3.284C15.6405 3.428 15.4625 3.5 15.25 3.5H14.5V5.75C14.5 6.5125 14.322 7.228 13.966 7.8965C13.6095 8.5655 13.1125 9.1 12.475 9.5C13.1125 9.9 13.6095 10.4342 13.966 11.1027C14.322 11.7718 14.5 12.4875 14.5 13.25V15.5H15.25C15.4625 15.5 15.6405 15.572 15.784 15.716C15.928 15.8595 16 16.0375 16 16.25C16 16.4625 15.928 16.6405 15.784 16.784C15.6405 16.928 15.4625 17 15.25 17Z" fill="white"/>
</svg>
