<svg width="15" height="15" viewBox="0 0 15 15" fill="none" xmlns="http://www.w3.org/2000/svg">
<path d="M7.5 10.8516C7.23438 10.8516 7.01188 10.7616 6.8325 10.5816C6.6525 10.4022 6.5625 10.1797 6.5625 9.91406V3.21094L4.80469 4.96875C4.61719 5.15625 4.39844 5.25 4.14844 5.25C3.89844 5.25 3.67187 5.14844 3.46875 4.94531C3.28125 4.75781 3.19156 4.535 3.19969 4.27688C3.20719 4.01938 3.29687 3.80469 3.46875 3.63281L6.84375 0.257812C6.9375 0.164062 7.03906 0.0974998 7.14844 0.0581248C7.25781 0.0193748 7.375 0 7.5 0C7.625 0 7.74219 0.0193748 7.85156 0.0581248C7.96094 0.0974998 8.0625 0.164062 8.15625 0.257812L11.5312 3.63281C11.7187 3.82031 11.8084 4.04281 11.8003 4.30031C11.7928 4.55844 11.7031 4.77344 11.5312 4.94531C11.3437 5.13281 11.1213 5.23031 10.8638 5.23781C10.6056 5.24594 10.3828 5.15625 10.1953 4.96875L8.4375 3.21094V9.91406C8.4375 10.1797 8.34781 10.4022 8.16844 10.5816C7.98844 10.7616 7.76562 10.8516 7.5 10.8516ZM1.875 14.6016C1.35938 14.6016 0.918125 14.4181 0.55125 14.0512C0.18375 13.6838 0 13.2422 0 12.7266V10.8516C0 10.5859 0.0896877 10.3631 0.269063 10.1831C0.449063 10.0037 0.671875 9.91406 0.9375 9.91406C1.20312 9.91406 1.42594 10.0037 1.60594 10.1831C1.78531 10.3631 1.875 10.5859 1.875 10.8516V12.7266H13.125V10.8516C13.125 10.5859 13.215 10.3631 13.395 10.1831C13.5744 10.0037 13.7969 9.91406 14.0625 9.91406C14.3281 9.91406 14.5506 10.0037 14.73 10.1831C14.91 10.3631 15 10.5859 15 10.8516V12.7266C15 13.2422 14.8166 13.6838 14.4497 14.0512C14.0822 14.4181 13.6406 14.6016 13.125 14.6016H1.875Z" fill="#101010"/>
</svg>
