<svg width="549" height="428" viewBox="0 0 549 428" fill="none" xmlns="http://www.w3.org/2000/svg">
<g filter="url(#filter0_d_9143_10727)">
<path d="M138.415 392.117C132.936 392.117 128.477 387.658 128.477 382.178V33.6433C128.477 23.849 136.444 15.8804 146.238 15.8804H505.753C515.548 15.8804 523.517 23.849 523.517 33.6433V382.178C523.517 387.658 519.058 392.117 513.578 392.117H138.415Z" fill="#FCFEFF"/>
</g>
<path d="M505.759 17.7622C514.53 17.7622 521.641 24.8733 521.641 33.644V382.179C521.641 386.63 518.033 390.237 513.583 390.237H138.421C133.971 390.237 130.364 386.628 130.364 382.179V33.644C130.364 24.8733 137.475 17.7622 146.246 17.7622H505.759ZM505.759 14H146.246C135.414 14 126.602 22.8126 126.602 33.644V382.179C126.602 388.697 131.905 394 138.421 394H513.583C520.101 394 525.403 388.697 525.403 382.179V33.644C525.403 22.8112 516.59 14 505.759 14Z" fill="#E2E2E2"/>
<path d="M521.644 66.1127H130.367V33.4767C130.367 24.7978 137.403 17.7637 146.08 17.7637H505.93C514.609 17.7637 521.643 24.7992 521.643 33.4767V66.1127H521.644Z" fill="#4F90CC"/>
<path d="M196 101H148V137H196V101Z" fill="#C8D4DF"/>
<path d="M294.674 101.241H217.562V137.241H294.674V101.241Z" fill="#C8D4DF"/>
<path d="M400.674 101.241H323.562V137.241H400.674V101.241Z" fill="#C8D4DF"/>
<path d="M506.674 101.241H429.562V137.241H506.674V101.241Z" fill="#C8D4DF"/>
<path d="M196 172H148V208H196V172Z" fill="#C8D4DF"/>
<path d="M294.674 172H217.562V208H294.674V172Z" fill="#C8D4DF"/>
<path d="M400.674 172H323.562V208H400.674V172Z" fill="#C8D4DF"/>
<path d="M506.674 172H429.562V208H506.674V172Z" fill="#C8D4DF"/>
<path d="M196 243H148V279H196V243Z" fill="#C8D4DF"/>
<path d="M294.674 243H217.562V279H294.674V243Z" fill="#C8D4DF"/>
<path d="M400.674 243H323.562V279H400.674V243Z" fill="#C8D4DF"/>
<path d="M506.674 243H429.562V279H506.674V243Z" fill="#C8D4DF"/>
<path d="M196 314H148V350H196V314Z" fill="#C8D4DF"/>
<path d="M294.674 314H217.562V350H294.674V314Z" fill="#C8D4DF"/>
<path d="M400.674 314H323.562V350H400.674V314Z" fill="#C8D4DF"/>
<path d="M506.674 314H429.562V350H506.674V314Z" fill="#C8D4DF"/>
<path d="M465.283 42.6555C465.283 46.5878 463.684 50.1434 461.107 52.7388C458.529 55.3167 454.954 56.9156 451.023 56.9156H200.987C193.104 56.9156 186.727 50.5188 186.727 42.6555C186.727 38.7057 188.325 35.1488 190.903 32.5722C193.481 29.9944 197.037 28.3955 200.987 28.3955H451.025C458.907 28.3955 465.283 34.772 465.283 42.6555Z" fill="#F9FBFC"/>
<path d="M208.296 48.24C207.469 48.24 206.723 48.0987 206.056 47.816C205.395 47.528 204.848 47.12 204.416 46.592C203.989 46.0587 203.712 45.4267 203.584 44.696L205.328 44.432C205.504 45.136 205.872 45.6853 206.432 46.08C206.992 46.4693 207.645 46.664 208.392 46.664C208.856 46.664 209.283 46.592 209.672 46.448C210.061 46.2987 210.373 46.088 210.608 45.816C210.848 45.5387 210.968 45.208 210.968 44.824C210.968 44.616 210.931 44.432 210.856 44.272C210.787 44.112 210.688 43.9733 210.56 43.856C210.437 43.7333 210.285 43.6293 210.104 43.544C209.928 43.4533 209.733 43.376 209.52 43.312L206.568 42.44C206.28 42.3547 205.987 42.2453 205.688 42.112C205.389 41.9733 205.115 41.7947 204.864 41.576C204.619 41.352 204.419 41.0773 204.264 40.752C204.109 40.4213 204.032 40.0213 204.032 39.552C204.032 38.8427 204.213 38.2427 204.576 37.752C204.944 37.256 205.44 36.8827 206.064 36.632C206.688 36.376 207.387 36.248 208.16 36.248C208.939 36.2587 209.635 36.3973 210.248 36.664C210.867 36.9307 211.379 37.3147 211.784 37.816C212.195 38.312 212.477 38.9147 212.632 39.624L210.84 39.928C210.76 39.496 210.589 39.1253 210.328 38.816C210.067 38.5013 209.747 38.2613 209.368 38.096C208.989 37.9253 208.579 37.8373 208.136 37.832C207.709 37.8213 207.317 37.8853 206.96 38.024C206.608 38.1627 206.325 38.3573 206.112 38.608C205.904 38.8587 205.8 39.1467 205.8 39.472C205.8 39.792 205.893 40.0507 206.08 40.248C206.267 40.4453 206.496 40.6027 206.768 40.72C207.045 40.832 207.32 40.9253 207.592 41L209.72 41.6C209.987 41.6747 210.288 41.776 210.624 41.904C210.965 42.0267 211.293 42.2 211.608 42.424C211.928 42.648 212.192 42.9467 212.4 43.32C212.608 43.688 212.712 44.152 212.712 44.712C212.712 45.2933 212.595 45.8053 212.36 46.248C212.125 46.6853 211.803 47.0533 211.392 47.352C210.987 47.6453 210.517 47.8667 209.984 48.016C209.451 48.1653 208.888 48.24 208.296 48.24ZM218.329 48.24C217.47 48.24 216.716 48.0533 216.065 47.68C215.42 47.3013 214.916 46.776 214.553 46.104C214.196 45.4267 214.017 44.6427 214.017 43.752C214.017 42.808 214.193 41.9893 214.545 41.296C214.902 40.6027 215.398 40.0667 216.033 39.688C216.668 39.3093 217.406 39.12 218.249 39.12C219.129 39.12 219.878 39.3253 220.497 39.736C221.116 40.1413 221.577 40.72 221.881 41.472C222.19 42.224 222.313 43.1173 222.249 44.152H220.577V43.544C220.566 42.5413 220.374 41.8 220.001 41.32C219.633 40.84 219.07 40.6 218.313 40.6C217.476 40.6 216.846 40.864 216.425 41.392C216.004 41.92 215.793 42.6827 215.793 43.68C215.793 44.6293 216.004 45.3653 216.425 45.888C216.846 46.4053 217.454 46.664 218.249 46.664C218.772 46.664 219.222 46.5467 219.601 46.312C219.985 46.072 220.284 45.7307 220.497 45.288L222.137 45.808C221.801 46.5813 221.292 47.1813 220.609 47.608C219.926 48.0293 219.166 48.24 218.329 48.24ZM215.249 44.152V42.848H221.417V44.152H215.249ZM226.408 48.24C225.768 48.24 225.231 48.1227 224.799 47.888C224.367 47.648 224.039 47.3333 223.815 46.944C223.597 46.5493 223.487 46.1173 223.487 45.648C223.487 45.2107 223.565 44.8267 223.719 44.496C223.874 44.1653 224.103 43.8853 224.407 43.656C224.711 43.4213 225.085 43.232 225.527 43.088C225.911 42.976 226.346 42.8773 226.832 42.792C227.317 42.7067 227.826 42.6267 228.359 42.552C228.898 42.4773 229.432 42.4027 229.96 42.328L229.352 42.664C229.362 41.9867 229.218 41.4853 228.92 41.16C228.626 40.8293 228.12 40.664 227.399 40.664C226.946 40.664 226.53 40.7707 226.151 40.984C225.773 41.192 225.509 41.5387 225.359 42.024L223.799 41.544C224.013 40.8027 224.418 40.2133 225.016 39.776C225.618 39.3387 226.418 39.12 227.416 39.12C228.189 39.12 228.861 39.2533 229.431 39.52C230.008 39.7813 230.429 40.1973 230.696 40.768C230.834 41.0507 230.92 41.3493 230.951 41.664C230.984 41.9787 231 42.3173 231 42.68V48H229.52V46.024L229.808 46.28C229.45 46.9413 228.994 47.4347 228.44 47.76C227.89 48.08 227.213 48.24 226.408 48.24ZM226.704 46.872C227.178 46.872 227.586 46.7893 227.928 46.624C228.269 46.4533 228.544 46.2373 228.752 45.976C228.959 45.7147 229.095 45.4427 229.16 45.16C229.25 44.904 229.301 44.616 229.312 44.296C229.328 43.976 229.336 43.72 229.336 43.528L229.88 43.728C229.352 43.808 228.872 43.88 228.44 43.944C228.008 44.008 227.616 44.072 227.264 44.136C226.917 44.1947 226.607 44.2667 226.336 44.352C226.106 44.432 225.901 44.528 225.72 44.64C225.543 44.752 225.402 44.888 225.296 45.048C225.194 45.208 225.143 45.4027 225.143 45.632C225.143 45.856 225.199 46.064 225.312 46.256C225.424 46.4427 225.594 46.592 225.823 46.704C226.053 46.816 226.346 46.872 226.704 46.872ZM233.157 48V39.36H234.645V41.456L234.437 41.184C234.544 40.9067 234.682 40.6533 234.853 40.424C235.024 40.1893 235.221 39.9973 235.445 39.848C235.664 39.688 235.906 39.5653 236.173 39.48C236.445 39.3893 236.722 39.336 237.005 39.32C237.288 39.2987 237.56 39.312 237.821 39.36V40.928C237.538 40.8533 237.224 40.832 236.877 40.864C236.536 40.896 236.221 41.0053 235.933 41.192C235.661 41.368 235.445 41.5813 235.285 41.832C235.13 42.0827 235.018 42.3627 234.949 42.672C234.88 42.976 234.845 43.2987 234.845 43.64V48H233.157ZM242.964 48.24C242.079 48.24 241.327 48.0427 240.708 47.648C240.089 47.2533 239.615 46.712 239.284 46.024C238.959 45.336 238.793 44.5547 238.788 43.68C238.793 42.7893 238.964 42.0027 239.3 41.32C239.636 40.632 240.116 40.0933 240.74 39.704C241.364 39.3147 242.113 39.12 242.988 39.12C243.932 39.12 244.737 39.3547 245.404 39.824C246.076 40.2933 246.519 40.936 246.732 41.752L245.068 42.232C244.903 41.7467 244.631 41.3707 244.252 41.104C243.879 40.832 243.449 40.696 242.964 40.696C242.415 40.696 241.964 40.8267 241.612 41.088C241.26 41.344 240.999 41.696 240.828 42.144C240.657 42.592 240.569 43.104 240.564 43.68C240.569 44.5707 240.772 45.2907 241.172 45.84C241.577 46.3893 242.175 46.664 242.964 46.664C243.503 46.664 243.937 46.5413 244.268 46.296C244.604 46.0453 244.86 45.688 245.036 45.224L246.732 45.624C246.449 46.4667 245.983 47.1147 245.332 47.568C244.681 48.016 243.892 48.24 242.964 48.24ZM254.506 48V43.752C254.506 43.416 254.477 43.072 254.418 42.72C254.365 42.3627 254.258 42.032 254.098 41.728C253.943 41.424 253.722 41.1787 253.434 40.992C253.151 40.8053 252.781 40.712 252.322 40.712C252.023 40.712 251.741 40.7627 251.474 40.864C251.207 40.96 250.973 41.1173 250.77 41.336C250.573 41.5547 250.415 41.8427 250.298 42.2C250.186 42.5573 250.13 42.992 250.13 43.504L249.09 43.112C249.09 42.328 249.237 41.6373 249.53 41.04C249.823 40.4373 250.245 39.968 250.794 39.632C251.343 39.296 252.007 39.128 252.786 39.128C253.383 39.128 253.885 39.224 254.29 39.416C254.695 39.608 255.023 39.8613 255.274 40.176C255.53 40.4853 255.725 40.824 255.858 41.192C255.991 41.56 256.082 41.92 256.13 42.272C256.178 42.624 256.202 42.9333 256.202 43.2V48H254.506ZM248.434 48V36.48H249.93V42.696H250.13V48H248.434Z" fill="black"/>
<path d="M465.274 42.6555C465.274 46.5878 463.675 50.1434 461.098 52.7388C458.52 55.3167 454.945 56.9156 451.014 56.9156H421.234V28.3955H451.014C458.898 28.3955 465.274 34.772 465.274 42.6555Z" fill="#EC847D"/>
<path d="M436.001 36.8539C434.058 39.286 434.087 42.8388 436.067 45.2411C438.317 47.9703 442.169 48.4105 444.938 46.5632L449.209 50.8344C449.388 51.014 449.681 51.014 449.861 50.8344L451.062 49.6339C451.242 49.453 451.242 49.1613 451.062 48.9817L446.79 44.7104C448.52 42.1164 448.243 38.5703 445.956 36.2827C443.174 33.5023 438.529 33.6913 436.001 36.8539ZM444.104 43.8773C442.522 45.4599 439.947 45.4599 438.364 43.8773C436.781 42.2946 436.781 39.7194 438.364 38.1368C439.947 36.5541 442.522 36.5541 444.104 38.1368C445.687 39.7194 445.687 42.2946 444.104 43.8773Z" fill="#F9FBFC"/>
<path d="M92.5559 56.0605L90.8399 39.7421C89.8122 29.9566 81.0448 22.8577 71.2592 23.8867C61.4736 24.9144 54.3748 33.6818 55.4038 43.4674L57.9534 67.7276V83.9469H83.8523V69.7844C89.4605 67.824 93.2034 62.2226 92.5559 56.0605Z" fill="#FFC3BD"/>
<path d="M86.3827 13C79.5702 17.5412 69.5634 14.8531 61.0865 18.1507C61.2209 16.3465 61.0132 15.0364 61.0132 15.0364C58.2559 20.8917 52.3164 19.5762 51.5643 26.447C43.5341 30.7329 47.4875 37.2671 46.4611 41.1702C46.4611 41.1702 47.1508 40.4642 47.9925 39.336C49.0297 44.0836 51.3078 48.079 51.3078 48.079C53.8356 58.9194 57.1468 66.4527 58.0197 67.3731H68.6646C75.2639 65.2675 77.6547 57.4613 77.6547 53.375L76.0989 43.0273C81.1695 43.1278 79.82 50.3299 81.6012 50.1425C83.4014 49.9538 83.4014 49.9538 83.4014 49.9538L85.264 35.7819V35.7045C89.7169 33.4278 97.0751 21.709 86.3827 13Z" fill="#0E1738"/>
<path d="M78.8303 48.5592C78.8303 42.3427 76.3269 42.0182 74.3882 44.2243C70.1729 49.0234 73.085 56.5228 76.4925 55.1571C79.3571 54.0086 78.8303 50.1747 78.8303 48.5592Z" fill="#FFC3BD"/>
<path d="M35.2638 87.1592C21.2764 98.02 0.601562 129.349 0.601562 142.699C0.601562 150.844 36.324 187.397 36.324 187.397L52.7008 168.147L27.0747 141.34L41.5236 116.346L35.2638 87.1592Z" fill="#4F90CC"/>
<path d="M32.6451 147.178C33.347 157.841 32.9098 171.448 30.625 181.444L36.3161 187.4L52.6928 168.149L32.6451 147.178Z" fill="#34579C"/>
<path d="M101.242 401.353V380.293L82.5859 381.095L82.9959 408.45L101.242 401.353Z" fill="#FFC3BD"/>
<path d="M101.242 391.702V380.293L82.5859 381.095L82.7556 392.382L101.242 391.702Z" fill="#FF847F"/>
<path d="M82.6387 412.999H123.687C125.541 412.999 127.046 411.495 127.046 409.641C127.046 408.233 126.167 406.974 124.846 406.488L103.254 398.548C103.254 398.548 95.1462 401.683 92.2898 401.814C90.0851 401.916 84.8312 400.629 82.0413 399.895C81.1589 399.662 80.3158 400.374 80.3959 401.283L81.3286 411.799C81.3883 412.48 81.9571 412.999 82.6387 412.999Z" fill="#0E1738"/>
<path d="M100.857 400.995C100.659 399.503 100.311 393.755 101.234 393.925C102.157 394.094 105.382 395.452 105.891 397.149C106.4 398.846 105.551 401.731 105.551 401.731L100.857 400.995Z" fill="#0E1738"/>
<path d="M106.768 404.16C106.568 404.16 106.378 404.042 106.296 403.847C106.189 403.587 106.313 403.289 106.572 403.182C108.684 402.309 108.843 400.817 108.849 400.754C108.875 400.477 109.112 400.272 109.397 400.291C109.676 400.314 109.883 400.553 109.864 400.832C109.859 400.918 109.682 402.997 106.962 404.124C106.899 404.148 106.833 404.16 106.768 404.16Z" fill="white"/>
<path d="M123.005 410.778H82.2769C82.0896 410.778 81.9375 410.626 81.9375 410.439C81.9375 410.252 82.0896 410.1 82.2769 410.1H123.005C123.192 410.1 123.344 410.252 123.344 410.439C123.344 410.628 123.192 410.778 123.005 410.778Z" fill="white"/>
<path d="M110.445 405.392C110.253 405.392 110.069 405.282 109.984 405.095C109.867 404.839 109.978 404.538 110.232 404.42C110.249 404.413 111.88 403.637 112.123 401.926C112.163 401.648 112.418 401.447 112.699 401.494C112.977 401.534 113.172 401.792 113.131 402.07C112.808 404.341 110.743 405.306 110.655 405.346C110.588 405.377 110.516 405.392 110.445 405.392Z" fill="white"/>
<path d="M58.3906 202.701L100.9 199.922L105.469 382.784L78.6256 386.397L58.3906 202.701Z" fill="#433D3E"/>
<path d="M98.7691 372.999C98.4067 372.999 98.108 372.714 98.0917 372.35L91.2508 218.538C91.2331 218.164 91.5236 217.846 91.8983 217.83C92.2893 217.781 92.5893 218.104 92.607 218.479L99.4479 372.29C99.4656 372.665 99.175 372.983 98.8004 372.999C98.7895 372.999 98.7786 372.999 98.7691 372.999Z" fill="white"/>
<path d="M25.9024 401.337L30.7218 380.31H9.99946L7.65625 408.432L25.9024 401.337Z" fill="#FFC3BD"/>
<path d="M27.1613 395.85L30.7236 380.31H10.0012L8.98438 392.509L27.1613 395.85Z" fill="#FF847F"/>
<path d="M15.0571 398.533C17.6881 398.533 23.2339 401.153 26.1039 400.47C28.1552 399.983 31.8669 403.673 33.8178 405.817C34.6446 406.726 35.0939 407.909 35.0939 409.137C35.0939 411.261 33.3725 412.983 31.2479 412.983H7.66365C6.33863 412.983 5.32723 411.8 5.53494 410.491L6.99301 401.269C6.99301 401.269 9.82494 398.533 15.0571 398.533Z" fill="#0E1738"/>
<path d="M32.6138 410.765H6.48002C6.29268 410.765 6.14062 410.613 6.14062 410.425C6.14062 410.238 6.29268 410.086 6.48002 410.086H32.6138C32.8011 410.086 32.9532 410.238 32.9532 410.425C32.9532 410.613 32.8011 410.765 32.6138 410.765Z" fill="white"/>
<path d="M33.2297 199.922L7.23438 384.59L33.3505 388.202L75.7999 200.858L33.2297 199.922Z" fill="#433D3E"/>
<path opacity="0.3" d="M33.2344 199.922C33.2344 199.922 42.8258 222.692 101.079 206.739L100.909 199.922H33.2344Z" fill="#0E1738"/>
<path opacity="0.3" d="M54.3059 216.81C54.3059 216.81 48.5077 235.81 61.4198 264.323L63.9517 253.15C63.9517 253.15 53.2877 232.762 54.3059 216.81Z" fill="#0E1738"/>
<path d="M57.9476 80.6558C64.422 80.6558 83.8465 80.6558 83.8465 80.6558L95.4824 81.5015C109.058 107.312 101.989 166.167 103.206 200.799C93.6171 207.871 43.9779 208.381 30.9965 199.922C30.6069 187.216 36.059 173.627 35.2553 158.433C33.5868 126.904 28.485 94.0675 35.2553 87.1586C38.0859 84.2683 51.1338 80.6558 57.9476 80.6558Z" fill="#4F90CC"/>
<path d="M33.3025 131.14C32.8179 128.151 32.4649 125.157 32.1581 122.154C31.8363 119.152 31.6422 116.138 31.4969 113.12C31.3856 110.101 31.3177 107.075 31.4765 104.045C31.6476 101.033 31.8607 97.9435 32.902 95.0776C32.6468 96.5724 32.5368 98.0603 32.5233 99.5618C32.4717 101.058 32.4825 102.558 32.5219 104.058C32.6101 107.058 32.7133 110.059 32.8545 113.062C32.9658 116.066 33.1233 119.07 33.1966 122.084C33.2849 125.097 33.3758 128.113 33.3025 131.14Z" fill="#34579C"/>
<path d="M159.586 96.6998L168.078 85.3775L170.802 74.7624C171.123 73.5148 172.277 72.6636 173.564 72.726L177.419 72.912L185.265 62.7029C185.663 62.1843 186.312 61.9236 186.958 62.0227C188.085 62.1951 188.768 63.3613 188.366 64.4284L183.89 76.3114L192.456 79.4461C194.597 80.2294 196.02 82.2659 196.02 84.5453V86.7269C196.02 88.2053 194.993 89.4856 193.55 89.806C192.797 89.9729 192.008 89.8589 191.333 89.4842L188.742 88.0438L186.723 93.4484C185.857 95.7685 183.238 96.9048 180.952 95.9545L173.565 108.201L159.586 96.6998Z" fill="#FFC3BD"/>
<path d="M95.5007 81.5035C108.998 81.46 133.061 111.618 139.849 117.954L160.665 90.0794L179.672 103.902L151.287 141.766C146.086 148.703 136.089 149.768 129.544 144.081L90.0703 109.785L95.5007 81.5035Z" fill="#4F90CC"/>
<path d="M103.596 121.536C99.7617 118.749 96.4695 115.195 93.9824 111.083C92.7755 109.011 91.7817 106.755 91.3866 104.338C90.9576 101.94 91.3418 99.3393 92.6424 97.3423C91.8306 99.5837 91.8727 101.931 92.4252 104.126C92.9954 106.326 93.9729 108.416 95.1513 110.394C96.3093 112.387 97.6737 114.27 99.0937 116.119C100.537 117.951 102.023 119.767 103.596 121.536Z" fill="#34579C"/>
<path d="M140.612 116.924L139.844 117.953C139.844 117.953 144.371 122.343 144.711 126.87C144.711 126.87 145.452 121.799 140.612 116.924Z" fill="#34579C"/>
<path d="M50.75 143.623C50.75 143.623 54.9925 176.687 90.5955 178.882C73.2074 172.387 61.2144 164.694 50.75 143.623Z" fill="#34579C"/>
<defs>
<filter id="filter0_d_9143_10727" x="103.477" y="0.880371" width="445.039" height="426.237" filterUnits="userSpaceOnUse" color-interpolation-filters="sRGB">
<feFlood flood-opacity="0" result="BackgroundImageFix"/>
<feColorMatrix in="SourceAlpha" type="matrix" values="0 0 0 0 0 0 0 0 0 0 0 0 0 0 0 0 0 0 127 0" result="hardAlpha"/>
<feOffset dy="10"/>
<feGaussianBlur stdDeviation="12.5"/>
<feComposite in2="hardAlpha" operator="out"/>
<feColorMatrix type="matrix" values="0 0 0 0 0.954123 0 0 0 0 0.954123 0 0 0 0 0.954123 0 0 0 1 0"/>
<feBlend mode="normal" in2="BackgroundImageFix" result="effect1_dropShadow_9143_10727"/>
<feBlend mode="normal" in="SourceGraphic" in2="effect1_dropShadow_9143_10727" result="shape"/>
</filter>
</defs>
</svg>
