<svg width="20" height="18" viewBox="0 0 20 18" fill="none" xmlns="http://www.w3.org/2000/svg">
<path fill-rule="evenodd" clip-rule="evenodd" d="M11.5579 1.00051L15.6571 8.10053L19.7563 15.2005C20.0813 15.7634 20.0813 16.4365 19.7563 16.9994C19.4313 17.5623 18.8484 17.8989 18.1984 17.8989H1.80164C1.15166 17.8989 0.568765 17.5623 0.243776 16.9994C-0.0812587 16.4365 -0.0812587 15.7634 0.243776 15.2005L4.34295 8.10053L8.44217 1.00051C8.76716 0.437597 9.35006 0.101074 10 0.101074C10.6501 0.101074 11.2329 0.437597 11.5579 1.00051ZM10 13.3512C10.4539 13.3512 10.8218 13.7191 10.8218 14.173C10.8218 14.6268 10.4539 14.9947 10 14.9947C9.54619 14.9947 9.17824 14.6268 9.17824 14.173C9.17824 13.7191 9.54619 13.3512 10 13.3512ZM10.0004 4.27499C10.5524 4.27499 11.0533 4.72958 11.0231 5.29766L10.6579 12.1641H9.45262L8.97778 5.29766C8.93902 4.73655 9.43799 4.27499 10.0004 4.27499Z" fill="#9F9F9F"/>
</svg>
