<svg width="28" height="28" viewBox="0 0 28 28" fill="none" xmlns="http://www.w3.org/2000/svg">
<path d="M14 0C9.92911 0 6.61719 3.31193 6.61719 7.38281C6.61719 11.4537 9.92911 14.7656 14 14.7656C18.0709 14.7656 21.3828 11.4537 21.3828 7.38281C21.3828 3.31193 18.0709 0 14 0ZM14 13.125C10.8338 13.125 8.25781 10.549 8.25781 7.38281C8.25781 4.21657 10.8338 1.64062 14 1.64062C17.1662 1.64062 19.7422 4.21657 19.7422 7.38281C19.7422 10.549 17.1662 13.125 14 13.125Z" fill="#4F90CC"/>
<path d="M23.1857 19.5888C21.1644 17.5365 18.4849 16.4062 15.6406 16.4062H12.3594C9.51519 16.4062 6.83559 17.5365 4.81434 19.5888C2.80301 21.631 1.69531 24.3268 1.69531 27.1797C1.69531 27.6327 2.06259 28 2.51562 28H25.4844C25.9374 28 26.3047 27.6327 26.3047 27.1797C26.3047 24.3268 25.197 21.631 23.1857 19.5888ZM3.37203 26.3594C3.78301 21.7063 7.65686 18.0469 12.3594 18.0469H15.6406C20.3431 18.0469 24.217 21.7063 24.628 26.3594H3.37203Z" fill="#4F90CC"/>
</svg>
