<svg width="28" height="28" viewBox="0 0 28 28" fill="none" xmlns="http://www.w3.org/2000/svg">
<g clip-path="url(#clip0_189_283)">
<path d="M25.4883 16.6355H16.3471C17.6647 15.4002 18.4471 13.6296 18.4471 11.7767C18.4471 8.15314 15.4824 5.18844 11.8589 5.18844C8.23533 5.18844 5.27063 8.15314 5.27063 11.7767C5.27063 15.2355 7.98828 18.2826 11.6942 18.3649V21.9061H10.7059L10.4177 19.7649C10.4177 19.6002 10.253 19.4355 10.0883 19.3943C9.22357 19.1884 8.40004 18.859 7.65886 18.4061C7.49416 18.3237 7.32945 18.3237 7.16475 18.4473L5.43533 19.8061L3.78828 18.159L5.1471 16.4296C5.27063 16.3061 5.27063 16.1002 5.18828 15.9355C4.69416 15.1943 4.36475 14.3708 4.20004 13.5061C4.15886 13.3414 4.03533 13.2178 3.82945 13.1767L1.6471 12.9296V10.6237L3.82945 10.3767C3.99416 10.3767 4.15886 10.212 4.20004 10.0473C4.40592 9.18255 4.73533 8.35902 5.18828 7.61785C5.27063 7.45314 5.27063 7.28844 5.1471 7.12373L3.78828 5.39432L5.43533 3.74726L7.16475 5.10608C7.28828 5.22961 7.49416 5.22961 7.65886 5.14726C8.40004 4.65314 9.22357 4.32373 10.0883 4.15902C10.253 4.11785 10.3765 3.99432 10.4177 3.78844L10.7059 1.64726H13.0118L13.2589 3.82961C13.3 3.99432 13.4236 4.15902 13.5883 4.2002C14.453 4.40608 15.2765 4.7355 16.0177 5.18844C16.1824 5.27079 16.3471 5.27079 16.5118 5.14726L18.2412 3.78844L19.8883 5.4355L18.5295 7.16491C18.4059 7.28844 18.4059 7.49432 18.4883 7.65902C18.9412 8.4002 19.3118 9.22373 19.4765 10.0884C19.5177 10.2531 19.6412 10.3767 19.8471 10.4178L22.0295 10.6649V12.9708L19.8471 13.2178C19.6824 13.2178 19.5177 13.3826 19.4765 13.5473C19.353 14.1649 19.1471 14.7414 18.8589 15.2767C18.7765 15.4826 18.8589 15.7296 19.0647 15.812C19.2706 15.8943 19.5177 15.812 19.6 15.6061C19.8471 15.0708 20.053 14.5355 20.2177 13.959L22.4824 13.712C22.6883 13.6708 22.853 13.5061 22.853 13.3002V10.2943C22.853 10.0884 22.6883 9.92373 22.4824 9.88255L20.2177 9.6355C20.0118 8.85314 19.7236 8.15314 19.3118 7.49432L20.7118 5.72373C20.8353 5.55902 20.8353 5.31197 20.6706 5.18844L18.5295 2.96491C18.3647 2.8002 18.1589 2.8002 17.9942 2.92373L16.2236 4.32373C15.5647 3.91197 14.8236 3.62373 14.0824 3.41785L13.7942 1.15314C13.753 0.988436 13.5883 0.82373 13.3824 0.82373H10.3353C10.1295 0.82373 9.96475 0.988436 9.92357 1.19432L9.67651 3.45902C8.93533 3.66491 8.19416 3.95314 7.53533 4.36491L5.76475 2.96491C5.60004 2.84138 5.35298 2.84138 5.22945 3.00608L3.08828 5.14726C2.92357 5.31197 2.92357 5.51785 3.0471 5.68255L4.4471 7.45314C4.03533 8.11197 3.7471 8.85314 3.54122 9.59432L1.23533 9.88255C1.02945 9.92373 0.864746 10.0884 0.864746 10.2943V13.3414C0.864746 13.5473 1.02945 13.712 1.23533 13.7531L3.50004 14.0002C3.70592 14.7414 3.99416 15.4826 4.40592 16.1414L3.00592 17.912C2.88239 18.0767 2.88239 18.3237 3.0471 18.4473L5.18828 20.5884C5.35298 20.7531 5.55886 20.7531 5.72357 20.6296L7.49416 19.2296C8.15298 19.6414 8.89416 19.9296 9.63533 20.1355L9.88239 22.4002C9.92357 22.6061 10.0883 22.7708 10.2942 22.7708H11.653V25.5296C11.653 26.4355 12.3942 27.1767 13.3 27.1767H25.4883C26.3942 27.1767 27.1353 26.4355 27.1353 25.5296V18.2826C27.1353 17.3767 26.3942 16.6355 25.4883 16.6355ZM7.74122 15.8943C6.67063 14.8237 6.05298 13.3414 6.05298 11.8178C6.05298 8.64726 8.6471 6.05314 11.8177 6.05314C14.9883 6.05314 17.5824 8.64726 17.5824 11.8178C17.5824 13.3414 16.9647 14.8237 15.8942 15.8943C15.8942 14.7414 14.9471 13.8355 13.7942 13.8355H13.4236L13.1353 12.9708C14.1236 12.1473 13.9177 10.9943 13.9589 10.912C14.3706 10.2531 14.4942 9.6355 14.6177 9.18255C14.9059 7.82373 12.8471 6.46491 11.9 7.82373C11.0765 7.7002 10.3353 7.82373 9.75886 8.15314C9.38828 8.4002 9.14122 8.72961 9.05886 9.05902C8.85298 10.0061 9.18239 10.6649 9.3471 10.912V11.2002C9.3471 12.0237 9.80004 12.7649 10.5 13.1767L10.2118 13.7943H9.80004C8.68828 13.7943 7.78239 14.7414 7.74122 15.8943ZM11.6942 12.6826C10.8706 12.6826 10.2118 12.0237 10.2118 11.2002V10.8708L10.5412 10.2531H12.6824L13.1353 10.912V11.2002C13.1353 12.0237 12.4765 12.6826 11.6942 12.6826ZM12.7236 14.2473L11.8589 15.1943L10.9942 14.2473L11.3236 13.4649C11.6942 13.5061 12.0647 13.5061 12.4353 13.3826L12.7236 14.2473ZM9.88239 9.8002C9.84122 9.6355 9.88239 9.42961 9.92357 9.22373C10.0059 8.89432 10.7883 8.35902 12.0647 8.64726C12.2706 8.68844 12.4765 8.60608 12.5589 8.4002C12.9295 7.57667 13.9589 8.44138 13.8765 8.97667C13.7942 9.30608 13.7118 9.6355 13.5883 10.0061C13.4647 9.88255 13.3412 9.47079 12.8883 9.47079H10.5412C10.2118 9.42961 10.0059 9.55314 9.88239 9.8002ZM11.8177 17.5826C10.6236 17.5826 9.5118 17.212 8.56475 16.5531V15.8943C8.56475 15.1943 9.14122 14.6178 9.84122 14.6178H10.2118L11.5295 16.059C11.6942 16.2237 11.9824 16.2237 12.1471 16.059L13.4647 14.6178H13.8353C14.5353 14.6178 15.1118 15.1943 15.1118 15.8943V16.5531C15.0706 16.5943 15.0295 16.5943 14.9883 16.6355C14.6177 16.6355 13.2177 16.6355 13.3 16.6355C12.6824 16.6355 12.1059 17.0061 11.8177 17.5826ZM26.3118 25.5296C26.3118 25.9826 25.9412 26.3531 25.4883 26.3531H13.3C12.8471 26.3531 12.4765 25.9826 12.4765 25.5296C12.4765 22.3178 12.4765 20.4237 12.4765 18.2826C12.4765 17.8296 12.8471 17.459 13.3 17.459H25.4883C25.9412 17.459 26.3118 17.8296 26.3118 18.2826V25.5296Z" fill="#4F90CC" stroke="#4F90CC" stroke-width="0.3"/>
<path d="M24.6235 19.5179H17.8294C17.6647 19.0237 17.2118 18.6943 16.6765 18.6943C16.1412 18.6943 15.6882 19.0237 15.5235 19.5179H14.1647C13.9176 19.5179 13.7529 19.6826 13.7529 19.9296C13.7529 20.1767 13.9176 20.3414 14.1647 20.3414H15.5235C15.6882 20.8355 16.1412 21.1649 16.6765 21.1649C17.2118 21.1649 17.6647 20.8355 17.8294 20.3414H24.6235C24.8706 20.3414 25.0353 20.1767 25.0353 19.9296C25.0353 19.6826 24.8706 19.5179 24.6235 19.5179ZM16.6765 20.3414C16.4706 20.3414 16.2647 20.1767 16.2647 19.9296C16.2647 19.7237 16.4294 19.5179 16.6765 19.5179C16.8823 19.5179 17.0882 19.6826 17.0882 19.9296C17.0882 20.1355 16.8823 20.3414 16.6765 20.3414Z" fill="#4F90CC" stroke="#4F90CC" stroke-width="0.3"/>
<path d="M24.6235 23.471H23.2647C23.1 22.9769 22.647 22.6475 22.1118 22.6475C21.5765 22.6475 21.1235 22.9769 20.9588 23.471H14.1647C13.9176 23.471 13.7529 23.6357 13.7529 23.8828C13.7529 24.1298 13.9176 24.2945 14.1647 24.2945H20.9588C21.1235 24.7886 21.5765 25.118 22.1118 25.118C22.647 25.118 23.1 24.7886 23.2647 24.2945H24.6235C24.8706 24.2945 25.0353 24.1298 25.0353 23.8828C25.0353 23.6357 24.8706 23.471 24.6235 23.471ZM22.1118 24.2945C21.9059 24.2945 21.7 24.1298 21.7 23.8828C21.7 23.6769 21.8647 23.471 22.1118 23.471C22.3176 23.471 22.5235 23.6357 22.5235 23.8828C22.5235 24.1298 22.3588 24.2945 22.1118 24.2945Z" fill="#4F90CC" stroke="#4F90CC" stroke-width="0.3"/>
</g>
<defs>
<clipPath id="clip0_189_283">
<rect width="28" height="28" fill="white"/>
</clipPath>
</defs>
</svg>
