<svg width="28" height="28" viewBox="0 0 28 28" fill="none" xmlns="http://www.w3.org/2000/svg">
<path d="M1.40047 27.0205H2.70807H5.04047H11.5113C11.7437 27.0205 11.9313 26.8329 11.9313 26.6005V20.3929V19.4437V16.4897C11.9313 16.2573 11.7437 16.0697 11.5113 16.0697H8.01407L13.8773 12.3625L20.1325 16.0697H16.4897C16.2573 16.0697 16.0697 16.2573 16.0697 16.4897V19.4465V20.3957V26.6005C16.0697 26.8329 16.2573 27.0205 16.4897 27.0205H17.7973H20.1297H26.6005C26.8329 27.0205 27.0205 26.8329 27.0205 26.6005V20.3929V19.4437V16.4897C27.0205 16.2573 26.8329 16.0697 26.6005 16.0697H21.7817L14.8013 11.9313H18.9257C19.1581 11.9313 19.3457 11.7437 19.3457 11.5113V5.30367V4.35447V1.40047C19.3457 1.16807 19.1581 0.980469 18.9257 0.980469H8.81487C8.58247 0.980469 8.39487 1.16807 8.39487 1.40047V4.35727V5.30647V11.5141C8.39487 11.7465 8.58247 11.9341 8.81487 11.9341H10.1225H12.4549H12.9841L6.44327 16.0697H1.40047C1.16807 16.0697 0.980469 16.2573 0.980469 16.4897V19.4465V20.3957V26.6005C0.980469 26.8329 1.16807 27.0205 1.40047 27.0205ZM20.1129 19.8637V20.3929C20.1129 20.7177 19.8469 20.9837 19.5221 20.9837C19.1973 20.9837 18.9313 20.7177 18.9313 20.3929V19.8637H20.1129ZM22.1345 19.8637V20.3929C22.1345 20.7177 21.8685 20.9837 21.5437 20.9837C21.2189 20.9837 20.9529 20.7177 20.9529 20.3929V19.8637H22.1345ZM24.1589 19.8637V20.3929C24.1589 20.7177 23.8929 20.9837 23.5681 20.9837C23.2433 20.9837 22.9773 20.7177 22.9773 20.3929V19.8637H24.1589ZM26.1805 19.8637V20.3929C26.1805 20.7177 25.9145 20.9837 25.5897 20.9837C25.2649 20.9837 24.9989 20.7177 24.9989 20.3929V19.8637H26.1805ZM18.0913 20.3929C18.0913 20.7177 17.8253 20.9837 17.5005 20.9837C17.1757 20.9837 16.9097 20.7177 16.9097 20.3929V19.8637H18.0913V20.3929ZM18.2145 26.1805V23.3497H19.7069V26.1805H18.2145ZM20.5497 26.1805V22.9297C20.5497 22.6973 20.3621 22.5097 20.1297 22.5097H17.7973C17.5649 22.5097 17.3773 22.6973 17.3773 22.9297V26.1805H16.9097V21.6921C17.0917 21.7733 17.2905 21.8237 17.5005 21.8237C17.8953 21.8237 18.2537 21.6641 18.5113 21.4037C18.7717 21.6613 19.1273 21.8237 19.5221 21.8237C19.9169 21.8237 20.2753 21.6641 20.5329 21.4037C20.7933 21.6613 21.1489 21.8237 21.5437 21.8237C21.9385 21.8237 22.2969 21.6641 22.5545 21.4037C22.8149 21.6613 23.1705 21.8237 23.5653 21.8237C23.9601 21.8237 24.3185 21.6641 24.5761 21.4037C24.8365 21.6613 25.1921 21.8237 25.5869 21.8237C25.7969 21.8237 25.9985 21.7761 26.1777 21.6921V26.1805H20.5497ZM26.1805 19.0237H24.5789H22.5573H20.5357H18.5141H16.9125V16.9069H26.1805V19.0237ZM16.4841 5.30367C16.4841 5.62847 16.2181 5.89447 15.8933 5.89447C15.5685 5.89447 15.3025 5.62847 15.3025 5.30367V4.77447H16.4841V5.30367ZM14.4625 5.30367C14.4625 5.62847 14.1965 5.89447 13.8717 5.89447C13.5469 5.89447 13.2809 5.62847 13.2809 5.30367V4.77447H14.4625V5.30367ZM12.4381 5.30367C12.4381 5.62847 12.1721 5.89447 11.8473 5.89447C11.5225 5.89447 11.2565 5.62847 11.2565 5.30367V4.77447H12.4381V5.30367ZM10.4165 5.30367C10.4165 5.62847 10.1505 5.89447 9.82567 5.89447C9.50087 5.89447 9.23487 5.62847 9.23487 5.30367V4.77447H10.4165V5.30367ZM17.3241 4.77727H18.5057V5.30647C18.5057 5.63127 18.2397 5.89727 17.9149 5.89727C17.5901 5.89727 17.3241 5.63127 17.3241 5.30647V4.77727ZM9.23487 1.82047H18.5057V3.93727H16.9041H14.8825H12.8609H10.8365H9.23487V1.82047ZM9.23487 6.60567C9.41687 6.68687 9.61567 6.73727 9.82567 6.73727C10.2205 6.73727 10.5789 6.57767 10.8365 6.31727C11.0969 6.57487 11.4525 6.73727 11.8473 6.73727C12.2421 6.73727 12.6005 6.57767 12.8581 6.31727C13.1185 6.57487 13.4741 6.73727 13.8689 6.73727C14.2637 6.73727 14.6221 6.57767 14.8797 6.31727C15.1401 6.57487 15.4957 6.73727 15.8905 6.73727C16.2853 6.73727 16.6437 6.57767 16.9013 6.31727C17.1617 6.57487 17.5173 6.73727 17.9121 6.73727C18.1221 6.73727 18.3237 6.68967 18.5029 6.60567V11.0941H12.8749V7.84047C12.8749 7.60807 12.6873 7.42047 12.4549 7.42047H10.1225C9.89007 7.42047 9.70247 7.60807 9.70247 7.84047V11.0913H9.23487V6.60567ZM10.5425 11.0913V8.26047H12.0349V11.0913H10.5425ZM5.02647 19.8637V20.3929C5.02647 20.7177 4.76047 20.9837 4.43567 20.9837C4.11087 20.9837 3.84487 20.7177 3.84487 20.3929V19.8637H5.02647ZM7.04807 19.8637V20.3929C7.04807 20.7177 6.78207 20.9837 6.45727 20.9837C6.13247 20.9837 5.86647 20.7177 5.86647 20.3929V19.8637H7.04807ZM9.06967 19.8637V20.3929C9.06967 20.7177 8.80367 20.9837 8.47887 20.9837C8.15407 20.9837 7.88807 20.7177 7.88807 20.3929V19.8637H9.06967ZM11.0913 19.8637V20.3929C11.0913 20.7177 10.8253 20.9837 10.5005 20.9837C10.1757 20.9837 9.90967 20.7177 9.90967 20.3929V19.8637H11.0913ZM3.00207 20.3929C3.00207 20.7177 2.73607 20.9837 2.41127 20.9837C2.08647 20.9837 1.82047 20.7205 1.82047 20.3929V19.8637H3.00207V20.3929ZM3.12807 26.1805V23.3497H4.62047V26.1805H3.12807ZM5.46047 26.1805V22.9297C5.46047 22.6973 5.27287 22.5097 5.04047 22.5097H2.70807C2.47567 22.5097 2.28807 22.6973 2.28807 22.9297V26.1805H1.82047V21.6921C2.00247 21.7733 2.20127 21.8237 2.41127 21.8237C2.80607 21.8237 3.16447 21.6641 3.42207 21.4037C3.68247 21.6613 4.03807 21.8237 4.43287 21.8237C4.82767 21.8237 5.18607 21.6641 5.44367 21.4037C5.70407 21.6613 6.05967 21.8237 6.45447 21.8237C6.84927 21.8237 7.20767 21.6641 7.46527 21.4037C7.72567 21.6613 8.08127 21.8237 8.47607 21.8237C8.87087 21.8237 9.22927 21.6641 9.48687 21.4037C9.74727 21.6613 10.1029 21.8237 10.4977 21.8237C10.7077 21.8237 10.9093 21.7761 11.0885 21.6921V26.1805H5.46047ZM1.82047 16.9097H11.0913V19.0265H9.48967H7.46807H5.44647H3.42487H1.82047V16.9097Z" fill="#4F90CC"/>
</svg>
