<svg width="28" height="28" viewBox="0 0 28 28" fill="none" xmlns="http://www.w3.org/2000/svg">
<g clip-path="url(#clip0_189_57)">
<path d="M27.3717 15.1408L24.9662 10.9743C24.9134 10.883 24.8318 10.8173 24.7388 10.7829L24.7389 10.7827L18.7364 8.56532C18.8281 8.35707 18.9061 8.14308 18.9694 7.92389H20.0173C20.2589 7.92389 20.4548 7.728 20.4548 7.48639V5.47805C20.4548 5.23644 20.2589 5.04055 20.0173 5.04055H18.9694C18.8634 4.67409 18.7176 4.3219 18.5332 3.9877L19.2742 3.24669C19.4451 3.07579 19.4451 2.79885 19.2742 2.62795L17.8541 1.20783C17.6833 1.03715 17.4063 1.03704 17.2354 1.20783L16.4943 1.9489C16.16 1.76449 15.8079 1.61859 15.4414 1.5126V0.464844C15.4414 0.223234 15.2456 0.0273438 15.0039 0.0273438H12.9956C12.754 0.0273438 12.5581 0.223234 12.5581 0.464844V1.51271C12.1916 1.6187 11.8394 1.76455 11.5052 1.94901L10.7642 1.20794C10.5933 1.03715 10.3164 1.03715 10.1455 1.20794L8.72539 2.62801C8.6433 2.71009 8.5972 2.82133 8.5972 2.93738C8.5972 3.05337 8.6433 3.16466 8.72539 3.24669L9.46646 3.98781C9.28205 4.32206 9.13609 4.67425 9.03016 5.04066H7.98235C7.74068 5.04066 7.54485 5.23655 7.54485 5.47816V7.4865C7.54485 7.72811 7.74068 7.924 7.98235 7.924H9.03016C9.09354 8.14319 9.17153 8.35718 9.26324 8.56543L3.26741 10.7803C3.26719 10.7804 3.26697 10.7804 3.26675 10.7805L3.26074 10.7827L3.26079 10.7829C3.16777 10.8173 3.08623 10.883 3.03346 10.9744L0.627973 15.1409C0.564153 15.2514 0.551739 15.3844 0.594121 15.5048C0.636504 15.6252 0.729364 15.7211 0.848254 15.7674L2.97489 16.5943V23.6242C2.97489 23.8074 3.08897 23.9711 3.26079 24.0346L13.8483 27.9456C13.8972 27.9637 13.9485 27.9727 13.9999 27.9727C14.0512 27.9727 14.1025 27.9637 14.1514 27.9456L24.7389 24.0346C24.9108 23.9711 25.0249 23.8074 25.0249 23.6242V16.5943L27.1515 15.7674C27.2705 15.7211 27.3633 15.6252 27.4057 15.5048C27.448 15.3844 27.4356 15.2514 27.3717 15.1408ZM13.9998 14.8404L4.64647 11.2036L8.75886 9.68445L8.72544 9.71786C8.5546 9.8887 8.5546 10.1657 8.72544 10.3365L10.1455 11.7567C10.2276 11.8388 10.3388 11.8849 10.4549 11.8849C10.5709 11.8849 10.6822 11.8388 10.7642 11.7568L11.5053 11.0157C11.8396 11.2001 12.1918 11.346 12.5582 11.4519V12.4998C12.5582 12.7414 12.7541 12.9373 12.9957 12.9373H15.004C15.2457 12.9373 15.4415 12.7414 15.4415 12.4998V11.4519C15.808 11.346 16.1602 11.2001 16.4944 11.0156L17.2355 11.7567C17.4063 11.9275 17.6833 11.9275 17.8542 11.7567L19.2743 10.3366C19.3563 10.2545 19.4024 10.1433 19.4024 10.0272C19.4024 9.91118 19.3563 9.79994 19.2743 9.71786L19.2409 9.6845L23.3532 11.2036L13.9998 14.8404ZM8.4199 7.049V5.91566H9.37086C9.57693 5.91566 9.75499 5.77188 9.79847 5.57047C9.90729 5.0663 10.1045 4.59058 10.3844 4.15641C10.4961 3.98327 10.4718 3.75566 10.3261 3.61003L9.65349 2.93738L10.4549 2.13604L11.1275 2.80864C11.2732 2.95433 11.5008 2.97861 11.6739 2.86688C12.108 2.58705 12.5837 2.38984 13.088 2.28096C13.2894 2.23748 13.4332 2.05937 13.4332 1.85336V0.902344H14.5665V1.85336C14.5665 2.05942 14.7103 2.23748 14.9117 2.28096C15.4158 2.38979 15.8916 2.58699 16.3258 2.86694C16.4989 2.97855 16.7265 2.95433 16.8722 2.80864L17.5448 2.13604L18.3462 2.93743L17.6736 3.60998C17.5279 3.75566 17.5037 3.98327 17.6153 4.15641C17.8951 4.59047 18.0923 5.06625 18.2013 5.57052C18.2447 5.77194 18.4228 5.91566 18.6289 5.91566H19.5798V7.049H18.6289C18.4228 7.049 18.2447 7.19277 18.2012 7.39424C18.0924 7.8983 17.8953 8.37408 17.6153 8.80835C17.5037 8.98155 17.5279 9.2091 17.6736 9.35479L18.3462 10.0273L17.5448 10.8287L16.8722 10.1561C16.7265 10.0104 16.4988 9.9861 16.3257 10.0978C15.8917 10.3777 15.416 10.5749 14.9117 10.6838C14.7103 10.7272 14.5665 10.9053 14.5665 11.1114V12.0623H13.4332V11.1114C13.4332 10.9053 13.2894 10.7272 13.0879 10.6837C12.5839 10.5749 12.1081 10.3778 11.6739 10.0978C11.5007 9.98621 11.2732 10.0105 11.1275 10.1561L10.4549 10.8287L9.65354 10.0273L10.3261 9.35479C10.4718 9.2091 10.4961 8.98155 10.3844 8.80835C10.1046 8.37419 9.90735 7.89835 9.79847 7.39419C9.75499 7.19277 9.57687 7.049 9.37086 7.049H8.4199ZM3.60357 11.7369L13.3659 15.5327L11.403 18.9325L1.64068 15.1367L3.60357 11.7369ZM3.84983 16.9345L11.4357 19.8841C11.4876 19.9043 11.5412 19.9139 11.5941 19.9139C11.7465 19.9139 11.893 19.8339 11.9732 19.6951L13.5623 16.9426V26.9072L3.84983 23.3194V16.9345ZM24.1498 23.3194L14.4373 26.9072V16.9427L16.0265 19.6951C16.1067 19.8339 16.2531 19.9139 16.4055 19.9139C16.4585 19.9139 16.5121 19.9043 16.5639 19.8841L24.1498 16.9344V23.3194ZM16.5966 18.9325L14.6337 15.5327L24.396 11.7369L26.3589 15.1367L16.5966 18.9325ZM13.9998 9.56468C15.6995 9.56468 17.0822 8.18196 17.0822 6.48233C17.0822 4.7827 15.6995 3.39992 13.9998 3.39992C12.3002 3.39992 10.9175 4.7827 10.9175 6.48233C10.9175 8.18196 12.3002 9.56468 13.9998 9.56468ZM13.9998 4.27492C15.217 4.27492 16.2072 5.26515 16.2072 6.48233C16.2072 7.69951 15.217 8.68968 13.9998 8.68968C12.7827 8.68968 11.7925 7.69951 11.7925 6.48233C11.7925 5.26515 12.7827 4.27492 13.9998 4.27492Z" fill="#4F90CC" stroke="#4F90CC" stroke-width="0.3"/>
</g>
<defs>
<clipPath id="clip0_189_57">
<rect width="28" height="28" fill="white"/>
</clipPath>
</defs>
</svg>
