<svg width="18" height="28" viewBox="0 0 18 28" fill="none" xmlns="http://www.w3.org/2000/svg">
<path d="M9 3.44531C6.84395 3.44531 5.08984 5.19941 5.08984 7.35547C5.08984 9.51152 6.84395 11.2656 9 11.2656C11.1561 11.2656 12.9102 9.51152 12.9102 7.35547C12.9102 5.19941 11.1561 3.44531 9 3.44531ZM9 10.4453C7.29627 10.4453 5.91016 9.0592 5.91016 7.35547C5.91016 5.65173 7.29627 4.26562 9 4.26562C10.7037 4.26562 12.0898 5.65173 12.0898 7.35547C12.0898 9.0592 10.7037 10.4453 9 10.4453Z" fill="#4F90CC"/>
<path d="M9 5.08594C7.74859 5.08594 6.73047 6.10405 6.73047 7.35547C6.73047 8.60688 7.74859 9.625 9 9.625C10.2514 9.625 11.2695 8.60688 11.2695 7.35547C11.2695 6.10405 10.2514 5.08594 9 5.08594ZM9 8.80469C8.20091 8.80469 7.55078 8.15456 7.55078 7.35547C7.55078 6.55638 8.20091 5.90625 9 5.90625C9.79909 5.90625 10.4492 6.55638 10.4492 7.35547C10.4492 8.15456 9.79909 8.80469 9 8.80469Z" fill="#4F90CC"/>
<path d="M17.5859 8.58594C17.3594 8.58594 17.1758 8.76952 17.1758 8.99609V22.1484H12.8281C12.4512 22.1484 12.1445 22.455 12.1445 22.832V22.9687H9.79297V22.832C9.79297 22.455 9.48634 22.1484 9.10938 22.1484H8.01562C7.63866 22.1484 7.33203 22.455 7.33203 22.832V22.9687H6.15625C5.92973 22.9687 5.74609 23.1523 5.74609 23.3789C5.74609 23.6054 5.92973 23.789 6.15625 23.789H7.33203V23.9257C7.33203 24.3027 7.63866 24.6093 8.01562 24.6093H9.10938C9.48634 24.6093 9.79297 24.3027 9.79297 23.9257V23.789H12.1445V27.5898C12.1411 27.8103 12.3342 28.0038 12.5547 27.9999H16.7656C17.4441 27.9999 17.9961 27.4479 17.9961 26.7695V8.99609C17.9961 8.76952 17.8125 8.58594 17.5859 8.58594ZM8.97266 23.789H8.15234V22.9687H8.97266V23.789ZM12.9648 22.9687H16.5957L12.9648 26.5996V22.9687ZM16.7656 27.1796H13.545L17.1758 23.5488V26.7695C17.1758 26.9957 16.9918 27.1796 16.7656 27.1796Z" fill="#4F90CC"/>
<path d="M16.7656 3.44531H14.8443C14.8488 3.40211 14.8515 3.35852 14.8515 3.31445C14.8515 2.98572 14.7235 2.67673 14.4911 2.44442L13.9111 1.8643C13.6787 1.63193 13.3697 1.50391 13.041 1.50396C12.7123 1.50396 12.4033 1.63198 12.171 1.86435L11.6609 2.37437C11.6197 2.41566 11.5569 2.42736 11.5085 2.4027C11.26 2.27675 11 2.16885 10.7357 2.08195C10.6789 2.06325 10.6407 2.01327 10.6407 1.95754V1.23047C10.6406 0.552016 10.0886 0 9.41016 0H8.58984C7.91134 0 7.35938 0.552016 7.35938 1.23047V1.95748C7.35938 2.01327 7.32115 2.06325 7.26422 2.0819C6.97005 2.17864 6.68382 2.30032 6.40978 2.44508L5.82905 1.86441C5.59663 1.63198 5.28765 1.50396 4.95898 1.50396C4.6303 1.50396 4.32127 1.63198 4.0889 1.86435L3.50883 2.44437C3.27641 2.67679 3.14844 2.98577 3.14844 3.31445C3.14844 3.35847 3.15112 3.40211 3.15566 3.44531H1.23438C0.555867 3.44531 0.00390625 3.99733 0.00390625 4.67578V26.7695C0.00390625 27.4479 0.555867 27.9999 1.23438 27.9999H10.6406C10.8672 27.9999 11.0508 27.8164 11.0508 27.5898C11.0508 27.3632 10.8672 27.1796 10.6406 27.1796H1.23438C1.00819 27.1796 0.824219 26.9957 0.824219 26.7695V4.67578C0.824219 4.44959 1.00819 4.26562 1.23438 4.26562H3.58993L4.0189 4.69459C4.06013 4.73588 4.07184 4.79855 4.04723 4.84706C3.92123 5.09551 3.81327 5.35549 3.72643 5.6198C3.70773 5.67667 3.65774 5.71484 3.60202 5.71484H2.875C2.19649 5.71484 1.64453 6.26686 1.64453 6.94531V7.76562C1.64453 8.44408 2.19649 8.99609 2.875 8.99609H3.60202C3.65774 8.99609 3.70778 9.03427 3.72643 9.09114C3.81338 9.35561 3.92128 9.61559 4.04723 9.86393C4.07184 9.91238 4.06013 9.97505 4.0189 10.0163L3.50883 10.5264C3.27641 10.7588 3.14844 11.0678 3.14844 11.3964C3.14844 11.7251 3.27646 12.0341 3.50883 12.2665L4.08884 12.8465C4.32127 13.0789 4.63025 13.2069 4.95892 13.2069C5.28759 13.2069 5.59658 13.0789 5.829 12.8465L6.33912 12.3365C6.38036 12.2952 6.44298 12.2835 6.49154 12.3082C6.73987 12.4341 6.99986 12.542 7.26422 12.6289C7.32115 12.6476 7.35932 12.6976 7.35932 12.7533V13.4804C7.35932 14.1588 7.91128 14.7108 8.58979 14.7108H9.4101C10.0886 14.7108 10.6406 14.1588 10.6406 13.4804V12.7533C10.6406 12.6976 10.6787 12.6476 10.7356 12.6289C10.9999 12.542 11.2599 12.4341 11.5084 12.3081C11.5569 12.2835 11.6195 12.2952 11.6608 12.3365L12.1708 12.8465C12.4032 13.0789 12.7122 13.2069 13.0409 13.2069C13.3696 13.2069 13.6786 13.0789 13.911 12.8465L14.491 12.2665C14.7234 12.0341 14.8514 11.7252 14.8514 11.3964C14.8514 11.0677 14.7234 10.7587 14.491 10.5264L13.981 10.0163C13.9397 9.97505 13.9281 9.91238 13.9527 9.86387C14.0786 9.61543 14.1865 9.35545 14.2734 9.09114C14.2921 9.03427 14.3421 8.99609 14.3978 8.99609H15.125C15.8035 8.99609 16.3555 8.44408 16.3555 7.76562V6.94531C16.3555 6.26686 15.8035 5.71484 15.125 5.71484H14.398C14.3422 5.71484 14.2922 5.67667 14.2736 5.6198C14.1867 5.35549 14.0788 5.09551 13.9528 4.84701C13.9282 4.7985 13.9399 4.73583 13.9811 4.69465L14.41 4.26562H16.7656C16.9918 4.26562 17.1758 4.44959 17.1758 4.67578V7.08203C17.1758 7.3086 17.3594 7.49219 17.5859 7.49219C17.8125 7.49219 17.9961 7.3086 17.9961 7.08203V4.67578C17.9961 3.99733 17.4441 3.44531 16.7656 3.44531ZM13.2211 5.21801C13.3284 5.42954 13.4203 5.65091 13.4942 5.8759C13.6238 6.2702 13.987 6.53516 14.3979 6.53516H15.125C15.3512 6.53516 15.5352 6.71912 15.5352 6.94531V7.76562C15.5352 7.99181 15.3512 8.17578 15.125 8.17578H14.398C13.987 8.17578 13.6239 8.44074 13.4943 8.83504C13.4203 9.06002 13.3285 9.2814 13.2212 9.49288C13.0353 9.85945 13.1076 10.3029 13.401 10.5964L13.9111 11.1065C13.9885 11.1839 14.0312 11.287 14.0312 11.3965C14.0312 11.506 13.9885 11.6091 13.911 11.6865L13.331 12.2666C13.2536 12.344 13.1506 12.3867 13.041 12.3867C12.9315 12.3867 12.8285 12.344 12.751 12.2665L12.2409 11.7564C11.9473 11.463 11.504 11.3907 11.1375 11.5766C10.9259 11.6839 10.7046 11.7758 10.4796 11.8497C10.0853 11.9794 9.82031 12.3425 9.82031 12.7535V13.4805C9.82031 13.7067 9.63634 13.8906 9.41016 13.8906H8.58984C8.36366 13.8906 8.17969 13.7067 8.17969 13.4805V12.7535C8.17969 12.3425 7.91473 11.9794 7.52043 11.8497C7.29534 11.7758 7.07402 11.6839 6.86259 11.5767C6.72702 11.5079 6.58095 11.4745 6.43581 11.4745C6.18857 11.4745 5.94401 11.5715 5.75911 11.7565L5.24898 12.2666C5.17155 12.344 5.06852 12.3867 4.95898 12.3867C4.84944 12.3867 4.74646 12.344 4.66897 12.2665L4.0889 11.6865C4.01141 11.6091 3.96875 11.506 3.96875 11.3965C3.96875 11.287 4.01141 11.1839 4.0889 11.1065L4.59902 10.5964C4.89248 10.3029 4.96472 9.85939 4.77889 9.49288C4.6717 9.28151 4.57977 9.06013 4.50578 8.83504C4.37617 8.44074 4.01299 8.17578 3.60207 8.17578H2.875C2.64881 8.17578 2.46484 7.99181 2.46484 7.76562V6.94531C2.46484 6.71912 2.64881 6.53516 2.875 6.53516H3.60202C4.01294 6.53516 4.37612 6.2702 4.50573 5.8759C4.57966 5.65091 4.67154 5.42959 4.77884 5.21806C4.96472 4.85155 4.89248 4.40809 4.59897 4.11452L4.0889 3.60445C4.01141 3.52702 3.96875 3.42398 3.96875 3.31445C3.96875 3.20491 4.01141 3.10188 4.0889 3.02444L4.66897 2.44437C4.74646 2.36693 4.84938 2.32427 4.95898 2.32427C5.06852 2.32427 5.17149 2.36693 5.24898 2.44442L6.05021 3.24559C6.1837 3.37909 6.39119 3.40419 6.55273 3.30635C6.85707 3.122 7.18268 2.97221 7.52043 2.86114C7.91473 2.73153 8.17969 2.3683 8.17969 1.95743V1.23047C8.17969 1.00428 8.36366 0.820312 8.58984 0.820312H9.41016C9.63634 0.820312 9.82031 1.00428 9.82031 1.23047V1.95748C9.82031 2.36846 10.0853 2.73159 10.4796 2.8612C10.7046 2.93519 10.9259 3.02701 11.1374 3.13425C11.5039 3.32019 11.9474 3.24789 12.2409 2.95444L12.751 2.44437C12.8285 2.36693 12.9315 2.32427 13.041 2.32427C13.1506 2.32427 13.2536 2.36687 13.331 2.44431L13.9111 3.02444C13.9885 3.10188 14.0312 3.20491 14.0312 3.31445C14.0312 3.42398 13.9885 3.52702 13.911 3.60445L13.401 4.11458C13.1075 4.40809 13.0353 4.85155 13.2211 5.21801Z" fill="#4F90CC"/>
<path d="M4.24219 22.1484H3.14844C2.77148 22.1484 2.46484 22.4551 2.46484 22.832V23.9258C2.46484 24.3027 2.77148 24.6094 3.14844 24.6094H4.24219C4.61915 24.6094 4.92578 24.3027 4.92578 23.9258V22.832C4.92578 22.4551 4.61915 22.1484 4.24219 22.1484ZM4.10547 23.7891H3.28516V22.9688H4.10547V23.7891Z" fill="#4F90CC"/>
<path d="M4.92578 19.5508C4.92578 19.1738 4.61915 18.8672 4.24219 18.8672H3.14844C2.77148 18.8672 2.46484 19.1738 2.46484 19.5508V20.6445C2.46484 21.0215 2.77148 21.3281 3.14844 21.3281H4.24219C4.61915 21.3281 4.92578 21.0215 4.92578 20.6445V19.5508ZM4.10547 20.5078H3.28516V19.6875H4.10547V20.5078Z" fill="#4F90CC"/>
<path d="M6.15625 20.5078H7.33203V20.6445C7.33203 21.0215 7.63866 21.3281 8.01562 21.3281H9.10938C9.48634 21.3281 9.79297 21.0215 9.79297 20.6445V20.5078H15.125C15.3516 20.5078 15.5352 20.3242 15.5352 20.0977C15.5352 19.8711 15.3516 19.6875 15.125 19.6875H9.79297V19.5508C9.79297 19.1738 9.48634 18.8672 9.10938 18.8672H8.01562C7.63866 18.8672 7.33203 19.1738 7.33203 19.5508V19.6875H6.15625C5.92973 19.6875 5.74609 19.8711 5.74609 20.0977C5.74609 20.3242 5.92973 20.5078 6.15625 20.5078ZM8.15234 19.6875H8.97266V20.5078H8.15234V19.6875Z" fill="#4F90CC"/>
<path d="M13.5391 15.5859H12.4453C12.0684 15.5859 11.7617 15.8926 11.7617 16.2695V16.4062H6.15625C5.92973 16.4062 5.74609 16.5898 5.74609 16.8164C5.74609 17.043 5.92973 17.2266 6.15625 17.2266H11.7617V17.3633C11.7617 17.7402 12.0684 18.0469 12.4453 18.0469H13.5391C13.916 18.0469 14.2227 17.7402 14.2227 17.3633V17.2266H15.125C15.3516 17.2266 15.5352 17.043 15.5352 16.8164C15.5352 16.5898 15.3516 16.4062 15.125 16.4062H14.2227V16.2695C14.2227 15.8926 13.916 15.5859 13.5391 15.5859ZM13.4023 17.2266H12.582V16.4062H13.4023V17.2266Z" fill="#4F90CC"/>
<path d="M4.92578 16.2695C4.92578 15.8926 4.61915 15.5859 4.24219 15.5859H3.14844C2.77148 15.5859 2.46484 15.8926 2.46484 16.2695V17.3633C2.46484 17.7402 2.77148 18.0469 3.14844 18.0469H4.24219C4.61915 18.0469 4.92578 17.7402 4.92578 17.3633V16.2695ZM4.10547 17.2266H3.28516V16.4062H4.10547V17.2266Z" fill="#4F90CC"/>
</svg>
