<svg width="28" height="28" viewBox="0 0 28 28" fill="none" xmlns="http://www.w3.org/2000/svg">
<g clip-path="url(#clip0_253_2557)">
<path d="M15.6287 27.8601H12.3711C11.6896 27.8601 11.1355 27.306 11.1355 26.6245V24.2109C10.3232 23.9833 9.54314 23.6599 8.80954 23.246L7.10294 24.9535C6.8697 25.187 6.55946 25.3155 6.22906 25.3155C5.89866 25.3155 5.58842 25.187 5.35518 24.9535L3.0519 22.6491C2.57058 22.1675 2.57058 21.3835 3.05162 20.9021L4.75906 19.1941C4.3427 18.4552 4.01902 17.6746 3.79418 16.8662H1.3831C0.701581 16.8662 0.147461 16.3121 0.147461 15.6306V12.37C0.147461 11.6885 0.701581 11.1343 1.3831 11.1343H3.7939C4.01986 10.3215 4.34326 9.54086 4.7585 8.80614L3.0519 7.09842C2.57058 6.61682 2.57058 5.83282 3.05162 5.3515L5.35518 3.0471C5.58842 2.81358 5.89866 2.68506 6.22906 2.68506C6.55946 2.68506 6.8697 2.81358 7.10294 3.0471L8.80898 4.75398C9.54286 4.33902 10.3227 4.01534 11.1355 3.7891V1.37578C11.1355 0.694257 11.6896 0.140137 12.3711 0.140137H15.6289C16.3105 0.140137 16.8646 0.694257 16.8646 1.37578V3.78938C17.6769 4.01702 18.4569 4.34042 19.1905 4.75426L20.8971 3.04682C21.1304 2.8133 21.4406 2.68478 21.771 2.68478C22.1014 2.68478 22.4117 2.8133 22.6449 3.04682L24.9482 5.35122C25.4295 5.83282 25.4295 6.61682 24.9485 7.09814L23.2413 8.80586C23.6563 9.54002 23.9799 10.3207 24.2059 11.1341H26.6167C27.2982 11.1341 27.8523 11.6882 27.8523 12.3697V15.6303C27.8523 16.3118 27.2982 16.8659 26.6167 16.8659H24.2059C23.9805 17.6749 23.6568 18.4555 23.241 19.1939L24.9482 20.9019C25.4295 21.3835 25.4295 22.1675 24.9485 22.6488L22.6449 24.9532C22.4117 25.1867 22.1014 25.3152 21.771 25.3152C21.4406 25.3152 21.1304 25.1867 20.8971 24.9532L19.1886 23.2438C18.4572 23.6579 17.6777 23.9819 16.8646 24.2103V26.6242C16.8643 27.306 16.3102 27.8601 15.6287 27.8601ZM8.74178 22.2999C8.81654 22.2999 8.89158 22.3198 8.95906 22.3607C9.79626 22.868 10.7035 23.2443 11.656 23.4795C11.8436 23.5257 11.9755 23.694 11.9755 23.8872V26.6245C11.9755 26.8426 12.153 27.0201 12.3711 27.0201H15.6289C15.8471 27.0201 16.0246 26.8426 16.0246 26.6245V23.8872C16.0246 23.6943 16.1562 23.526 16.3438 23.4795C17.2975 23.2435 18.2041 22.8663 19.0377 22.3587C19.204 22.2579 19.4165 22.2837 19.5531 22.4206L21.491 24.3596C21.6408 24.5091 21.9012 24.5091 22.051 24.3596L24.3543 22.0552C24.5083 21.9009 24.5083 21.65 24.354 21.4957L22.4181 19.559C22.2815 19.4223 22.2557 19.2098 22.3557 19.0446C22.8664 18.2004 23.2424 17.2929 23.4737 16.3465C23.5196 16.1587 23.6882 16.0262 23.8817 16.0262H26.617C26.8351 16.0262 27.0126 15.8487 27.0126 15.6306V12.37C27.0126 12.1519 26.8351 11.9743 26.617 11.9743H23.8817C23.6882 11.9743 23.5196 11.8419 23.4737 11.654C23.2407 10.7012 22.8647 9.7937 22.3562 8.95678C22.2557 8.7913 22.2809 8.5785 22.4181 8.44158L24.3543 6.50454C24.5083 6.35026 24.5083 6.09938 24.354 5.9451L22.051 3.64098C21.9012 3.49146 21.6408 3.49146 21.491 3.64098L19.5557 5.57746C19.4196 5.7141 19.2073 5.74014 19.041 5.6399C18.2038 5.13254 17.2966 4.75622 16.3441 4.52102C16.1565 4.47482 16.0246 4.30654 16.0246 4.11334V1.37578C16.0246 1.15766 15.8471 0.980137 15.6289 0.980137H12.3711C12.153 0.980137 11.9755 1.15766 11.9755 1.37578V4.11306C11.9755 4.30654 11.8431 4.4751 11.6552 4.52102C10.7035 4.7537 9.79626 5.13002 8.9599 5.63906C8.7933 5.73986 8.58106 5.71382 8.44442 5.57718L6.50906 3.6407C6.35926 3.49118 6.09886 3.49118 5.94906 3.6407L3.64578 5.9451C3.49178 6.09938 3.49178 6.35026 3.64606 6.50454L5.58198 8.4413C5.7189 8.57822 5.74438 8.79102 5.64386 8.9565C5.13482 9.79398 4.75878 10.7015 4.52638 11.6535C4.48046 11.8416 4.3119 11.9741 4.11842 11.9741H1.3831C1.16498 11.9741 0.987461 12.1516 0.987461 12.3697V15.6303C0.987461 15.8484 1.16498 16.0259 1.3831 16.0259H4.11842C4.3119 16.0259 4.48046 16.1584 4.52638 16.3465C4.7571 17.2918 5.13342 18.1996 5.64442 19.0443C5.74438 19.2095 5.7189 19.4221 5.58198 19.5587L3.64578 21.4957C3.49178 21.65 3.49178 21.9009 3.64606 22.0552L5.94906 24.3593C6.09886 24.5088 6.35926 24.5088 6.50906 24.3593L8.44442 22.4228C8.52534 22.3419 8.63286 22.2999 8.74178 22.2999Z" fill="#4F90CC" stroke="#4F90CC" stroke-width="0.3"/>
<path d="M9.08064 12.1716C8.8488 12.1716 8.66064 11.9838 8.66064 11.7516V9.42148C8.66064 9.00148 9.00225 8.66016 9.42197 8.66016H11.7521C11.984 8.66016 12.1721 8.84804 12.1721 9.08016C12.1721 9.31228 11.984 9.50016 11.7521 9.50016H9.50064V11.7516C9.50064 11.9838 9.31248 12.1716 9.08064 12.1716Z" fill="#4F90CC" stroke="#4F90CC" stroke-width="0.3"/>
<path d="M18.5783 19.3391H16.2481C16.0163 19.3391 15.8281 19.1512 15.8281 18.9191C15.8281 18.687 16.0163 18.4991 16.2481 18.4991H18.4996V16.2476C18.4996 16.0155 18.6878 15.8276 18.9196 15.8276C19.1514 15.8276 19.3396 16.0155 19.3396 16.2476V18.5778C19.3393 18.9975 18.998 19.3391 18.5783 19.3391Z" fill="#4F90CC" stroke="#4F90CC" stroke-width="0.3"/>
<path d="M18.9194 12.1716C18.6875 12.1716 18.4994 11.9838 18.4994 11.7516V9.50016H16.2479C16.016 9.50016 15.8279 9.31228 15.8279 9.08016C15.8279 8.84804 16.016 8.66016 16.2479 8.66016H18.578C18.9978 8.66016 19.3394 9.00176 19.3394 9.42148V11.7516C19.3394 11.9838 19.1512 12.1716 18.9194 12.1716Z" fill="#4F90CC" stroke="#4F90CC" stroke-width="0.3"/>
<path d="M11.7521 19.3391H9.42197C9.00225 19.3391 8.66064 18.9975 8.66064 18.5778V16.2476C8.66064 16.0155 8.8488 15.8276 9.08064 15.8276C9.31248 15.8276 9.50064 16.0155 9.50064 16.2476V18.4991H11.7521C11.984 18.4991 12.1721 18.687 12.1721 18.9191C12.1721 19.1512 11.984 19.3391 11.7521 19.3391Z" fill="#4F90CC" stroke="#4F90CC" stroke-width="0.3"/>
<path d="M17.2225 14.4196H10.7774C10.5456 14.4196 10.3574 14.2317 10.3574 13.9996C10.3574 13.7675 10.5456 13.5796 10.7774 13.5796H17.2225C17.4543 13.5796 17.6425 13.7675 17.6425 13.9996C17.6425 14.2317 17.4543 14.4196 17.2225 14.4196Z" fill="#4F90CC" stroke="#4F90CC" stroke-width="0.3"/>
</g>
<defs>
<clipPath id="clip0_253_2557">
<rect width="28" height="28" fill="white"/>
</clipPath>
</defs>
</svg>
