<svg width="28" height="28" viewBox="0 0 28 28" fill="none" xmlns="http://www.w3.org/2000/svg">
<g clip-path="url(#clip0_253_2515)">
<path d="M25.7984 10.9278C25.5173 9.83665 25.082 8.79512 24.5144 7.81972L25.7598 5.95158L22.0456 2.23735L20.1719 3.48278C19.2021 2.90966 18.1605 2.47983 17.0639 2.19878L16.623 0H11.3658L10.9249 2.19878C9.83382 2.47983 8.79229 2.91517 7.8169 3.48278L5.94876 2.23735L2.23453 5.95158L3.48546 7.82523C2.91235 8.79512 2.48251 9.83665 2.20147 10.9333L0.00268555 11.3741V16.6314L2.20147 17.0722C2.48251 18.1634 2.91786 19.2049 3.48546 20.1803L2.24004 22.0484L5.95427 25.7626L7.82241 24.5172C8.79229 25.0903 9.83382 25.5202 10.9305 25.8012L11.3713 28H16.6285L17.0694 25.8012C18.1605 25.5202 19.2021 25.0848 20.1775 24.5172L22.0456 25.7626L25.7598 22.0484L24.5144 20.1693C25.0875 19.1994 25.5173 18.1578 25.7984 17.0612L27.9972 16.6203V11.3631L25.7984 10.9278ZM27.0934 15.8874L25.0544 16.2952C24.8671 17.0447 24.4703 18.7254 23.4398 20.1913L24.5915 21.9217L21.9244 24.5889L20.194 23.4371C18.9596 24.2252 17.7142 24.7542 16.2924 25.0518L15.8846 27.0907H12.1098L11.702 25.0518C10.2526 24.7762 8.45063 23.8284 7.80036 23.4371L6.06999 24.5889L3.4028 21.9217L4.55455 20.1913C3.43036 18.4224 3.11074 16.9951 2.9399 16.2952L0.900934 15.8874V12.1126L2.9399 11.7048C2.95643 11.6001 3.2485 9.84767 4.55455 7.80319L3.4028 6.07282L6.06999 3.40563L7.80036 4.55737C8.26326 4.25979 9.81729 3.30093 11.702 2.94273L12.1098 0.903759H15.8846L16.2924 2.94273C17.5213 3.20173 19.3233 3.91262 20.194 4.55737L21.9244 3.40563L24.5915 6.07282L23.4398 7.80319C24.0184 8.67939 24.7569 10.1232 25.0544 11.7048L27.0934 12.1126V15.8874Z" fill="#4F90CC" stroke="#4F90CC" stroke-width="0.3"/>
<path d="M14.0001 4.96533C9.0184 4.96533 4.96802 9.01572 4.96802 13.9974C4.96802 19.5247 9.65213 23.0295 14.0001 23.0295C18.9818 23.0295 23.0322 18.9791 23.0322 13.9974C23.0322 9.01572 18.9818 4.96533 14.0001 4.96533ZM14.0001 22.1257C12.0162 22.1257 10.1922 21.4038 8.78144 20.219C9.4262 17.8935 11.5423 16.2568 14.0001 16.2568C16.4358 16.2568 18.574 17.9045 19.2188 20.2245C17.8025 21.4093 15.984 22.1257 14.0001 22.1257ZM11.7407 13.0937C11.7407 11.8482 12.7547 10.8343 14.0001 10.8343C15.2455 10.8343 16.2595 11.8482 16.2595 13.0937C16.2595 14.3391 15.2455 15.3531 14.0001 15.3531C12.7547 15.3531 11.7407 14.3391 11.7407 13.0937ZM19.9407 19.5247C19.2628 17.6565 17.7364 16.2237 15.8627 15.6396C16.6452 15.0665 17.1577 14.1407 17.1577 13.0937C17.1577 11.3523 15.7415 9.9305 13.9946 9.9305C12.2477 9.9305 10.8314 11.3468 10.8314 13.0937C10.8314 14.1352 11.3439 15.061 12.1265 15.6396C10.2473 16.2182 8.72633 17.6455 8.04851 19.5247C6.69839 18.0753 5.86627 16.1356 5.86627 14.0029C5.86627 9.5227 9.51437 5.8746 13.9946 5.8746C18.4748 5.8746 22.1284 9.51719 22.1284 13.9974C22.1284 16.1356 21.2908 18.0753 19.9407 19.5247Z" fill="#4F90CC" stroke="#4F90CC" stroke-width="0.3"/>
<path d="M14.4519 1.80762H13.5481V2.71138H14.4519V1.80762Z" fill="#4F90CC" stroke="#4F90CC" stroke-width="0.3"/>
<path d="M14.4519 25.2832H13.5481V26.187H14.4519V25.2832Z" fill="#4F90CC" stroke="#4F90CC" stroke-width="0.3"/>
<path d="M22.2977 5.05675L21.6587 5.6958L22.2977 6.33485L22.9368 5.6958L22.2977 5.05675Z" fill="#4F90CC" stroke="#4F90CC" stroke-width="0.3"/>
<path d="M5.69569 21.6593L5.05664 22.2983L5.69569 22.9374L6.33474 22.2983L5.69569 21.6593Z" fill="#4F90CC" stroke="#4F90CC" stroke-width="0.3"/>
<path d="M26.1896 13.5454H25.2859V14.4492H26.1896V13.5454Z" fill="#4F90CC" stroke="#4F90CC" stroke-width="0.3"/>
<path d="M2.71406 13.5454H1.8103V14.4492H2.71406V13.5454Z" fill="#4F90CC" stroke="#4F90CC" stroke-width="0.3"/>
<path d="M22.3012 21.6627L21.6621 22.3018L22.3012 22.9408L22.9402 22.3018L22.3012 21.6627Z" fill="#4F90CC" stroke="#4F90CC" stroke-width="0.3"/>
<path d="M5.69862 5.06017L5.05957 5.69922L5.69862 6.33827L6.33767 5.69922L5.69862 5.06017Z" fill="#4F90CC" stroke="#4F90CC" stroke-width="0.3"/>
</g>
<defs>
<clipPath id="clip0_253_2515">
<rect width="28" height="28" fill="white"/>
</clipPath>
</defs>
</svg>
