<svg width="110" height="150" viewBox="0 0 110 150" fill="none" xmlns="http://www.w3.org/2000/svg">
<path d="M21.0276 107.943C21.062 107.943 19.1362 111.829 17.4168 118.053C17.3709 118.214 17.3136 118.386 17.2448 118.569C17.1302 119.051 17.0041 119.555 16.8666 120.082C16.3851 122.008 15.8693 123.762 15.2847 125.309C13.5997 129.573 11.33 132.084 7.85675 131.74C3.90206 131.465 -0.293353 125.55 0.0161452 115.061C0.039071 114.901 0.0505254 114.729 0.0505254 114.546C0.119303 113.193 0.256861 111.76 0.463193 110.247C1.28852 104.779 3.24868 99.3459 5.31199 94.9785C5.77051 94.0386 6.22902 93.1559 6.68754 92.3306C7.19191 91.3906 7.67334 90.5309 8.13186 89.7514C10.0576 86.6221 11.5707 84.7995 11.5363 84.7995C11.5363 84.5931 15.9381 86.794 19.0674 90.3704C19.3426 90.6914 19.6062 91.0238 19.8584 91.3677C22.5407 95.0129 23.8819 99.9305 21.0276 107.943Z" fill="url(#paint0_linear_10905_23553)"/>
<g style="mix-blend-mode:multiply" opacity="0.2">
<path d="M21.0271 107.943C21.0615 107.943 19.1357 111.828 17.4163 118.053C17.3705 118.213 17.3132 118.385 17.2444 118.569C17.1297 119.05 17.0037 119.554 16.8661 120.082C16.3847 122.008 15.8688 123.761 15.2842 125.309C15.1811 124.243 16.6942 104.848 16.6942 104.848C10.3323 102.716 6.99657 98.3481 5.31152 94.9781C5.77004 94.0381 6.22855 93.1555 6.68707 92.3301C7.19144 91.3902 7.67287 90.5305 8.13139 89.751C11.5359 89.8885 16.2127 90.6795 19.8579 91.3672C22.5402 95.0124 23.8814 99.93 21.0271 107.943Z" fill="#808080"/>
</g>
<path d="M88.4632 107.943C88.4289 107.943 90.7329 112.723 92.5899 120.082C94.4125 127.373 96.8884 132.221 101.6 131.74C106.139 131.43 110.988 123.693 108.993 110.247C108.03 103.61 105.348 96.973 102.803 92.3306C100.259 87.5849 97.8857 84.8339 97.9201 84.7995C97.9201 84.5931 93.5184 86.794 90.4234 90.3704C87.2252 94.1188 85.3339 99.1739 88.4632 107.943Z" fill="url(#paint1_linear_10905_23553)"/>
<g style="mix-blend-mode:multiply" opacity="0.2">
<path d="M88.4636 107.943C88.4292 107.943 90.3206 111.828 92.0744 118.053C92.1203 118.213 92.1661 118.385 92.212 118.569C92.3495 119.05 92.4756 119.554 92.5903 120.082C93.0717 122.008 93.5875 123.761 94.2065 125.309C94.3097 124.243 92.7966 104.848 92.7966 104.848C99.1241 102.716 102.46 98.3481 104.145 94.9781C103.709 94.0381 103.262 93.1555 102.804 92.3301C102.299 91.3902 101.806 90.5305 101.325 89.751C97.9205 89.8885 93.278 90.6795 89.6328 91.3672C86.9505 95.0124 85.6094 99.93 88.4636 107.943Z" fill="#808080"/>
</g>
<path d="M32.4445 87.4814C32.4445 93.3275 28.6273 98.2794 23.3659 99.9988C22.0935 100.446 20.6835 100.652 19.2392 100.652C11.9832 100.652 6.06836 94.7718 6.06836 87.4814C6.06836 80.191 11.9832 74.3105 19.2392 74.3105C19.6977 74.3105 20.1448 74.3335 20.5804 74.3793C27.2518 75.0327 32.4445 80.6381 32.4445 87.4814Z" fill="url(#paint2_linear_10905_23553)"/>
<g style="mix-blend-mode:screen" opacity="0.1">
<path d="M23.3659 99.9988C22.0935 100.446 20.6835 100.652 19.2392 100.652C11.9832 100.652 6.06836 94.7718 6.06836 87.4814C6.06836 80.191 11.9832 74.3105 19.2392 74.3105C19.6977 74.3105 20.1448 74.3335 20.5804 74.3793C13.909 79.6752 11.6393 90.4044 23.2971 96.4912C23.469 97.8324 23.5034 99.0016 23.3659 99.9988Z" fill="#B3B3B3"/>
</g>
<path d="M77.0469 87.4814C77.0469 94.7718 82.9273 100.652 90.2177 100.652C97.5081 100.652 103.423 94.7718 103.423 87.4814C103.423 80.191 97.5081 74.3105 90.2177 74.3105C82.9273 74.3105 77.0469 80.191 77.0469 87.4814Z" fill="url(#paint3_linear_10905_23553)"/>
<g style="mix-blend-mode:screen" opacity="0.1">
<path d="M86.0907 99.9988C87.3975 100.446 88.773 100.652 90.2174 100.652C97.5078 100.652 103.423 94.7718 103.423 87.4814C103.423 80.191 97.5078 74.3105 90.2174 74.3105C89.7818 74.3105 89.3462 74.3335 88.9106 74.3793C95.582 79.6752 97.8517 90.4044 86.1595 96.4912C85.9876 97.8324 85.9532 99.0016 86.0907 99.9988Z" fill="#B3B3B3"/>
</g>
<path d="M65.5267 113.342C65.5267 119.291 60.6779 124.106 54.7287 124.106C48.7795 124.106 43.9307 119.291 43.9307 113.342C43.9307 107.358 48.7795 102.544 54.7287 102.544C60.6779 102.544 65.5267 107.358 65.5267 113.342Z" fill="#FF0000"/>
<path d="M87.6041 100.584C87.6041 102.338 87.4665 104.229 87.1914 106.258C87.1685 106.441 87.1456 106.625 87.1226 106.808C86.7788 109.181 86.2285 111.76 85.4032 114.546C78.663 137.896 67.8994 150 54.7285 150C41.5577 150 30.8284 137.896 24.0539 114.546C23.2629 111.76 22.7127 109.181 22.3344 106.808C22.3115 106.625 22.2886 106.441 22.2657 106.258C21.9906 104.229 21.853 102.338 21.853 100.584C21.8186 93.5686 23.6756 88.651 25.6014 85.4529C27.5271 82.2204 29.4873 80.7761 29.4873 80.7761C29.4873 80.7761 39.7695 76.6494 54.7285 76.6494C69.6876 76.6494 79.9698 80.7761 79.9698 80.7761C79.9698 80.7761 81.7924 82.0828 83.6494 85.0402C85.6095 88.204 87.6385 93.2591 87.6041 100.584Z" fill="url(#paint4_linear_10905_23553)"/>
<g style="mix-blend-mode:multiply" opacity="0.1">
<path d="M83.6496 85.0402C79.2822 88.8918 70.2036 94.4971 54.4192 94.4971C39.1507 94.4971 30.1409 89.27 25.6016 85.4529C27.5273 82.2204 29.4875 80.7761 29.4875 80.7761C29.4875 80.7761 39.7697 76.6494 54.7287 76.6494C69.6878 76.6494 79.97 80.7761 79.97 80.7761C79.97 80.7761 81.7926 82.0828 83.6496 85.0402Z" fill="#808080"/>
</g>
<path d="M66.4202 111.106C66.4202 117.537 61.1931 122.764 54.728 122.764C48.2974 122.764 43.0703 117.537 43.0703 111.106C43.0703 110.166 43.1735 109.249 43.3798 108.355C44.6178 103.231 49.2259 99.4141 54.728 99.4141C60.2302 99.4141 64.8383 103.231 66.0763 108.355C66.3056 109.249 66.4202 110.166 66.4202 111.106Z" fill="#4F90CC"/>
<g style="mix-blend-mode:screen" opacity="0.3">
<path d="M58.2359 106.945C59.6458 108.321 61.3996 108.837 62.1562 108.08C62.9127 107.323 62.3969 105.57 61.0213 104.16C59.6114 102.784 57.8576 102.268 57.101 103.025C56.3445 103.781 56.8603 105.535 58.2359 106.945Z" fill="#E6E6E6"/>
</g>
<g style="mix-blend-mode:screen" opacity="0.1">
<path d="M14.0473 82.8385C12.7749 84.3516 11.0899 85.005 10.2646 84.3172C9.43922 83.6295 9.78311 81.8413 11.0555 80.3282C12.3279 78.8151 14.0473 78.1617 14.8726 78.8494C15.698 79.5716 15.3197 81.3254 14.0473 82.8385Z" fill="#E6E6E6"/>
</g>
<g style="mix-blend-mode:screen" opacity="0.1">
<path d="M95.41 82.8385C96.6824 84.3516 98.3674 85.005 99.1927 84.3172C100.018 83.6295 99.6742 81.8413 98.4018 80.3282C97.1294 78.8151 95.4444 78.1617 94.619 78.8494C93.7937 79.5716 94.1376 81.3254 95.41 82.8385Z" fill="#E6E6E6"/>
</g>
<g opacity="0.6">
<path d="M87.1226 106.808C86.0566 107.083 77.1155 109.456 68.6215 110.35C68.6903 112.276 68.5871 117.606 65.0451 121.423C62.6035 124.002 59.1646 125.309 54.7285 125.309C50.3268 125.309 46.8535 124.002 44.4463 121.423C40.8699 117.606 40.7667 112.276 40.8699 110.35C32.3759 109.456 23.4348 107.083 22.3344 106.808C22.3115 106.625 22.2886 106.441 22.2656 106.258C22.3115 106.258 22.3459 106.258 22.3688 106.258C22.472 106.292 32.1008 108.94 41.145 109.869C41.2825 109.903 41.3857 110.006 41.3857 110.144C41.2825 111.76 41.2138 117.228 44.8246 121.045C47.1286 123.521 50.4643 124.793 54.7285 124.793C58.9927 124.793 62.3284 123.521 64.6668 121.045C68.2432 117.228 68.1745 111.76 68.0713 110.144C68.0713 110.006 68.1745 109.903 68.312 109.869C77.3562 108.94 86.9851 106.292 87.0882 106.258C87.1341 106.258 87.1685 106.258 87.1914 106.258C87.1685 106.441 87.1455 106.625 87.1226 106.808Z" fill="#808080"/>
</g>
<g style="mix-blend-mode:multiply" opacity="0.2">
<path d="M87.6036 100.584C87.6036 104.539 86.9846 109.181 85.4027 114.546C78.6626 137.896 67.8989 150 54.7281 150C41.5572 150 30.828 137.896 24.0534 114.546C22.5059 109.181 21.8869 104.539 21.8525 100.584C24.6724 110.729 33.6822 135.454 54.7281 135.454C75.7739 135.454 84.7838 110.763 87.6036 100.584Z" fill="#808080"/>
</g>
<g style="mix-blend-mode:multiply" opacity="0.6">
<path d="M17.4163 118.053C17.3704 118.214 17.3131 118.386 17.2443 118.569C9.05983 113.411 1.97578 114.58 0.015625 115.061C0.0385508 114.901 0.0500052 114.729 0.0500052 114.546C1.01289 114.305 2.86988 113.995 5.34586 114.099C8.2689 114.236 12.6362 115.096 17.4163 118.053Z" fill="#808080"/>
</g>
<g style="mix-blend-mode:multiply" opacity="0.6">
<path d="M92.0742 118.053C92.1201 118.214 92.1659 118.386 92.2118 118.569C100.431 113.411 107.48 114.58 109.44 115.061C109.44 114.901 109.44 114.729 109.44 114.546C108.478 114.305 106.621 113.995 104.11 114.099C101.187 114.236 96.8542 115.096 92.0742 118.053Z" fill="#808080"/>
</g>
<path d="M33.3727 8.66274C30.9655 9.0754 29.3148 10.0039 28.3175 10.7604C24.2253 14.3369 21.543 17.9821 19.8235 21.3521C15.7657 29.1928 16.8317 35.4859 16.8317 35.5547C17.0381 36.6895 16.3159 37.7555 15.1811 37.9619C15.0664 37.9848 14.9403 37.9962 14.8028 37.9962C13.8399 37.9962 12.9802 37.3085 12.8082 36.3112C12.7739 36.1393 11.8797 31.2905 13.9775 24.6878C14.5621 22.7965 15.4562 20.63 16.7629 18.326C18.0697 16.0219 19.7891 13.5803 22.0932 11.1043C22.0932 11.1043 22.0932 11.0929 22.0932 11.0699C22.2078 10.9553 22.3224 10.8292 22.4371 10.6917C23.3999 9.66001 26.1854 6.6682 28.799 3.53884C29.097 3.17202 29.418 2.8396 29.7618 2.54157C32.8568 -0.415856 36.7083 -0.82852 38.6685 1.50991C40.8694 4.08906 37.6025 7.94058 33.3727 8.66274Z" fill="url(#paint5_linear_10905_23553)"/>
<path d="M70.7882 1.50985C72.989 -1.0693 77.4252 -0.312751 80.6577 3.53878C83.3056 6.66814 86.0567 9.65995 87.0196 10.6916C87.1342 10.8292 87.2488 10.9553 87.3635 11.0699C87.3864 11.0928 87.3979 11.1043 87.3979 11.1043C91.9715 16.0562 94.31 20.905 95.4792 24.6878C97.5769 31.2904 96.7172 36.1392 96.6828 36.3111C96.4765 37.3084 95.6168 37.9962 94.6539 37.9962C94.5392 37.9962 94.4131 37.9847 94.2756 37.9618C93.1752 37.7555 92.4186 36.6894 92.6249 35.5546C92.6593 35.417 94.8258 22.7276 81.1391 10.7604C80.1762 10.0038 78.5256 9.07535 76.1184 8.66268C71.8542 7.94052 68.6217 4.089 70.7882 1.50985Z" fill="url(#paint6_linear_10905_23553)"/>
<path d="M15.3878 51.8202C15.3534 55.7061 15.1127 59.7296 14.5624 63.134L10.8485 61.9648C10.0575 61.7241 9.47292 61.0707 9.33536 60.2798C8.64759 56.6002 8.30371 52.7487 8.20054 49.3442C8.0286 45.6646 8.13176 42.5696 8.20054 40.9878C8.23493 40.2312 8.61321 39.5434 9.26659 39.1652C11.2267 38.0303 14.8032 35.9326 14.8032 35.9326C14.8032 35.9326 15.4909 43.5669 15.3878 51.8202Z" fill="#4F90CC"/>
<g style="mix-blend-mode:screen" opacity="0.3">
<path d="M15.3878 51.8202C12.6367 51.2012 10.2639 50.3415 8.20054 49.3442C8.0286 45.6646 8.13176 42.5696 8.20054 40.9878C8.23493 40.2312 8.61321 39.5434 9.26659 39.1652C11.2267 38.0303 14.8032 35.9326 14.8032 35.9326C14.8032 35.9326 15.4909 43.5669 15.3878 51.8202Z" fill="#B3B3B3"/>
</g>
<path d="M94.8945 63.134L98.6429 61.9648C99.3994 61.7241 99.984 61.0707 100.156 60.2798C101.6 52.6455 101.394 44.0827 101.291 40.9878C101.256 40.2312 100.844 39.5434 100.19 39.1652C98.2302 38.0303 94.6538 35.9326 94.6538 35.9326C94.6538 35.9326 93.1751 52.5079 94.8945 63.134Z" fill="#4F90CC"/>
<path d="M54.7283 88.1692C22.1966 88.1692 6.51543 66.2292 15.2501 34.3509C18.689 21.6615 30.3468 15.953 40.0787 13.4082C40.3539 13.3395 40.6404 13.2592 40.9385 13.1675C48.504 11.3105 54.6939 11.3105 54.7283 11.3105C54.7627 11.3105 60.987 11.3105 68.5525 13.1675C68.8276 13.2592 69.1142 13.3395 69.4123 13.4082C79.1442 15.953 90.7676 21.6615 94.2409 34.3509C102.941 66.2292 87.26 88.1692 54.7283 88.1692Z" fill="url(#paint7_linear_10905_23553)"/>
<g style="mix-blend-mode:screen" opacity="0.4">
<path d="M54.7287 75.4799C46.3723 75.4799 38.119 73.1415 32.1698 69.0836C25.3608 64.4068 21.75 57.9073 21.75 50.273C21.75 43.7392 23.4007 38.3402 26.5644 34.6262C29.2811 31.3937 33.0295 29.6055 37.0873 29.6055C38.0846 29.6055 39.1163 29.7086 40.1135 29.9494C48.8482 32.0127 54.6943 32.0471 54.7287 32.0471C54.7975 32.0471 60.6436 32.0127 69.3439 29.9494C70.3411 29.7086 71.3728 29.6055 72.4045 29.6055C76.4279 29.6055 80.1763 31.3937 82.9274 34.6262C86.0568 38.3402 87.7074 43.7392 87.7074 50.273C87.7074 57.9073 84.131 64.4068 77.322 69.0836C71.3384 73.1415 63.1195 75.4799 54.7287 75.4799Z" fill="#B3B3B3"/>
</g>
<path d="M86.8474 50.2733C86.8474 34.5577 77.2529 28.9524 69.5499 30.7749C60.6432 32.907 54.7284 32.907 54.7284 32.907C54.7284 32.907 48.8479 32.907 39.9069 30.7749C32.2038 28.9524 22.6094 34.5577 22.6094 50.2733C22.6094 66.0233 38.6689 74.6205 54.7284 74.6205C70.7879 74.6205 86.8474 66.0233 86.8474 50.2733Z" fill="url(#paint8_linear_10905_23553)"/>
<g style="mix-blend-mode:screen" opacity="0.1">
<path d="M77.3563 60.7617H77.2876H65.0452H65.0108H64.9764H52.7341H52.6653H52.6309H40.3886H40.3542H40.3198H28.0774H28.0086H27.9743H27.3896C27.5043 60.9222 27.6189 61.0827 27.7335 61.2432H27.9743H28.0086H28.0774H40.3198H40.3542H40.3886H52.6309H52.6653H52.7341H64.9764H65.0108H65.0452H77.2876H77.3563H77.3907H81.7237C81.8383 61.0827 81.953 60.9222 82.0676 60.7617H77.3907H77.3563Z" fill="#B3B3B3"/>
<path d="M77.3559 58.2852H77.2871H65.0448H65.0104H64.976H52.7336H52.6649H52.6305H40.3881H40.3537H40.3194H28.077H28.0082H27.9738H26.0137C26.1054 58.4456 26.1856 58.6061 26.2544 58.7666H27.9738H28.0082H28.077H40.3194H40.3537H40.3881H52.6305H52.6649H52.7336H64.976H65.0104H65.0448H77.2871H77.3559H77.3903H83.202C83.2937 58.6061 83.3739 58.4456 83.4427 58.2852H77.3903H77.3559Z" fill="#B3B3B3"/>
<path d="M77.3564 55.8096H77.2877H65.0453H65.0109H64.9765H52.7342H52.6654H52.631H40.3887H40.3543H40.3199H28.0775H28.0088H27.9744H25.1201C25.166 55.993 25.2118 56.1649 25.2577 56.3254H27.9744H28.0088H28.0775H40.3199H40.3543H40.3887H52.631H52.6654H52.7342H64.9765H65.0109H65.0453H77.2877H77.3564H77.3909H84.1998C84.2686 56.1649 84.3259 55.993 84.3717 55.8096H77.3909H77.3564Z" fill="#B3B3B3"/>
<path d="M77.3559 53.3672H77.2871H65.0448H65.0104H64.976H52.7336H52.6648H52.6305H40.3881H40.3537H40.3193H28.077H28.0082H27.9738H24.5693C24.5923 53.5277 24.6152 53.6881 24.6381 53.8486H27.9738H28.0082H28.077H40.3193H40.3537H40.3881H52.6305H52.6648H52.7336H64.976H65.0104H65.0448H77.2871H77.3559H77.3903H84.8182C84.8641 53.6881 84.8985 53.5277 84.9214 53.3672H77.3903H77.3559Z" fill="#B3B3B3"/>
<path d="M77.3564 50.8916H77.2876H65.0452H65.0109H64.9765H52.7341H52.6653H52.631H40.3886H40.3542H40.3198H28.0775H28.0087H27.9743H24.3291C24.3291 51.0521 24.3406 51.2126 24.3635 51.3731H27.9743H28.0087H28.0775H40.3198H40.3542H40.3886H52.631H52.6653H52.7341H64.9765H65.0109H65.0452H77.2876H77.3564H77.3908H85.1282C85.1282 51.2126 85.1282 51.0521 85.1282 50.8916H77.3908H77.3564Z" fill="#B3B3B3"/>
<path d="M77.3568 59.5234H77.288H65.0457H65.0113H64.9769H52.7346H52.6658H52.6314H40.389H40.3546H40.3203H28.0779H28.0091H27.9747H26.668C26.7597 59.6839 26.8514 59.8444 26.9431 60.0049H27.9747H28.0091H28.0779H40.3203H40.3546H40.389H52.6314H52.6658H52.7346H64.9769H65.0113H65.0457H77.288H77.3568H77.3912H82.5495C82.6412 59.8444 82.7329 59.6839 82.8246 59.5234H77.3912H77.3568Z" fill="#B3B3B3"/>
<path d="M77.3569 57.0469H77.2881H65.0457H65.0114H64.977H52.7346H52.6658H52.6315H40.3891H40.3547H40.3203H28.078H28.0092H27.9748H25.5332C25.5791 57.2074 25.6364 57.3793 25.7051 57.5627H27.9748H28.0092H28.078H40.3203H40.3547H40.3891H52.6315H52.6658H52.7346H64.977H65.0114H65.0457H77.2881H77.3569H77.3913H83.7532C83.822 57.3793 83.8907 57.2074 83.9595 57.0469H77.3913H77.3569Z" fill="#B3B3B3"/>
<path d="M77.3566 54.5713H77.2878H65.0455H65.0111H64.9767H52.7343H52.6655H52.6312H40.3888H40.3544H40.32H28.0777H28.0089H27.9745H24.7764C24.8222 54.7547 24.8681 54.9266 24.9139 55.0871H27.9745H28.0089H28.0777H40.32H40.3544H40.3888H52.6312H52.6655H52.7343H64.9767H65.0111H65.0455H77.2878H77.3566H77.391H84.5782C84.6241 54.9266 84.6585 54.7547 84.6814 54.5713H77.391H77.3566Z" fill="#B3B3B3"/>
<path d="M77.356 52.1299H77.2872H65.0448H65.0104H64.976H52.7337H52.6649H52.6305H40.3882H40.3538H40.3194H28.077H28.0083H27.9739H24.3975C24.4204 52.2904 24.4433 52.4508 24.4662 52.6113H27.9739H28.0083H28.077H40.3194H40.3538H40.3882H52.6305H52.6649H52.7337H64.976H65.0104H65.0448H77.2872H77.356H77.3904H85.0246C85.0476 52.4508 85.059 52.2904 85.059 52.1299H77.3904H77.356Z" fill="#B3B3B3"/>
<path d="M77.3561 65.6787H77.2873H65.045H65.0106H64.9762H52.7338H52.6651H52.6307H40.3883H40.3539H40.3195H31.9287C32.135 65.8621 32.3414 66.0341 32.5477 66.1945H40.3195H40.3539H40.3883H52.6307H52.6651H52.7338H64.9762H65.0106H65.045H76.909C77.0466 66.0799 77.1727 65.9767 77.2873 65.885C77.3103 65.8621 77.3332 65.8507 77.3561 65.8507C77.3561 65.8277 77.3676 65.8163 77.3905 65.8163C77.4363 65.7704 77.4937 65.7246 77.5624 65.6787H77.3905H77.3561Z" fill="#B3B3B3"/>
<path d="M77.3563 63.2373H77.2876H65.0452H65.0108H64.9764H52.7341H52.6653H52.6309H40.3886H40.3542H40.3198H29.3154C29.4759 63.3978 29.6249 63.5583 29.7625 63.7187H40.3198H40.3542H40.3886H52.6309H52.6653H52.7341H64.9764H65.0108H65.0452H77.2876H77.3563H77.3907H79.6948C79.8553 63.5583 80.0043 63.3978 80.1418 63.2373H77.3907H77.3563Z" fill="#B3B3B3"/>
<path d="M77.3568 64.4404H77.2881H65.0457H65.0113H64.9769H52.7346H52.6658H52.6314H40.3891H40.3547H40.3203H30.5195C30.7029 64.6238 30.8863 64.7958 31.0697 64.9563H40.3203H40.3547H40.3891H52.6314H52.6658H52.7346H64.9769H65.0113H65.0457H77.2881H77.3568H77.3912H78.4229C78.6063 64.7958 78.7783 64.6238 78.9387 64.4404H77.3912H77.3568Z" fill="#B3B3B3"/>
<path d="M77.3567 61.999H77.288H65.0456H65.0112H64.9768H52.7345H52.6657H52.6313H40.389H40.3546H40.3202H28.2842C28.4217 62.1595 28.5478 62.32 28.6624 62.4805H40.3202H40.3546H40.389H52.6313H52.6657H52.7345H64.9768H65.0112H65.0456H77.288H77.3567H77.3911H80.7956C80.9332 62.32 81.0593 62.1595 81.1739 61.999H77.3911H77.3567Z" fill="#B3B3B3"/>
<path d="M74.571 32.3906H70.238C70.1463 32.4136 70.0431 32.4365 69.9285 32.4594C69.2866 32.6199 68.6561 32.7574 68.0371 32.8721H76.256C75.7058 32.6657 75.1441 32.5053 74.571 32.3906Z" fill="#B3B3B3"/>
<path d="M65.0111 70.6309H64.9767H52.7343H52.6655H52.6312H41.0078C41.4893 70.7913 41.9822 70.9518 42.4865 71.1123H52.6312H52.6655H52.7343H64.9767H65.0111H65.0455H66.9712C67.4756 70.9518 67.98 70.7913 68.4843 70.6309H65.0455H65.0111Z" fill="#B3B3B3"/>
<path d="M65.0111 68.1543H64.9767H52.7344H52.6656H52.6312H40.3888H40.3544H40.3201H35.54C35.8381 68.3148 36.1476 68.4753 36.4685 68.6357H40.3201H40.3544H40.3888H52.6312H52.6656H52.7344H64.9767H65.0111H65.0455H73.0237C73.3217 68.4753 73.6197 68.3148 73.9178 68.1543H65.0455H65.0111Z" fill="#B3B3B3"/>
<path d="M65.0111 69.3926H64.9767H52.7344H52.6656H52.6312H40.3889H40.3545H40.3201H37.9473C38.3141 69.5531 38.6923 69.7135 39.0821 69.874H40.3201H40.3545H40.3889H52.6312H52.6656H52.7344H64.9767H65.0111H65.0455H70.4101C70.777 69.7135 71.1438 69.5531 71.5106 69.3926H65.0455H65.0111Z" fill="#B3B3B3"/>
<path d="M65.0103 66.917H64.9759H52.7336H52.6648H52.6304H40.388H40.3537H40.3193H33.5791C33.602 66.917 33.6135 66.9285 33.6135 66.9514C33.8428 67.1119 34.0835 67.2609 34.3357 67.3984H40.3193H40.3537H40.388H52.6304H52.6648H52.7336H64.9759H65.0103H65.0447H75.155C75.3842 67.2609 75.6135 67.1119 75.8427 66.9514C75.8657 66.9285 75.8771 66.917 75.8771 66.917H65.0447H65.0103Z" fill="#B3B3B3"/>
<path d="M65.0104 34.1103H65.0448H77.2872H77.3559H77.3903H78.5595C78.3074 33.9499 78.0552 33.7894 77.803 33.6289H77.3903H77.3559H77.2872H65.0448H65.0104H64.976H64.1851C62.97 33.8352 61.8696 33.9957 60.8838 34.1103H64.976H65.0104Z" fill="#B3B3B3"/>
<path d="M52.665 71.8691H52.6307H45.2715C46.1197 72.0525 46.968 72.213 47.8163 72.3506H52.6307H52.665H52.7338H61.6749C62.5231 72.213 63.3599 72.0525 64.1852 71.8691H52.7338H52.665Z" fill="#B3B3B3"/>
<path d="M40.3546 36.5859H40.389H52.6313H52.6657H52.7345H64.9768H65.0112H65.0456H77.288H77.3568H77.3912H81.2083C81.0707 36.4255 80.9217 36.265 80.7612 36.1045H77.3912H77.3568H77.288H65.0456H65.0112H64.9768H52.7345H52.6657H52.6313H40.389H40.3546H40.3202H28.6968C28.5593 36.265 28.4217 36.4255 28.2842 36.5859H40.3202H40.3546Z" fill="#B3B3B3"/>
<path d="M40.3543 34.1103H40.3887H48.6076C47.5989 33.9957 46.4984 33.8352 45.3063 33.6289H40.3887H40.3543H40.32H31.6884C31.4133 33.7894 31.1496 33.9499 30.8975 34.1103H40.32H40.3543Z" fill="#B3B3B3"/>
<path d="M40.3545 35.3476H40.3889H52.6313H52.6657H52.7344H64.9768H65.0112H65.0456H77.2879H77.3567H77.3911H80.0734C79.89 35.1872 79.7066 35.0267 79.5232 34.8662H77.3911H77.3567H77.2879H65.0456H65.0112H64.9768H52.7344H52.6657H52.6313H40.3889H40.3545H40.3201H29.9348C29.7514 35.0267 29.5794 35.1872 29.4189 35.3476H40.3201H40.3545Z" fill="#B3B3B3"/>
<path d="M40.3538 32.8721H40.3882H41.4542C41.1104 32.8033 40.755 32.7345 40.3882 32.6657C40.3653 32.6657 40.3538 32.6543 40.3538 32.6313C40.3309 32.6313 40.3194 32.6313 40.3194 32.6313C40.0443 32.5855 39.7807 32.5282 39.5285 32.4594C39.4138 32.4365 39.3107 32.4136 39.219 32.3906H34.9204C34.3473 32.5053 33.7856 32.6657 33.2354 32.8721H40.3194H40.3538Z" fill="#B3B3B3"/>
<path d="M28.0085 48.9318H28.0773H40.3196H40.354H40.3884H52.6307H52.6651H52.7339H64.9763H65.0107H65.045H77.2874H77.3562H77.3906H85.128C85.128 48.7484 85.1165 48.5765 85.0936 48.416H77.3906H77.3562H77.2874H65.045H65.0107H64.9763H52.7339H52.6651H52.6307H40.3884H40.354H40.3196H28.0773H28.0085H27.9741H24.3633C24.3633 48.5765 24.3633 48.7484 24.3633 48.9318H27.9741H28.0085Z" fill="#B3B3B3"/>
<path d="M28.0084 46.4553H28.0772H40.3196H40.3539H40.3883H52.6307H52.6651H52.7338H64.9762H65.0106H65.045H77.2873H77.3561H77.3905H84.9216C84.8987 46.2948 84.8758 46.1229 84.8528 45.9395H77.3905H77.3561H77.2873H65.045H65.0106H64.9762H52.7338H52.6651H52.6307H40.3883H40.3539H40.3196H28.0772H28.0084H27.974H24.6039C24.581 46.1229 24.5581 46.2948 24.5352 46.4553H27.974H28.0084Z" fill="#B3B3B3"/>
<path d="M28.0088 43.9795H28.0776H40.32H40.3543H40.3887H52.6311H52.6655H52.7343H64.9766H65.011H65.0454H77.2878H77.3565H77.3909H84.5094C84.4864 43.819 84.452 43.6585 84.4062 43.498H77.3909H77.3565H77.2878H65.0454H65.011H64.9766H52.7343H52.6655H52.6311H40.3887H40.3543H40.32H28.0776H28.0088H27.9744H25.0514C25.0285 43.6585 24.9941 43.819 24.9482 43.9795H27.9744H28.0088Z" fill="#B3B3B3"/>
<path d="M28.0085 41.5039H28.0773H40.3197H40.3541H40.3885H52.6308H52.6652H52.734H64.9763H65.0107H65.0451H77.2875H77.3562H77.3906H83.8213C83.7755 41.3434 83.7182 41.1829 83.6494 41.0225H77.3906H77.3562H77.2875H65.0451H65.0107H64.9763H52.734H52.6652H52.6308H40.3885H40.3541H40.3197H28.0773H28.0085H27.9742H25.8077C25.7618 41.1829 25.7045 41.3434 25.6357 41.5039H27.9742H28.0085Z" fill="#B3B3B3"/>
<path d="M28.0089 39.0617H28.0777H40.3201H40.3544H40.3888H52.6312H52.6656H52.7344H64.9767H65.0111H65.0455H77.2879H77.3566H77.391H82.79C82.6983 38.8783 82.6066 38.7064 82.5149 38.5459H77.391H77.3566H77.2879H65.0455H65.0111H64.9767H52.7344H52.6656H52.6312H40.3888H40.3544H40.3201H28.0777H28.0089H27.9745H26.9429C26.8512 38.7064 26.7709 38.8783 26.7021 39.0617H27.9745H28.0089Z" fill="#B3B3B3"/>
<path d="M28.009 47.6936H28.0778H40.3202H40.3546H40.3889H52.6313H52.6657H52.7345H64.9768H65.0112H65.0456H77.288H77.3567H77.3911H85.0598C85.0369 47.5102 85.0139 47.3382 84.991 47.1777H77.3911H77.3567H77.288H65.0456H65.0112H64.9768H52.7345H52.6657H52.6313H40.3889H40.3546H40.3202H28.0778H28.009H27.9746H24.467C24.4441 47.3382 24.4326 47.5102 24.4326 47.6936H27.9746H28.009Z" fill="#B3B3B3"/>
<path d="M28.0083 45.2178H28.0771H40.3195H40.3539H40.3882H52.6306H52.665H52.7338H64.9761H65.0105H65.0449H77.2873H77.356H77.3904H84.7496C84.7267 45.0573 84.7037 44.8968 84.6808 44.7363H77.3904H77.356H77.2873H65.0449H65.0105H64.9761H52.7338H52.665H52.6306H40.3882H40.3539H40.3195H28.0771H28.0083H27.974H24.8102C24.7873 44.8968 24.7529 45.0573 24.707 45.2178H27.974H28.0083Z" fill="#B3B3B3"/>
<path d="M28.0089 42.7412H28.0777H40.32H40.3544H40.3888H52.6312H52.6656H52.7343H64.9767H65.0111H65.0455H77.2878H77.3566H77.391H84.1999C84.1541 42.5807 84.1082 42.4202 84.0624 42.2598H77.391H77.3566H77.2878H65.0455H65.0111H64.9767H52.7343H52.6656H52.6312H40.3888H40.3544H40.32H28.0777H28.0089H27.9745H25.3954C25.3495 42.4202 25.3037 42.5807 25.2578 42.7412H27.9745H28.0089Z" fill="#B3B3B3"/>
<path d="M28.0086 40.3H28.0773H40.3197H40.3541H40.3885H52.6308H52.6652H52.734H64.9763H65.0107H65.0451H77.2875H77.3563H77.3907H83.3743C83.3055 40.1166 83.2253 39.9447 83.1336 39.7842H77.3907H77.3563H77.2875H65.0451H65.0107H64.9763H52.734H52.6652H52.6308H40.3885H40.3541H40.3197H28.0773H28.0086H27.9742H26.3235C26.2547 39.9447 26.186 40.1166 26.1172 40.3H27.9742H28.0086Z" fill="#B3B3B3"/>
<path d="M28.0086 37.8244H28.0774H40.3198H40.3542H40.3886H52.6309H52.6653H52.7341H64.9764H65.0108H65.0452H77.2876H77.3563H77.3907H82.0676C81.953 37.641 81.8498 37.4691 81.7581 37.3086H77.3907H77.3563H77.2876H65.0452H65.0108H64.9764H52.7341H52.6653H52.6309H40.3886H40.3542H40.3198H28.0774H28.0086H27.9743H27.7335C27.6189 37.4691 27.5043 37.641 27.3896 37.8244H27.9743H28.0086Z" fill="#B3B3B3"/>
<path d="M28.0087 50.1348H28.0775H40.3198H40.3542H40.3886H52.631H52.6653H52.7341H64.9765H65.0109H65.0452H77.2876H77.3564H77.3908H85.1626C85.1626 49.9743 85.1511 49.8138 85.1282 49.6533H77.3908H77.3564H77.2876H65.0452H65.0109H64.9765H52.7341H52.6653H52.631H40.3886H40.3542H40.3198H28.0775H28.0087H27.9743H24.3291C24.3291 49.8138 24.3291 49.9743 24.3291 50.1348H27.9743H28.0087Z" fill="#B3B3B3"/>
</g>
<path style="mix-blend-mode:screen" opacity="0.3" d="M80.2102 55.6032V47.2468C80.2102 43.2921 76.9777 40.0596 72.9886 40.0596H71.957C67.9679 40.0596 64.7354 43.2921 64.7354 47.2468V55.6032C64.7354 59.5923 67.9679 62.7905 71.957 62.7905H72.9886C76.9777 62.7905 80.2102 59.5923 80.2102 55.6032Z" fill="url(#paint9_radial_10905_23553)"/>
<path style="mix-blend-mode:screen" opacity="0.3" d="M44.7552 55.6032V47.2468C44.7552 43.2921 41.5226 40.0596 37.5335 40.0596H36.4675C32.4784 40.0596 29.2803 43.2921 29.2803 47.2468V55.6032C29.2803 59.5923 32.4784 62.7905 36.4675 62.7905H37.5335C41.5226 62.7905 44.7552 59.5923 44.7552 55.6032Z" fill="url(#paint10_radial_10905_23553)"/>
<path d="M37.1216 60.4179H36.8809C34.1298 60.4179 31.8945 58.1826 31.8945 55.4315V47.4534C31.8945 44.6679 34.1298 42.4326 36.8809 42.4326H37.1216C39.8727 42.4326 42.1079 44.6679 42.1079 47.4534V55.4315C42.1079 58.1826 39.8727 60.4179 37.1216 60.4179Z" fill="#67A7E2"/>
<path d="M72.335 60.4179H72.5757C75.3612 60.4179 77.5964 58.1826 77.5964 55.4315V47.4534C77.5964 44.6679 75.3612 42.4326 72.5757 42.4326H72.335C69.5839 42.4326 67.3486 44.6679 67.3486 47.4534V55.4315C67.3486 58.1826 69.5839 60.4179 72.335 60.4179Z" fill="#67A7E2"/>
<g style="mix-blend-mode:multiply" opacity="0.2">
<path d="M69.4126 13.4082L64.2887 22.4525C62.7412 25.2036 59.8182 26.923 56.6888 26.923H52.8029C49.6391 26.923 46.7161 25.2036 45.1686 22.4525L40.0791 13.4082C40.3542 13.3395 40.6408 13.2592 40.9388 13.1675C48.5043 11.3105 54.6943 11.3105 54.7287 11.3105C54.763 11.3105 60.9874 11.3105 68.5529 13.1675C68.828 13.2592 69.1146 13.3395 69.4126 13.4082Z" fill="#808080"/>
</g>
<path d="M68.5526 13.1675L63.5662 22.0398C62.1563 24.5158 59.5427 26.0633 56.6885 26.0633H52.8026C49.9483 26.0633 47.3004 24.5158 45.9248 22.0398L40.9385 13.1675C48.504 11.3105 54.6939 11.3105 54.7283 11.3105C54.7627 11.3105 60.987 11.3105 68.5526 13.1675Z" fill="#4F90CC"/>
<g style="mix-blend-mode:screen" opacity="0.3">
<path d="M66.971 13.8549L64.6326 18.0159C56.7232 15.0241 48.6763 15.196 43.5868 15.815L42.4863 13.8549C49.2609 12.3762 54.6943 12.3418 54.7287 12.3418C54.7975 12.3418 60.2309 12.3762 66.971 13.8549Z" fill="#B3B3B3"/>
</g>
<g style="mix-blend-mode:screen" opacity="0.1">
<path d="M84.4748 43.8767C52.2183 36.0705 33.1326 48.2097 25.0169 55.5345C24.5698 53.9526 24.3291 52.1988 24.3291 50.273C24.3291 37.7899 30.7254 32.1846 37.0873 32.1846C37.9126 32.1846 38.7379 32.2534 39.5289 32.4597C48.5387 34.5918 54.4879 34.5918 54.7287 34.5918C54.9694 34.5918 60.4716 34.5918 68.8624 32.7004C69.2063 32.6316 69.5616 32.5514 69.9284 32.4597C70.7538 32.2534 71.5791 32.1846 72.4044 32.1846C76.0152 32.1846 79.6948 34.0072 82.1364 37.9275C83.1681 39.5437 83.959 41.5039 84.4748 43.8767Z" fill="#B3B3B3"/>
</g>
<g style="mix-blend-mode:screen" opacity="0.3">
<path d="M94.0691 51.8202C96.8202 51.2012 99.2274 50.3415 101.291 49.3442C101.428 45.6646 101.36 42.5696 101.291 40.9878C101.256 40.2312 100.844 39.5434 100.19 39.1652C98.2302 38.0303 94.6538 35.9326 94.6538 35.9326C94.6538 35.9326 93.966 43.5669 94.0691 51.8202Z" fill="#B3B3B3"/>
</g>
<g style="mix-blend-mode:screen" opacity="0.1">
<path d="M33.3724 8.66274C30.9652 9.0754 29.3145 10.0039 28.3172 10.7605C24.225 14.3369 21.5427 17.9821 19.8232 21.3521C24.9815 6.0492 36.433 6.80576 34.6448 3.0574C33.6475 0.95969 30.9996 1.50991 29.7616 2.54157C32.8565 -0.415856 36.7081 -0.82852 38.6682 1.50991C40.8691 4.08906 37.6022 7.94058 33.3724 8.66274Z" fill="#B3B3B3"/>
</g>
<g style="mix-blend-mode:screen" opacity="0.1">
<path d="M76.1184 8.66274C78.5256 9.0754 80.1762 10.0039 81.1391 10.7605C85.2658 14.3369 87.9137 17.9821 89.6675 21.3521C84.5092 6.0492 73.0578 6.80576 74.846 3.0574C75.8433 0.95969 78.4912 1.50991 79.7292 2.54157C76.5998 -0.415856 72.7827 -0.82852 70.7882 1.50991C68.6217 4.08906 71.8542 7.94058 76.1184 8.66274Z" fill="#B3B3B3"/>
</g>
<defs>
<linearGradient id="paint0_linear_10905_23553" x1="21.377" y1="136.122" x2="-3.93407" y2="134.257" gradientUnits="userSpaceOnUse">
<stop offset="0.008" stop-color="#8A8A8A"/>
<stop offset="1" stop-color="#E6E6E6"/>
</linearGradient>
<linearGradient id="paint1_linear_10905_23553" x1="46.8069" y1="87.3202" x2="69.1832" y2="64.2859" gradientUnits="userSpaceOnUse">
<stop offset="0.008" stop-color="#8A8A8A"/>
<stop offset="1" stop-color="#E6E6E6"/>
</linearGradient>
<linearGradient id="paint2_linear_10905_23553" x1="5.43664" y1="74.3133" x2="26.7352" y2="73.8061" gradientUnits="userSpaceOnUse">
<stop offset="0.008" stop-color="#1D3351"/>
<stop offset="1" stop-color="#00002C"/>
</linearGradient>
<linearGradient id="paint3_linear_10905_23553" x1="100.113" y1="111.216" x2="69.4797" y2="97.2116" gradientUnits="userSpaceOnUse">
<stop offset="0.008" stop-color="#1D3351"/>
<stop offset="1" stop-color="#00002C"/>
</linearGradient>
<linearGradient id="paint4_linear_10905_23553" x1="-2.84801" y1="142.999" x2="16.8088" y2="64.8885" gradientUnits="userSpaceOnUse">
<stop offset="0.008" stop-color="#8A8A8A"/>
<stop offset="1" stop-color="#E6E6E6"/>
</linearGradient>
<linearGradient id="paint5_linear_10905_23553" x1="66.003" y1="17.9993" x2="42.2272" y2="54.4155" gradientUnits="userSpaceOnUse">
<stop offset="0.008" stop-color="#1D3351"/>
<stop offset="1" stop-color="#00002C"/>
</linearGradient>
<linearGradient id="paint6_linear_10905_23553" x1="98.9136" y1="-17.767" x2="123.381" y2="19.9214" gradientUnits="userSpaceOnUse">
<stop offset="0.008" stop-color="#1D3351"/>
<stop offset="1" stop-color="#00002C"/>
</linearGradient>
<linearGradient id="paint7_linear_10905_23553" x1="15.8939" y1="86.3682" x2="19.7109" y2="6.38162" gradientUnits="userSpaceOnUse">
<stop offset="0.008" stop-color="#8A8A8A"/>
<stop offset="1" stop-color="#E6E6E6"/>
</linearGradient>
<linearGradient id="paint8_linear_10905_23553" x1="74.2677" y1="33.0394" x2="69.43" y2="79.2399" gradientUnits="userSpaceOnUse">
<stop offset="0.008" stop-color="#1D3351"/>
<stop offset="1" stop-color="#00002C"/>
</linearGradient>
<radialGradient id="paint9_radial_10905_23553" cx="0" cy="0" r="1" gradientUnits="userSpaceOnUse" gradientTransform="translate(72.468 51.4271) scale(7.37155 7.37155)">
<stop offset="0.008" stop-color="#6ACFFF"/>
<stop offset="1"/>
</radialGradient>
<radialGradient id="paint10_radial_10905_23553" cx="0" cy="0" r="1" gradientUnits="userSpaceOnUse" gradientTransform="translate(37.0026 51.4271) scale(7.3712 7.37121)">
<stop offset="0.008" stop-color="#6ACFFF"/>
<stop offset="1"/>
</radialGradient>
</defs>
</svg>
