<svg width="28" height="28" viewBox="0 0 28 28" fill="none" xmlns="http://www.w3.org/2000/svg">
<g clip-path="url(#clip0_189_49)">
<path d="M25.4878 16.6355H16.3466C17.6643 15.4002 18.4466 13.6296 18.4466 11.7767C18.4466 8.15314 15.4819 5.18844 11.8584 5.18844C8.23485 5.18844 5.27014 8.15314 5.27014 11.7767C5.27014 15.2355 7.98779 18.2826 11.6937 18.3649V21.9061H10.7054L10.4172 19.7649C10.4172 19.6002 10.2525 19.4355 10.0878 19.3943C9.22308 19.1884 8.39955 18.859 7.65838 18.4061C7.49367 18.3237 7.32896 18.3237 7.16426 18.4473L5.43485 19.8061L3.78779 18.159L5.14661 16.4296C5.27014 16.3061 5.27014 16.1002 5.18779 15.9355C4.69367 15.1943 4.36426 14.3708 4.19955 13.5061C4.15838 13.3414 4.03485 13.2178 3.82896 13.1767L1.64661 12.9296V10.6237L3.82896 10.3767C3.99367 10.3767 4.15838 10.212 4.19955 10.0473C4.40543 9.18255 4.73485 8.35902 5.18779 7.61785C5.27014 7.45314 5.27014 7.28844 5.14661 7.12373L3.78779 5.39432L5.43485 3.74726L7.16426 5.10608C7.28779 5.22961 7.49367 5.22961 7.65838 5.14726C8.39955 4.65314 9.22308 4.32373 10.0878 4.15902C10.2525 4.11785 10.376 3.99432 10.4172 3.78844L10.7054 1.64726H13.0113L13.2584 3.82961C13.2996 3.99432 13.4231 4.15902 13.5878 4.2002C14.4525 4.40608 15.276 4.7355 16.0172 5.18844C16.1819 5.27079 16.3466 5.27079 16.5113 5.14726L18.2407 3.78844L19.8878 5.4355L18.529 7.16491C18.4054 7.28844 18.4054 7.49432 18.4878 7.65902C18.9407 8.4002 19.3113 9.22373 19.476 10.0884C19.5172 10.2531 19.6407 10.3767 19.8466 10.4178L22.029 10.6649V12.9708L19.8466 13.2178C19.6819 13.2178 19.5172 13.3826 19.476 13.5473C19.3525 14.1649 19.1466 14.7414 18.8584 15.2767C18.776 15.4826 18.8584 15.7296 19.0643 15.812C19.2701 15.8943 19.5172 15.812 19.5996 15.6061C19.8466 15.0708 20.0525 14.5355 20.2172 13.959L22.4819 13.712C22.6878 13.6708 22.8525 13.5061 22.8525 13.3002V10.2943C22.8525 10.0884 22.6878 9.92373 22.4819 9.88255L20.2172 9.6355C20.0113 8.85314 19.7231 8.15314 19.3113 7.49432L20.7113 5.72373C20.8348 5.55902 20.8348 5.31197 20.6701 5.18844L18.529 2.96491C18.3643 2.8002 18.1584 2.8002 17.9937 2.92373L16.2231 4.32373C15.5643 3.91197 14.8231 3.62373 14.0819 3.41785L13.7937 1.15314C13.7525 0.988436 13.5878 0.82373 13.3819 0.82373H10.3348C10.129 0.82373 9.96426 0.988436 9.92308 1.19432L9.67602 3.45902C8.93485 3.66491 8.19367 3.95314 7.53485 4.36491L5.76426 2.96491C5.59955 2.84138 5.35249 2.84138 5.22896 3.00608L3.08779 5.14726C2.92308 5.31197 2.92308 5.51785 3.04661 5.68255L4.44661 7.45314C4.03485 8.11197 3.74661 8.85314 3.54073 9.59432L1.23485 9.88255C1.02896 9.92373 0.864258 10.0884 0.864258 10.2943V13.3414C0.864258 13.5473 1.02896 13.712 1.23485 13.7531L3.49955 14.0002C3.70543 14.7414 3.99367 15.4826 4.40543 16.1414L3.00543 17.912C2.88191 18.0767 2.88191 18.3237 3.04661 18.4473L5.18779 20.5884C5.35249 20.7531 5.55838 20.7531 5.72308 20.6296L7.49367 19.2296C8.15249 19.6414 8.89367 19.9296 9.63485 20.1355L9.8819 22.4002C9.92308 22.6061 10.0878 22.7708 10.2937 22.7708H11.6525V25.5296C11.6525 26.4355 12.3937 27.1767 13.2996 27.1767H25.4878C26.3937 27.1767 27.1348 26.4355 27.1348 25.5296V18.2826C27.1348 17.3767 26.3937 16.6355 25.4878 16.6355ZM7.74073 15.8943C6.67014 14.8237 6.05249 13.3414 6.05249 11.8178C6.05249 8.64726 8.64661 6.05314 11.8172 6.05314C14.9878 6.05314 17.5819 8.64726 17.5819 11.8178C17.5819 13.3414 16.9643 14.8237 15.8937 15.8943C15.8937 14.7414 14.9466 13.8355 13.7937 13.8355H13.4231L13.1348 12.9708C14.1231 12.1473 13.9172 10.9943 13.9584 10.912C14.3701 10.2531 14.4937 9.6355 14.6172 9.18255C14.9054 7.82373 12.8466 6.46491 11.8996 7.82373C11.076 7.7002 10.3348 7.82373 9.75838 8.15314C9.38779 8.4002 9.14073 8.72961 9.05838 9.05902C8.85249 10.0061 9.1819 10.6649 9.34661 10.912V11.2002C9.34661 12.0237 9.79955 12.7649 10.4996 13.1767L10.2113 13.7943H9.79955C8.68779 13.7943 7.7819 14.7414 7.74073 15.8943ZM11.6937 12.6826C10.8701 12.6826 10.2113 12.0237 10.2113 11.2002V10.8708L10.5407 10.2531H12.6819L13.1348 10.912V11.2002C13.1348 12.0237 12.476 12.6826 11.6937 12.6826ZM12.7231 14.2473L11.8584 15.1943L10.9937 14.2473L11.3231 13.4649C11.6937 13.5061 12.0643 13.5061 12.4348 13.3826L12.7231 14.2473ZM9.8819 9.8002C9.84073 9.6355 9.8819 9.42961 9.92308 9.22373C10.0054 8.89432 10.7878 8.35902 12.0643 8.64726C12.2701 8.68844 12.476 8.60608 12.5584 8.4002C12.929 7.57667 13.9584 8.44138 13.876 8.97667C13.7937 9.30608 13.7113 9.6355 13.5878 10.0061C13.4643 9.88255 13.3407 9.47079 12.8878 9.47079H10.5407C10.2113 9.42961 10.0054 9.55314 9.8819 9.8002ZM11.8172 17.5826C10.6231 17.5826 9.51132 17.212 8.56426 16.5531V15.8943C8.56426 15.1943 9.14073 14.6178 9.84073 14.6178H10.2113L11.529 16.059C11.6937 16.2237 11.9819 16.2237 12.1466 16.059L13.4643 14.6178H13.8348C14.5348 14.6178 15.1113 15.1943 15.1113 15.8943V16.5531C15.0701 16.5943 15.029 16.5943 14.9878 16.6355C14.6172 16.6355 13.2172 16.6355 13.2996 16.6355C12.6819 16.6355 12.1054 17.0061 11.8172 17.5826ZM26.3113 25.5296C26.3113 25.9826 25.9407 26.3531 25.4878 26.3531H13.2996C12.8466 26.3531 12.476 25.9826 12.476 25.5296C12.476 22.3178 12.476 20.4237 12.476 18.2826C12.476 17.8296 12.8466 17.459 13.2996 17.459H25.4878C25.9407 17.459 26.3113 17.8296 26.3113 18.2826V25.5296Z" fill="white" stroke="white" stroke-width="0.3"/>
<path d="M24.6235 19.5179H17.8294C17.6647 19.0237 17.2118 18.6943 16.6765 18.6943C16.1412 18.6943 15.6882 19.0237 15.5235 19.5179H14.1647C13.9176 19.5179 13.7529 19.6826 13.7529 19.9296C13.7529 20.1767 13.9176 20.3414 14.1647 20.3414H15.5235C15.6882 20.8355 16.1412 21.1649 16.6765 21.1649C17.2118 21.1649 17.6647 20.8355 17.8294 20.3414H24.6235C24.8706 20.3414 25.0353 20.1767 25.0353 19.9296C25.0353 19.6826 24.8706 19.5179 24.6235 19.5179ZM16.6765 20.3414C16.4706 20.3414 16.2647 20.1767 16.2647 19.9296C16.2647 19.7237 16.4294 19.5179 16.6765 19.5179C16.8823 19.5179 17.0882 19.6826 17.0882 19.9296C17.0882 20.1355 16.8823 20.3414 16.6765 20.3414Z" fill="white" stroke="white" stroke-width="0.3"/>
<path d="M24.6235 23.471H23.2647C23.1 22.9769 22.647 22.6475 22.1118 22.6475C21.5765 22.6475 21.1235 22.9769 20.9588 23.471H14.1647C13.9176 23.471 13.7529 23.6357 13.7529 23.8828C13.7529 24.1298 13.9176 24.2945 14.1647 24.2945H20.9588C21.1235 24.7886 21.5765 25.118 22.1118 25.118C22.647 25.118 23.1 24.7886 23.2647 24.2945H24.6235C24.8706 24.2945 25.0353 24.1298 25.0353 23.8828C25.0353 23.6357 24.8706 23.471 24.6235 23.471ZM22.1118 24.2945C21.9059 24.2945 21.7 24.1298 21.7 23.8828C21.7 23.6769 21.8647 23.471 22.1118 23.471C22.3176 23.471 22.5235 23.6357 22.5235 23.8828C22.5235 24.1298 22.3588 24.2945 22.1118 24.2945Z" fill="white" stroke="white" stroke-width="0.3"/>
</g>
<defs>
<clipPath id="clip0_189_49">
<rect width="28" height="28" fill="white"/>
</clipPath>
</defs>
</svg>
