<svg width="24" height="24" viewBox="0 0 24 24" fill="none" xmlns="http://www.w3.org/2000/svg">
<path d="M23.3608 8.8077L16.2699 1.71007C15.8577 1.2975 15.2927 1.09117 14.7277 1.09106C14.1624 1.09096 13.5971 1.2973 13.1847 1.71007L0.639205 14.2675C0.226892 14.6802 0 15.2282 0 15.8115C0 16.3949 0.225307 16.9414 0.644012 17.3604L5.52805 22.1324C6.04049 22.633 6.71697 22.9092 7.43395 22.9092H11.1041C11.8259 22.9092 12.5061 22.6298 13.0206 22.1217L23.3608 11.8959C23.7731 11.4832 24 10.9351 24 10.3518C24 9.76855 23.7731 9.22042 23.3608 8.8077ZM11.4881 20.5697C11.3832 20.6731 11.2505 20.7274 11.1041 20.7274H7.43395C7.28852 20.7274 7.15695 20.6741 7.05258 20.5718L2.18184 15.8183L7.84305 10.1571L14.8919 17.2064L11.4881 20.5697Z" fill="#5A5A5A"/>
</svg>
