<svg width="28" height="28" viewBox="0 0 28 28" fill="none" xmlns="http://www.w3.org/2000/svg">
<g clip-path="url(#clip0_142_291)">
<path d="M27.372 15.1408L24.9665 10.9743C24.9137 10.883 24.8321 10.8173 24.7391 10.7829L24.7391 10.7827L18.7367 8.56532C18.8283 8.35707 18.9064 8.14308 18.9697 7.92389H20.0175C20.2592 7.92389 20.455 7.728 20.455 7.48639V5.47805C20.455 5.23644 20.2592 5.04055 20.0175 5.04055H18.9696C18.8637 4.67409 18.7178 4.3219 18.5334 3.9877L19.2745 3.24669C19.4453 3.07579 19.4453 2.79885 19.2745 2.62795L17.8543 1.20783C17.6836 1.03715 17.4066 1.03704 17.2357 1.20783L16.4946 1.9489C16.1603 1.76449 15.8081 1.61859 15.4417 1.5126V0.464844C15.4417 0.223234 15.2459 0.0273438 15.0042 0.0273438H12.9958C12.7542 0.0273438 12.5583 0.223234 12.5583 0.464844V1.51271C12.1919 1.6187 11.8396 1.76455 11.5055 1.94901L10.7644 1.20794C10.5936 1.03715 10.3166 1.03715 10.1458 1.20794L8.72563 2.62801C8.64355 2.71009 8.59744 2.82133 8.59744 2.93738C8.59744 3.05337 8.64355 3.16466 8.72563 3.24669L9.4667 3.98781C9.2823 4.32206 9.13634 4.67425 9.03041 5.04066H7.98259C7.74093 5.04066 7.54509 5.23655 7.54509 5.47816V7.4865C7.54509 7.72811 7.74093 7.924 7.98259 7.924H9.03041C9.09379 8.14319 9.17177 8.35718 9.26348 8.56543L3.26765 10.7803C3.26744 10.7804 3.26722 10.7804 3.267 10.7805L3.26098 10.7827L3.26104 10.7829C3.16801 10.8173 3.08648 10.883 3.0337 10.9744L0.628217 15.1409C0.564397 15.2514 0.551983 15.3844 0.594366 15.5048C0.636748 15.6252 0.729608 15.7211 0.848498 15.7674L2.97513 16.5943V23.6242C2.97513 23.8074 3.08921 23.9711 3.26104 24.0346L13.8485 27.9456C13.8975 27.9637 13.9488 27.9727 14.0001 27.9727C14.0514 27.9727 14.1028 27.9637 14.1517 27.9456L24.7392 24.0346C24.911 23.9711 25.0251 23.8074 25.0251 23.6242V16.5943L27.1517 15.7674C27.2707 15.7211 27.3636 15.6252 27.4059 15.5048C27.4482 15.3844 27.4358 15.2514 27.372 15.1408ZM14.0001 14.8404L4.64671 11.2036L8.7591 9.68445L8.72569 9.71786C8.55484 9.8887 8.55484 10.1657 8.72569 10.3365L10.1458 11.7567C10.2278 11.8388 10.3391 11.8849 10.4551 11.8849C10.5712 11.8849 10.6825 11.8388 10.7645 11.7568L11.5056 11.0157C11.8398 11.2001 12.1921 11.346 12.5584 11.4519V12.4998C12.5584 12.7414 12.7543 12.9373 12.9959 12.9373H15.0042C15.2459 12.9373 15.4417 12.7414 15.4417 12.4998V11.4519C15.8083 11.346 16.1605 11.2001 16.4946 11.0156L17.2357 11.7567C17.4066 11.9275 17.6836 11.9275 17.8544 11.7567L19.2745 10.3366C19.3566 10.2545 19.4027 10.1433 19.4027 10.0272C19.4027 9.91118 19.3566 9.79994 19.2745 9.71786L19.2411 9.6845L23.3534 11.2036L14.0001 14.8404ZM8.42015 7.049V5.91566H9.37111C9.57717 5.91566 9.75523 5.77188 9.79871 5.57047C9.90754 5.0663 10.1047 4.59058 10.3847 4.15641C10.4963 3.98327 10.472 3.75566 10.3263 3.61003L9.65373 2.93738L10.4551 2.13604L11.1277 2.80864C11.2734 2.95433 11.501 2.97861 11.6742 2.86688C12.1082 2.58705 12.5839 2.38984 13.0882 2.28096C13.2896 2.23748 13.4334 2.05937 13.4334 1.85336V0.902344H14.5667V1.85336C14.5667 2.05942 14.7105 2.23748 14.9119 2.28096C15.416 2.38979 15.8918 2.58699 16.326 2.86694C16.4992 2.97855 16.7267 2.95433 16.8724 2.80864L17.5451 2.13604L18.3464 2.93743L17.6739 3.60998C17.5282 3.75566 17.5039 3.98327 17.6155 4.15641C17.8954 4.59047 18.0926 5.06625 18.2015 5.57052C18.245 5.77194 18.4231 5.91566 18.6291 5.91566H19.5801V7.049H18.6291C18.423 7.049 18.2449 7.19277 18.2014 7.39424C18.0927 7.8983 17.8955 8.37408 17.6155 8.80835C17.5039 8.98155 17.5282 9.2091 17.6739 9.35479L18.3464 10.0273L17.545 10.8287L16.8724 10.1561C16.7267 10.0104 16.4991 9.9861 16.326 10.0978C15.892 10.3777 15.4162 10.5749 14.9119 10.6838C14.7105 10.7272 14.5667 10.9053 14.5667 11.1114V12.0623H13.4334V11.1114C13.4334 10.9053 13.2896 10.7272 13.0882 10.6837C12.5841 10.5749 12.1083 10.3778 11.6741 10.0978C11.501 9.98621 11.2734 10.0105 11.1277 10.1561L10.4551 10.8287L9.65379 10.0273L10.3263 9.35479C10.472 9.2091 10.4963 8.98155 10.3847 8.80835C10.1048 8.37419 9.90759 7.89835 9.79871 7.39419C9.75523 7.19277 9.57712 7.049 9.37111 7.049H8.42015ZM3.60382 11.7369L13.3661 15.5327L11.4032 18.9325L1.64092 15.1367L3.60382 11.7369ZM3.85008 16.9345L11.4359 19.8841C11.4878 19.9043 11.5415 19.9139 11.5944 19.9139C11.7468 19.9139 11.8932 19.8339 11.9734 19.6951L13.5626 16.9426V26.9072L3.85008 23.3194V16.9345ZM24.1501 23.3194L14.4376 26.9072V16.9427L16.0267 19.6951C16.1069 19.8339 16.2534 19.9139 16.4058 19.9139C16.4587 19.9139 16.5124 19.9043 16.5642 19.8841L24.1501 16.9344V23.3194ZM16.5969 18.9325L14.6339 15.5327L24.3963 11.7369L26.3592 15.1367L16.5969 18.9325ZM14.0001 9.56468C15.6997 9.56468 17.0824 8.18196 17.0824 6.48233C17.0824 4.7827 15.6997 3.39992 14.0001 3.39992C12.3004 3.39992 10.9177 4.7827 10.9177 6.48233C10.9177 8.18196 12.3004 9.56468 14.0001 9.56468ZM14.0001 4.27492C15.2173 4.27492 16.2074 5.26515 16.2074 6.48233C16.2074 7.69951 15.2173 8.68968 14.0001 8.68968C12.7829 8.68968 11.7927 7.69951 11.7927 6.48233C11.7927 5.26515 12.7829 4.27492 14.0001 4.27492Z" fill="white" stroke="white" stroke-width="0.3"/>
</g>
<defs>
<clipPath id="clip0_142_291">
<rect width="28" height="28" fill="white"/>
</clipPath>
</defs>
</svg>
