<svg width="28" height="28" viewBox="0 0 28 28" fill="none" xmlns="http://www.w3.org/2000/svg">
<g clip-path="url(#clip0_142_365)">
<path d="M24.7333 1.86667C24.7333 0.8372 23.8961 0 22.8666 0H5.13327C4.1038 0 3.2666 0.8372 3.2666 1.86667V26.1333C3.2666 27.1628 4.1038 28 5.13327 28H16.7999C17.443 28 18.0263 27.7382 18.4491 27.3159L24.0496 21.7163C24.4719 21.2931 24.7333 20.7097 24.7333 20.0667V1.86667ZM16.7999 27.0667H5.13327C4.61853 27.0667 4.19993 26.6481 4.19993 26.1333V1.86667C4.19993 1.35193 4.61853 0.933333 5.13327 0.933333H22.8666C23.3813 0.933333 23.7999 1.35193 23.7999 1.86667V20.0667C23.7999 20.8385 23.1718 21.4667 22.3999 21.4667H19.5999C18.8281 21.4667 18.1999 22.0948 18.1999 22.8667V25.6667C18.1999 26.4385 17.5718 27.0667 16.7999 27.0667ZM22.0462 22.4L19.1333 25.3129V22.8667C19.1333 22.6091 19.3423 22.4 19.5999 22.4H22.0462Z" fill="white"/>
<path d="M18.6666 10.7335C20.9826 10.7335 22.8666 8.84956 22.8666 6.5335C22.8666 4.21743 20.9826 2.3335 18.6666 2.3335C16.3505 2.3335 14.4666 4.21743 14.4666 6.5335C14.4666 8.84956 16.3505 10.7335 18.6666 10.7335ZM18.6666 9.80016C17.9339 9.80016 17.2596 9.5547 16.714 9.1459L18.8598 7.00016H21.8959C21.6682 8.5803 20.3088 9.80016 18.6666 9.80016ZM21.8959 6.06683H19.1332V3.30416C20.5608 3.50996 21.6901 4.6393 21.8959 6.06683ZM18.1999 3.30416V6.3403L16.0542 8.48603C15.6454 7.9405 15.3999 7.2657 15.3999 6.5335C15.3999 4.8913 16.6198 3.5319 18.1999 3.30416Z" fill="white"/>
<path d="M6.53343 15.8665H7.46676C7.9815 15.8665 8.4001 15.4479 8.4001 14.9332V7.46654C8.4001 6.9518 7.9815 6.5332 7.46676 6.5332H6.53343C6.0187 6.5332 5.6001 6.9518 5.6001 7.46654V14.9332C5.6001 15.4479 6.0187 15.8665 6.53343 15.8665ZM6.53343 7.46654H7.46676L7.4677 14.9332H6.53343V7.46654Z" fill="white"/>
<path d="M10.2666 15.8667H11.1999C11.7147 15.8667 12.1333 15.4481 12.1333 14.9334V9.80003C12.1333 9.2853 11.7147 8.8667 11.1999 8.8667H10.2666C9.75185 8.8667 9.33325 9.2853 9.33325 9.80003V14.9334C9.33325 15.4481 9.75185 15.8667 10.2666 15.8667ZM10.2666 9.80003H11.1999L11.2009 14.9334H10.2666V9.80003Z" fill="white"/>
<path d="M14 15.8667H14.9333C15.4481 15.8667 15.8667 15.4481 15.8667 14.9334V11.6667C15.8667 11.152 15.4481 10.7334 14.9333 10.7334H14C13.4853 10.7334 13.0667 11.152 13.0667 11.6667V14.9334C13.0667 15.4481 13.4853 15.8667 14 15.8667ZM14 11.6667H14.9333L14.9342 14.9334H14V11.6667Z" fill="white"/>
<path d="M17.7334 12.1333C17.2186 12.1333 16.8 12.5519 16.8 13.0666V14.9333C16.8 15.448 17.2186 15.8666 17.7334 15.8666H18.6667C19.1814 15.8666 19.6 15.448 19.6 14.9333V13.0666C19.6 12.5519 19.1814 12.1333 18.6667 12.1333H17.7334ZM17.7334 14.9333V13.0666H18.6667L18.6676 14.9333H17.7334Z" fill="white"/>
<path d="M6.06676 18.1999H21.9334C22.1915 18.1999 22.4001 17.9913 22.4001 17.7333C22.4001 17.4752 22.1915 17.2666 21.9334 17.2666H6.06676C5.8087 17.2666 5.6001 17.4752 5.6001 17.7333C5.6001 17.9913 5.8087 18.1999 6.06676 18.1999Z" fill="white"/>
<path d="M17.7334 20.0669H6.06676C5.8087 20.0669 5.6001 20.2755 5.6001 20.5336C5.6001 20.7916 5.8087 21.0002 6.06676 21.0002H17.7334C17.9915 21.0002 18.2001 20.7916 18.2001 20.5336C18.2001 20.2755 17.9915 20.0669 17.7334 20.0669Z" fill="white"/>
<path d="M15.8668 22.8667H6.06676C5.8087 22.8667 5.6001 23.0753 5.6001 23.3334C5.6001 23.5914 5.8087 23.8 6.06676 23.8H15.8668C16.1248 23.8 16.3334 23.5914 16.3334 23.3334C16.3334 23.0753 16.1248 22.8667 15.8668 22.8667Z" fill="white"/>
</g>
<defs>
<clipPath id="clip0_142_365">
<rect width="28" height="28" fill="white"/>
</clipPath>
</defs>
</svg>
