<svg width="28" height="28" viewBox="0 0 28 28" fill="none" xmlns="http://www.w3.org/2000/svg">
<path d="M14 3.44531C11.8439 3.44531 10.0898 5.19941 10.0898 7.35547C10.0898 9.51152 11.8439 11.2656 14 11.2656C16.1561 11.2656 17.9102 9.51152 17.9102 7.35547C17.9102 5.19941 16.1561 3.44531 14 3.44531ZM14 10.4453C12.2963 10.4453 10.9102 9.0592 10.9102 7.35547C10.9102 5.65173 12.2963 4.26562 14 4.26562C15.7037 4.26562 17.0898 5.65173 17.0898 7.35547C17.0898 9.0592 15.7037 10.4453 14 10.4453Z" fill="white"/>
<path d="M14 5.08594C12.7486 5.08594 11.7305 6.10405 11.7305 7.35547C11.7305 8.60688 12.7486 9.625 14 9.625C15.2514 9.625 16.2695 8.60688 16.2695 7.35547C16.2695 6.10405 15.2514 5.08594 14 5.08594ZM14 8.80469C13.2009 8.80469 12.5508 8.15456 12.5508 7.35547C12.5508 6.55638 13.2009 5.90625 14 5.90625C14.7991 5.90625 15.4492 6.55638 15.4492 7.35547C15.4492 8.15456 14.7991 8.80469 14 8.80469Z" fill="white"/>
<path d="M22.5859 8.58594C22.3594 8.58594 22.1758 8.76952 22.1758 8.99609V22.1484H17.8281C17.4512 22.1484 17.1445 22.455 17.1445 22.832V22.9687H14.793V22.832C14.793 22.455 14.4863 22.1484 14.1094 22.1484H13.0156C12.6387 22.1484 12.332 22.455 12.332 22.832V22.9687H11.1562C10.9297 22.9687 10.7461 23.1523 10.7461 23.3789C10.7461 23.6054 10.9297 23.789 11.1562 23.789H12.332V23.9257C12.332 24.3027 12.6387 24.6093 13.0156 24.6093H14.1094C14.4863 24.6093 14.793 24.3027 14.793 23.9257V23.789H17.1445V27.5898C17.1411 27.8103 17.3342 28.0038 17.5547 27.9999H21.7656C22.4441 27.9999 22.9961 27.4479 22.9961 26.7695V8.99609C22.9961 8.76952 22.8125 8.58594 22.5859 8.58594ZM13.9727 23.789H13.1523V22.9687H13.9727V23.789ZM17.9648 22.9687H21.5957L17.9648 26.5996V22.9687ZM21.7656 27.1796H18.545L22.1758 23.5488V26.7695C22.1758 26.9957 21.9918 27.1796 21.7656 27.1796Z" fill="white"/>
<path d="M21.7656 3.44531H19.8443C19.8488 3.40211 19.8515 3.35852 19.8515 3.31445C19.8515 2.98572 19.7235 2.67673 19.4911 2.44442L18.9111 1.8643C18.6787 1.63193 18.3697 1.50391 18.041 1.50396C17.7123 1.50396 17.4033 1.63198 17.171 1.86435L16.6609 2.37437C16.6197 2.41566 16.5569 2.42736 16.5085 2.4027C16.26 2.27675 16 2.16885 15.7357 2.08195C15.6789 2.06325 15.6407 2.01327 15.6407 1.95754V1.23047C15.6406 0.552016 15.0886 0 14.4102 0H13.5898C12.9113 0 12.3594 0.552016 12.3594 1.23047V1.95748C12.3594 2.01327 12.3211 2.06325 12.2642 2.0819C11.9701 2.17864 11.6838 2.30032 11.4098 2.44508L10.8291 1.86441C10.5966 1.63198 10.2876 1.50396 9.95898 1.50396C9.6303 1.50396 9.32127 1.63198 9.0889 1.86435L8.50883 2.44437C8.27641 2.67679 8.14844 2.98577 8.14844 3.31445C8.14844 3.35847 8.15112 3.40211 8.15566 3.44531H6.23438C5.55587 3.44531 5.00391 3.99733 5.00391 4.67578V26.7695C5.00391 27.4479 5.55587 27.9999 6.23438 27.9999H15.6406C15.8672 27.9999 16.0508 27.8164 16.0508 27.5898C16.0508 27.3632 15.8672 27.1796 15.6406 27.1796H6.23438C6.00819 27.1796 5.82422 26.9957 5.82422 26.7695V4.67578C5.82422 4.44959 6.00819 4.26562 6.23438 4.26562H8.58993L9.0189 4.69459C9.06013 4.73588 9.07184 4.79855 9.04723 4.84706C8.92123 5.09551 8.81327 5.35549 8.72643 5.6198C8.70773 5.67667 8.65774 5.71484 8.60202 5.71484H7.875C7.19649 5.71484 6.64453 6.26686 6.64453 6.94531V7.76562C6.64453 8.44408 7.19649 8.99609 7.875 8.99609H8.60202C8.65774 8.99609 8.70778 9.03427 8.72643 9.09114C8.81338 9.35561 8.92128 9.61559 9.04723 9.86393C9.07184 9.91238 9.06013 9.97505 9.0189 10.0163L8.50883 10.5264C8.27641 10.7588 8.14844 11.0678 8.14844 11.3964C8.14844 11.7251 8.27646 12.0341 8.50883 12.2665L9.08884 12.8465C9.32127 13.0789 9.63025 13.2069 9.95892 13.2069C10.2876 13.2069 10.5966 13.0789 10.829 12.8465L11.3391 12.3365C11.3804 12.2952 11.443 12.2835 11.4915 12.3082C11.7399 12.4341 11.9999 12.542 12.2642 12.6289C12.3211 12.6476 12.3593 12.6976 12.3593 12.7533V13.4804C12.3593 14.1588 12.9113 14.7108 13.5898 14.7108H14.4101C15.0886 14.7108 15.6406 14.1588 15.6406 13.4804V12.7533C15.6406 12.6976 15.6787 12.6476 15.7356 12.6289C15.9999 12.542 16.2599 12.4341 16.5084 12.3081C16.5569 12.2835 16.6195 12.2952 16.6608 12.3365L17.1708 12.8465C17.4032 13.0789 17.7122 13.2069 18.0409 13.2069C18.3696 13.2069 18.6786 13.0789 18.911 12.8465L19.491 12.2665C19.7234 12.0341 19.8514 11.7252 19.8514 11.3964C19.8514 11.0677 19.7234 10.7587 19.491 10.5264L18.981 10.0163C18.9397 9.97505 18.9281 9.91238 18.9527 9.86387C19.0786 9.61543 19.1865 9.35545 19.2734 9.09114C19.2921 9.03427 19.3421 8.99609 19.3978 8.99609H20.125C20.8035 8.99609 21.3555 8.44408 21.3555 7.76562V6.94531C21.3555 6.26686 20.8035 5.71484 20.125 5.71484H19.398C19.3422 5.71484 19.2922 5.67667 19.2736 5.6198C19.1867 5.35549 19.0788 5.09551 18.9528 4.84701C18.9282 4.7985 18.9399 4.73583 18.9811 4.69465L19.41 4.26562H21.7656C21.9918 4.26562 22.1758 4.44959 22.1758 4.67578V7.08203C22.1758 7.3086 22.3594 7.49219 22.5859 7.49219C22.8125 7.49219 22.9961 7.3086 22.9961 7.08203V4.67578C22.9961 3.99733 22.4441 3.44531 21.7656 3.44531ZM18.2211 5.21801C18.3284 5.42954 18.4203 5.65091 18.4942 5.8759C18.6238 6.2702 18.987 6.53516 19.3979 6.53516H20.125C20.3512 6.53516 20.5352 6.71912 20.5352 6.94531V7.76562C20.5352 7.99181 20.3512 8.17578 20.125 8.17578H19.398C18.987 8.17578 18.6239 8.44074 18.4943 8.83504C18.4203 9.06002 18.3285 9.2814 18.2212 9.49288C18.0353 9.85945 18.1076 10.3029 18.401 10.5964L18.9111 11.1065C18.9885 11.1839 19.0312 11.287 19.0312 11.3965C19.0312 11.506 18.9885 11.6091 18.911 11.6865L18.331 12.2666C18.2536 12.344 18.1506 12.3867 18.041 12.3867C17.9315 12.3867 17.8285 12.344 17.751 12.2665L17.2409 11.7564C16.9473 11.463 16.504 11.3907 16.1375 11.5766C15.9259 11.6839 15.7046 11.7758 15.4796 11.8497C15.0853 11.9794 14.8203 12.3425 14.8203 12.7535V13.4805C14.8203 13.7067 14.6363 13.8906 14.4102 13.8906H13.5898C13.3637 13.8906 13.1797 13.7067 13.1797 13.4805V12.7535C13.1797 12.3425 12.9147 11.9794 12.5204 11.8497C12.2953 11.7758 12.074 11.6839 11.8626 11.5767C11.727 11.5079 11.581 11.4745 11.4358 11.4745C11.1886 11.4745 10.944 11.5715 10.7591 11.7565L10.249 12.2666C10.1715 12.344 10.0685 12.3867 9.95898 12.3867C9.84944 12.3867 9.74646 12.344 9.66897 12.2665L9.0889 11.6865C9.01141 11.6091 8.96875 11.506 8.96875 11.3965C8.96875 11.287 9.01141 11.1839 9.0889 11.1065L9.59902 10.5964C9.89248 10.3029 9.96472 9.85939 9.77889 9.49288C9.6717 9.28151 9.57977 9.06013 9.50578 8.83504C9.37617 8.44074 9.01299 8.17578 8.60207 8.17578H7.875C7.64881 8.17578 7.46484 7.99181 7.46484 7.76562V6.94531C7.46484 6.71912 7.64881 6.53516 7.875 6.53516H8.60202C9.01294 6.53516 9.37612 6.2702 9.50573 5.8759C9.57966 5.65091 9.67154 5.42959 9.77884 5.21806C9.96472 4.85155 9.89248 4.40809 9.59897 4.11452L9.0889 3.60445C9.01141 3.52702 8.96875 3.42398 8.96875 3.31445C8.96875 3.20491 9.01141 3.10188 9.0889 3.02444L9.66897 2.44437C9.74646 2.36693 9.84938 2.32427 9.95898 2.32427C10.0685 2.32427 10.1715 2.36693 10.249 2.44442L11.0502 3.24559C11.1837 3.37909 11.3912 3.40419 11.5527 3.30635C11.8571 3.122 12.1827 2.97221 12.5204 2.86114C12.9147 2.73153 13.1797 2.3683 13.1797 1.95743V1.23047C13.1797 1.00428 13.3637 0.820312 13.5898 0.820312H14.4102C14.6363 0.820312 14.8203 1.00428 14.8203 1.23047V1.95748C14.8203 2.36846 15.0853 2.73159 15.4796 2.8612C15.7046 2.93519 15.9259 3.02701 16.1374 3.13425C16.5039 3.32019 16.9474 3.24789 17.2409 2.95444L17.751 2.44437C17.8285 2.36693 17.9315 2.32427 18.041 2.32427C18.1506 2.32427 18.2536 2.36687 18.331 2.44431L18.9111 3.02444C18.9885 3.10188 19.0312 3.20491 19.0312 3.31445C19.0312 3.42398 18.9885 3.52702 18.911 3.60445L18.401 4.11458C18.1075 4.40809 18.0353 4.85155 18.2211 5.21801Z" fill="white"/>
<path d="M9.24219 22.1484H8.14844C7.77148 22.1484 7.46484 22.4551 7.46484 22.832V23.9258C7.46484 24.3027 7.77148 24.6094 8.14844 24.6094H9.24219C9.61915 24.6094 9.92578 24.3027 9.92578 23.9258V22.832C9.92578 22.4551 9.61915 22.1484 9.24219 22.1484ZM9.10547 23.7891H8.28516V22.9688H9.10547V23.7891Z" fill="white"/>
<path d="M9.92578 19.5508C9.92578 19.1738 9.61915 18.8672 9.24219 18.8672H8.14844C7.77148 18.8672 7.46484 19.1738 7.46484 19.5508V20.6445C7.46484 21.0215 7.77148 21.3281 8.14844 21.3281H9.24219C9.61915 21.3281 9.92578 21.0215 9.92578 20.6445V19.5508ZM9.10547 20.5078H8.28516V19.6875H9.10547V20.5078Z" fill="white"/>
<path d="M11.1562 20.5078H12.332V20.6445C12.332 21.0215 12.6387 21.3281 13.0156 21.3281H14.1094C14.4863 21.3281 14.793 21.0215 14.793 20.6445V20.5078H20.125C20.3516 20.5078 20.5352 20.3242 20.5352 20.0977C20.5352 19.8711 20.3516 19.6875 20.125 19.6875H14.793V19.5508C14.793 19.1738 14.4863 18.8672 14.1094 18.8672H13.0156C12.6387 18.8672 12.332 19.1738 12.332 19.5508V19.6875H11.1562C10.9297 19.6875 10.7461 19.8711 10.7461 20.0977C10.7461 20.3242 10.9297 20.5078 11.1562 20.5078ZM13.1523 19.6875H13.9727V20.5078H13.1523V19.6875Z" fill="white"/>
<path d="M18.5391 15.5859H17.4453C17.0684 15.5859 16.7617 15.8926 16.7617 16.2695V16.4062H11.1562C10.9297 16.4062 10.7461 16.5898 10.7461 16.8164C10.7461 17.043 10.9297 17.2266 11.1562 17.2266H16.7617V17.3633C16.7617 17.7402 17.0684 18.0469 17.4453 18.0469H18.5391C18.916 18.0469 19.2227 17.7402 19.2227 17.3633V17.2266H20.125C20.3516 17.2266 20.5352 17.043 20.5352 16.8164C20.5352 16.5898 20.3516 16.4062 20.125 16.4062H19.2227V16.2695C19.2227 15.8926 18.916 15.5859 18.5391 15.5859ZM18.4023 17.2266H17.582V16.4062H18.4023V17.2266Z" fill="white"/>
<path d="M9.92578 16.2695C9.92578 15.8926 9.61915 15.5859 9.24219 15.5859H8.14844C7.77148 15.5859 7.46484 15.8926 7.46484 16.2695V17.3633C7.46484 17.7402 7.77148 18.0469 8.14844 18.0469H9.24219C9.61915 18.0469 9.92578 17.7402 9.92578 17.3633V16.2695ZM9.10547 17.2266H8.28516V16.4062H9.10547V17.2266Z" fill="white"/>
</svg>
