<svg width="28" height="28" viewBox="0 0 28 28" fill="none" xmlns="http://www.w3.org/2000/svg">
<g clip-path="url(#clip0_7095_14338)">
<path fill-rule="evenodd" clip-rule="evenodd" d="M6.13677 2.88778V5.32597H3.69831C3.82694 4.04114 4.85069 3.01641 6.13677 2.88778ZM3.41022 5.87284H6.40945C6.5612 5.87284 6.68206 5.75018 6.68206 5.59919V2.60073C6.68206 2.44973 6.5612 2.32729 6.40945 2.32729C4.60629 2.32729 3.1376 3.79499 3.1376 5.59913C3.1376 5.75013 3.25846 5.87284 3.41022 5.87284ZM7.88076 7.34492H5.16963C5.30853 8.71977 6.47119 9.79651 7.88076 9.79651C9.38291 9.79651 10.6073 8.57419 10.6073 7.07148C10.6073 5.66115 9.52953 4.49723 8.156 4.36013V7.07148C8.15595 7.22248 8.03252 7.34492 7.88076 7.34492ZM4.60886 7.07148C4.60886 8.87562 6.0776 10.3433 7.8807 10.3433C9.68638 10.3433 11.1525 8.87562 11.1525 7.07148C11.1525 5.26734 9.68638 3.79964 7.8807 3.79964C7.72895 3.79964 7.60803 3.92209 7.60803 4.0728V6.79805H4.88405C4.73234 6.79805 4.60886 6.92049 4.60886 7.07148ZM23.4581 4.84576H24.3147V9.79651H23.4581V4.84576ZM23.1829 10.3434H24.5873C24.7391 10.3434 24.86 10.2209 24.86 10.0699V4.57232C24.86 4.42133 24.7391 4.29888 24.5873 4.29888H23.1829C23.0337 4.29888 22.9102 4.42133 22.9102 4.57232V10.0699C22.9102 10.2209 23.0337 10.3434 23.1829 10.3434ZM20.6492 3.17434H21.5058V9.79651H20.6492V3.17434ZM20.3766 10.3434H21.781C21.9302 10.3434 22.0537 10.2209 22.0537 10.0699V2.90118C22.0537 2.74997 21.9302 2.62752 21.781 2.62752H20.3766C20.2248 2.62752 20.1039 2.74997 20.1039 2.90118V10.0699C20.1039 10.2209 20.2248 10.3434 20.3766 10.3434ZM17.8429 7.08691H18.6995V9.79651H17.8429V7.08691ZM17.5677 10.3434H18.9721C19.1239 10.3434 19.2448 10.2209 19.2448 10.0699V6.81325C19.2448 6.66198 19.124 6.53981 18.9721 6.53981H17.5677C17.4185 6.53981 17.295 6.66198 17.295 6.81325V10.0699C17.295 10.2209 17.4185 10.3434 17.5677 10.3434ZM23.1288 15.1673C23.2369 15.2746 23.2369 15.4474 23.1288 15.5542L20.6415 18.0423C20.534 18.1496 20.3633 18.1496 20.2557 18.0423L18.8049 16.5931C18.6995 16.4861 18.6995 16.3133 18.8049 16.2065C18.9129 16.0995 19.0853 16.0995 19.1933 16.2065L20.4485 17.4623L22.743 15.1674C22.851 15.0608 23.0234 15.0608 23.1288 15.1673ZM20.9682 19.9508C22.8125 19.9508 24.3146 18.4502 24.3146 16.6052C24.3146 14.7601 22.8125 13.2589 20.9682 13.2589C19.1239 13.2589 17.6217 14.7601 17.6217 16.6052C17.6217 18.4502 19.1239 19.9508 20.9682 19.9508ZM20.9682 12.7118C18.823 12.7118 17.0738 14.4586 17.0738 16.6052C17.0738 18.7517 18.823 20.4979 20.9682 20.4979C23.116 20.4979 24.86 18.7516 24.86 16.6052C24.86 14.4587 23.116 12.7118 20.9682 12.7118ZM11.0574 19.841H3.68289V18.984H11.0574V19.841ZM11.3301 18.4374H3.41022C3.25846 18.4374 3.13755 18.5598 3.13755 18.7105V20.1145C3.13755 20.2654 3.25846 20.3879 3.41022 20.3879H11.3301C11.4818 20.3879 11.6053 20.2654 11.6053 20.1145V18.7105C11.6053 18.5598 11.4818 18.4374 11.3301 18.4374ZM3.68289 16.1764H8.7347V17.0334H3.68289V16.1764ZM3.1376 17.3069C3.1376 17.4578 3.25852 17.5803 3.41027 17.5803H9.00743C9.15919 17.5803 9.28267 17.4578 9.28267 17.3069V15.9029C9.28267 15.7519 9.15919 15.6295 9.00743 15.6295H3.41022C3.25846 15.6295 3.13755 15.7519 3.13755 15.9029L3.1376 17.3069ZM3.68289 13.3688H6.39402V14.2259H3.68289V13.3688ZM3.41022 14.7725H6.66664C6.8184 14.7725 6.94188 14.65 6.94188 14.499V13.0954C6.94188 12.9444 6.8184 12.8219 6.66664 12.8219H3.41022C3.25846 12.8219 3.13755 12.9444 3.13755 13.0954V14.499C3.1376 14.65 3.25846 14.7725 3.41022 14.7725ZM25.9789 11.6341C25.9789 11.4831 25.8554 11.3607 25.7036 11.3607H14.2573V2.66684C14.2573 2.51612 14.1338 2.39368 13.9846 2.39368C13.8328 2.39368 13.7094 2.51612 13.7094 2.66684V11.3607H2.26304C2.11128 11.3607 1.9878 11.4831 1.9878 11.6341C1.9878 11.7851 2.11128 11.9076 2.26304 11.9076H13.7094V20.6011C13.7094 20.7521 13.8329 20.8746 13.9846 20.8746C14.1338 20.8746 14.2573 20.7521 14.2573 20.6011V11.9075H25.7037C25.8554 11.9075 25.9789 11.7851 25.9789 11.6341ZM26.8354 19.554V3.71422C26.8354 2.51377 25.858 1.53711 24.6567 1.53711H3.30992C2.10871 1.53711 1.13128 2.51377 1.13128 3.71422V19.5539C1.13128 20.7544 2.10871 21.731 3.30992 21.731H24.6568C25.858 21.7311 26.8354 20.7544 26.8354 19.554ZM16.7189 25.1223H11.2478V22.2779H16.7189V25.1223ZM21.0968 26.1645V26.6594H6.87243V26.1645C6.87243 25.8911 7.09364 25.6691 7.36631 25.6691H20.6004C20.873 25.6691 21.0968 25.8911 21.0968 26.1645ZM24.6568 0.990234H3.30992C1.80777 0.990234 0.585938 2.21206 0.585938 3.71422V19.5539C0.585938 21.0561 1.80777 22.2779 3.30992 22.2779H10.7025V25.1222H7.36631C6.79269 25.1222 6.32457 25.5899 6.32457 26.1645V26.9328C6.32457 27.0838 6.44805 27.2062 6.59724 27.2062H21.3695C21.5212 27.2062 21.6422 27.0838 21.6422 26.9328V26.1645C21.6422 25.5898 21.174 25.1222 20.6004 25.1222H17.2643V22.2779H24.6568C26.1615 22.2779 27.3834 21.0561 27.3834 19.5539V3.71422C27.3833 2.21206 26.1615 0.990234 24.6568 0.990234Z" fill="white"/>
</g>
<defs>
<clipPath id="clip0_7095_14338">
<rect width="28" height="28" fill="white"/>
</clipPath>
</defs>
</svg>
