<svg width="28" height="28" viewBox="0 0 28 28" fill="none" xmlns="http://www.w3.org/2000/svg">
<g clip-path="url(#clip0_142_361)">
<path d="M27.733 0.0779768C27.5624 -0.0239462 27.3514 -0.0253817 27.1775 0.0703206L18.4889 4.87816L9.79914 0.0717561C9.63046 -0.0220321 9.4271 -0.0229892 9.2577 0.0703206L0.297815 5.02818C0.119569 5.12651 0.0090332 5.31409 0.0090332 5.51817V27.44C0.0090332 27.6386 0.114066 27.8216 0.284656 27.9223C0.372223 27.9742 0.470557 28.0001 0.568892 28.0001C0.662441 28.0001 0.755511 27.9764 0.840208 27.93L9.52902 23.1221L18.2176 27.93C18.3023 27.9764 18.3954 28.0001 18.4889 28.0001C18.5822 28.0001 18.675 27.975 18.759 27.9283L27.7201 22.9721C27.8984 22.8735 28.0087 22.686 28.0087 22.4821V0.560316C28.0087 0.361734 27.9036 0.178464 27.733 0.0779768ZM8.96892 22.1517L1.12899 26.4901V5.84835L8.96892 1.51016V22.1517ZM17.9288 26.4901L10.0889 22.1519V1.51016L17.9288 5.84835V26.4901ZM26.8887 22.1517L19.0488 26.4899V5.84835L26.8887 1.51016V22.1517Z" fill="white" stroke="white" stroke-width="0.3"/>
</g>
<defs>
<clipPath id="clip0_142_361">
<rect width="28" height="28" fill="white"/>
</clipPath>
</defs>
</svg>
